<svg width="39" height="9" viewBox="0 0 39 9" fill="none" xmlns="http://www.w3.org/2000/svg">
<path d="M4.36759 8.71228C6.77974 8.71228 8.73518 6.76197 8.73518 4.35614C8.73518 1.95031 6.77974 0 4.36759 0C1.95544 0 0 1.95031 0 4.35614C0 6.76197 1.95544 8.71228 4.36759 8.71228Z" fill="#D92728"/>
<path d="M5.79022 1.99942C5.18572 1.99942 4.65829 2.32236 4.36759 2.80367C4.07689 2.32236 3.54946 1.99942 2.94497 1.99942C2.02734 1.99942 1.28339 2.74143 1.28339 3.65664C1.28339 5.61244 4.36759 7.21585 4.36759 7.21585C4.36759 7.21585 7.45158 5.2853 7.45158 3.65664C7.45158 2.74143 6.70784 1.99942 5.79022 1.99942Z" fill="white"/>
<path d="M19.3676 8.71228C21.7797 8.71228 23.7352 6.76197 23.7352 4.35614C23.7352 1.95031 21.7797 0 19.3676 0C16.9554 0 15 1.95031 15 4.35614C15 6.76197 16.9554 8.71228 19.3676 8.71228Z" fill="#D92728"/>
<path d="M20.7902 1.99942C20.1857 1.99942 19.6583 2.32236 19.3676 2.80367C19.0769 2.32236 18.5495 1.99942 17.945 1.99942C17.0273 1.99942 16.2834 2.74143 16.2834 3.65664C16.2834 5.61244 19.3676 7.21585 19.3676 7.21585C19.3676 7.21585 22.4516 5.2853 22.4516 3.65664C22.4516 2.74143 21.7078 1.99942 20.7902 1.99942Z" fill="white"/>
<path d="M34.3676 8.71228C36.7797 8.71228 38.7352 6.76197 38.7352 4.35614C38.7352 1.95031 36.7797 0 34.3676 0C31.9554 0 30 1.95031 30 4.35614C30 6.76197 31.9554 8.71228 34.3676 8.71228Z" fill="#D92728"/>
<path d="M35.7902 1.99942C35.1857 1.99942 34.6583 2.32236 34.3676 2.80367C34.0769 2.32236 33.5495 1.99942 32.945 1.99942C32.0273 1.99942 31.2834 2.74143 31.2834 3.65664C31.2834 5.61244 34.3676 7.21585 34.3676 7.21585C34.3676 7.21585 37.4516 5.2853 37.4516 3.65664C37.4516 2.74143 36.7078 1.99942 35.7902 1.99942Z" fill="white"/>
</svg>
