<svg width="669" height="468" viewBox="0 0 669 468" fill="none" xmlns="http://www.w3.org/2000/svg">
<path d="M402.556 208.716C402.556 208.716 332.234 222.998 332.234 266.302V435.309" stroke="#DDA299" stroke-width="4.36" stroke-linecap="round" stroke-linejoin="round"/>
<path d="M261.831 208.716C261.831 208.716 332.153 222.998 332.153 266.302V435.309" stroke="#DDA299" stroke-width="4.36" stroke-linecap="round" stroke-linejoin="round"/>
<path d="M172.5 207.405H482.5" stroke="#DDA299" stroke-width="4.36" stroke-linecap="round" stroke-linejoin="round"/>
<path d="M83.0671 297.879L43.4814 468H49.8119L94.4684 301.679L83.0671 297.879Z" fill="#7A0000"/>
<path d="M161.158 297.879L197.881 457.01H191.551L149.757 301.679L161.158 297.879Z" fill="#7A0000"/>
<path d="M37.167 194.532C37.167 194.532 -2.41865 195.482 0.116795 233.218C2.19422 264.222 22.9194 313.094 66.6108 321.971C90.673 326.41 141.333 323.871 141.333 323.871L174.261 324.51C174.261 324.51 186.611 313.455 180.379 308.132C164.675 294.734 120.264 278.323 119.806 276.964C119.168 275.064 73.5792 220.541 73.5792 220.541L37.167 194.549V194.532Z" fill="#7A0000"/>
<path d="M47.6028 194.221C47.6028 194.221 5.17093 191.371 5.80888 222.441C6.44683 253.51 28.6115 302.317 72.3029 311.194C96.365 315.633 179.511 313.094 179.511 313.094L179.936 302.317C179.936 302.317 126.12 268.087 125.498 266.187C124.86 264.287 79.2713 209.764 79.2713 209.764L47.6191 194.237L47.6028 194.221Z" fill="#7A0000"/>
<path d="M258.651 96.5736C258.651 96.5736 267.762 95.5581 269.218 95.8693C270.674 96.1805 275.352 105.32 275.352 105.32C275.352 105.32 256.524 100.603 258.651 96.59V96.5736Z" fill="#FF998B"/>
<path d="M266.878 98.3751C266.944 98.8992 266.96 99.4724 267.14 99.9802C267.189 100.111 267.254 100.242 267.336 100.357C267.434 100.504 267.582 100.603 267.712 100.717C267.827 100.815 268.007 100.701 267.925 100.553C267.843 100.406 267.794 100.275 267.712 100.144C267.68 100.095 267.647 100.029 267.631 99.9802C267.614 99.9474 267.631 100.029 267.631 99.9802C267.631 99.9802 267.631 99.9474 267.614 99.931C267.614 99.8983 267.598 99.8655 267.582 99.8328C267.533 99.6526 267.516 99.4724 267.467 99.2923C267.402 98.9647 267.336 98.6372 267.254 98.3096C267.205 98.0967 266.846 98.1458 266.862 98.3587L266.878 98.3751Z" fill="#0D0000"/>
<path d="M275.761 135.456L294.343 139.435C296.895 139.976 299.414 138.354 299.954 135.799L306.284 106.237C306.431 105.582 306.006 104.943 305.352 104.795L279.899 99.3251C279.245 99.1777 278.607 99.6035 278.46 100.259L272.129 129.821C271.589 132.376 273.209 134.899 275.761 135.439V135.456Z" fill="#DDE5F2"/>
<path d="M278.378 102.273C278.378 102.273 270.51 100.078 268.563 100.996C266.617 101.929 263.918 125.792 265.946 128.167C267.893 130.46 276.006 131.132 276.006 131.132" stroke="#DDE5F2" stroke-width="1.6" stroke-miterlimit="10"/>
<path d="M191.322 142.613C191.322 142.613 243.291 107.252 244.207 106.81C245.123 106.368 257.293 97.2286 258.667 96.5735C260.041 95.9183 277.707 105.86 278.607 106.99C279.916 108.628 277.609 112.035 276.366 112.362C275.106 112.69 272.407 112.395 272.407 112.395C272.407 112.395 273.323 115.556 272.98 116.342C272.636 117.112 271.295 119.044 271.295 119.044C271.295 119.044 272.375 121.075 272.146 121.501C271.524 122.664 270.641 123.761 269.594 124.253C268.661 124.695 269.43 126.66 267.402 127.086C266.306 127.315 249.736 124.285 249.736 124.285L207.549 155.535L191.322 142.613Z" fill="#FF998B"/>
<path d="M275.597 104.812C273.83 103.551 272.015 102.388 270.085 101.373C268.4 100.488 266.633 99.5874 264.768 99.1615C264.572 99.1124 264.507 99.3908 264.687 99.4564C268.416 101.029 272.047 102.879 275.466 105.041C275.613 105.14 275.744 104.91 275.613 104.796L275.597 104.812Z" fill="#0D0000"/>
<path d="M247.429 123.467C248.051 123.762 248.721 124.007 249.392 124.204C250.063 124.4 250.75 124.646 251.437 124.564C251.551 124.564 251.567 124.417 251.469 124.368C250.848 124.122 250.177 124.024 249.539 123.827C248.901 123.631 248.247 123.434 247.625 123.172C247.429 123.09 247.265 123.369 247.462 123.467H247.429Z" fill="#0D0000"/>
<path d="M272.44 112.231C271.148 111.773 269.774 111.56 268.416 111.396C268.302 111.396 268.286 111.56 268.384 111.593C269.054 111.756 269.709 111.887 270.379 112.035C271.05 112.182 271.704 112.313 272.359 112.542C272.555 112.608 272.637 112.313 272.44 112.231Z" fill="#0D0000"/>
<path d="M263.247 116.62C264.588 117.21 265.979 117.718 267.385 118.127C268.105 118.34 268.841 118.52 269.577 118.684C270.15 118.815 270.87 119.094 271.442 118.864C271.557 118.815 271.557 118.619 271.409 118.635C270.739 118.684 270.019 118.455 269.365 118.307C268.678 118.144 267.991 117.98 267.32 117.783C265.962 117.39 264.637 116.932 263.345 116.391C263.214 116.342 263.132 116.555 263.247 116.604V116.62Z" fill="#0D0000"/>
<path d="M261.071 122.173C262.412 122.762 263.803 123.27 265.21 123.696C265.929 123.909 266.665 124.089 267.402 124.253C267.974 124.384 268.694 124.662 269.266 124.433C269.381 124.384 269.381 124.187 269.234 124.204C268.563 124.253 267.843 124.024 267.189 123.876C266.502 123.712 265.815 123.549 265.144 123.352C263.786 122.959 262.462 122.5 261.169 121.96C261.038 121.911 260.957 122.124 261.071 122.173Z" fill="#0D0000"/>
<path d="M179.758 446.495C179.758 446.495 177.762 448.198 176.617 453.374C176.093 455.716 177.762 457.993 180.15 458.206C186.464 458.762 198.504 459.499 206.404 457.927C217.528 455.732 218.983 459.385 233.035 459.254C247.086 459.106 260.843 458.369 261.873 449.296L202.74 445.774L179.758 446.511V446.495Z" fill="#5E757A"/>
<path d="M193.874 340.282C193.727 341.166 195.902 403.944 186.791 423.582L200.253 436.537L228.503 443.285L224.545 431.411L216.202 425.842C216.202 425.842 206.731 410.708 231.758 345.245C235.128 336.417 193.874 340.282 193.874 340.282Z" fill="#FF998B"/>
<path d="M179.201 449.46C176.535 449.132 179.07 441.418 180.51 437.585C182.669 431.886 184.828 426.186 186.971 420.486C190.848 424.155 195.085 428.381 199.943 430.559C202.38 431.656 204.981 432.328 207.582 432.934C211.066 433.753 214.567 434.457 218.1 435.063C217.053 433.966 215.548 433.212 214.387 432.23C213.225 431.263 212.162 430.002 211.966 428.495C211.72 426.661 212.816 424.909 214.092 423.582C215.221 422.403 216.513 421.42 217.936 420.634C219.409 419.831 221.208 419.274 222.729 419.979C223.449 420.306 224.021 420.879 224.528 421.469C226.835 424.139 228.291 427.48 230.679 430.1C234.687 434.49 240.723 436.259 246.448 437.831C248.672 438.453 250.913 439.059 253.138 439.682C254.741 440.124 256.377 440.583 257.767 441.5C260.303 443.17 262.364 446.282 261.857 449.279C261.857 449.279 238.236 456.568 179.185 449.46H179.201Z" fill="#20120D"/>
<path d="M274.436 448.002C274.436 448.002 273.781 450.54 275.81 455.438C276.726 457.665 279.392 458.566 281.469 457.354C286.949 454.176 297.222 447.838 302.8 442.007C310.635 433.802 313.939 435.964 325.357 427.758C336.775 419.553 347.604 411.036 343.236 403.011L292.838 434.162L274.452 447.985L274.436 448.002Z" fill="#5E757A"/>
<path d="M225.003 352.975C225.396 353.778 263.214 403.895 267.042 425.22L285.494 428.069L312.484 417.325L302.44 409.89L292.413 410.135C292.413 410.135 275.973 403.207 258.863 335.238C256.557 326.066 225.019 352.975 225.019 352.975H225.003Z" fill="#FF998B"/>
<path d="M275.679 450.753C273.307 452.031 270.952 444.251 269.938 440.288C268.433 434.392 266.928 428.479 265.423 422.583C270.69 423.353 276.595 424.368 281.813 423.353C284.43 422.845 286.95 421.895 289.42 420.896C292.74 419.553 296.012 418.112 299.251 416.588C297.762 416.294 296.094 416.539 294.589 416.408C293.084 416.277 291.497 415.868 290.466 414.754C289.223 413.395 289.109 411.331 289.387 409.513C289.632 407.908 290.123 406.336 290.843 404.894C291.595 403.387 292.74 401.897 294.392 401.602C295.161 401.455 295.963 401.602 296.715 401.782C300.134 402.634 303.242 404.534 306.693 405.304C312.484 406.598 318.454 404.567 324.032 402.552C326.208 401.766 328.384 400.996 330.559 400.21C332.13 399.653 333.716 399.08 335.385 399.031C338.411 398.949 341.895 400.292 343.187 403.044C343.187 403.044 328.04 422.599 275.646 450.77L275.679 450.753Z" fill="#272727"/>
<path d="M165.952 25.6886C165.952 25.6886 169.747 33.6157 168.863 44.4089C168.847 44.6874 168.863 44.9494 168.896 45.2279C169.37 47.6846 171.889 60.8855 173.345 68.3048C173.623 69.7134 172.511 70.9909 171.088 70.9253C169.305 70.8435 167.048 70.7452 165.445 70.7452C165.445 70.7452 164.267 82.9306 154.959 88.5156C144.556 94.7557 135.51 86.1408 135.51 86.1408C135.51 86.1408 121.819 104.763 121.639 112.559L93.7324 94.2807C93.7324 94.2807 106.41 79.3765 108.945 69.222C111.481 59.0675 111.481 29.9469 120.445 26.9006C129.409 23.8542 163.22 21.4794 165.935 25.7214L165.952 25.6886Z" fill="#FF998B"/>
<path d="M142.102 31.4538C149.136 32.5839 160.537 32.977 170.008 25.705C179.48 18.4167 175.079 5.72357 175.079 5.72357C175.079 5.72357 172.544 13.3395 163.58 8.76993C154.616 4.2004 144.131 -3.41549 125.875 2.841C107.62 9.11387 107.62 16.5496 107.62 16.5496C107.62 16.5496 93.5854 19.4322 96.1208 37.8905C98.6563 56.3488 111.17 63.2931 108.291 69.7298C108.291 69.7298 121.655 69.0583 128.247 60.5907C128.247 60.5907 114.54 53.5645 119.79 44.6711C124.191 37.219 131.29 39.9377 133.155 44.1633C135.019 48.3889 133.662 55.5135 133.662 55.5135L137.882 55.1695C137.882 55.1695 134.905 30.3073 142.102 31.4702V31.4538Z" fill="#20120D"/>
<path d="M131.453 51.4514C132.14 49.5679 131.96 47.3896 130.929 45.6699C130.455 44.8674 129.817 44.1795 129.048 43.6554C128.279 43.1313 127.347 42.6727 126.365 42.7382C126.022 42.7709 125.809 43.2623 126.169 43.4588C126.873 43.8355 127.641 44.0976 128.296 44.5398C128.95 44.982 129.555 45.5552 129.98 46.2104C130.946 47.6844 131.158 49.5515 130.618 51.2221C130.438 51.7626 131.256 51.9591 131.453 51.4514Z" fill="black"/>
<path d="M166.131 40.9204C164.381 38.7093 161.306 38.6602 158.77 39.0533C157.331 39.2826 155.957 39.7411 154.632 40.3308C153.405 40.8876 151.655 42.0177 151.622 43.5082C151.622 44.0323 152.047 44.3598 152.522 44.4089C152.358 44.3926 152.816 44.4417 152.882 44.4253C153.078 44.4253 153.225 44.3598 153.405 44.2943C153.749 44.1797 154.059 44.0322 154.37 43.8685C155.008 43.5409 155.303 43.459 155.973 43.1478C156.415 42.9513 156.84 42.7711 157.429 42.591C158.018 42.4108 158.64 42.247 159.245 42.1324C159.752 42.0341 160.03 42.0014 160.701 41.985C161.24 41.985 161.764 42.0013 162.304 42.0669C162.451 42.0669 162.582 42.0996 162.729 42.0996C162.5 42.0832 162.68 42.0996 162.811 42.0996C163.056 42.1488 163.285 42.1979 163.514 42.2798C163.547 42.2798 163.858 42.4108 163.694 42.3453C163.53 42.2798 163.841 42.4108 163.858 42.4272C163.956 42.4927 164.07 42.5418 164.168 42.6073C164.397 42.7547 164.054 42.4927 164.283 42.6892C165.559 43.803 167.129 42.1488 166.115 40.8549L166.131 40.9204Z" fill="black"/>
<path d="M162.729 48.8638C161.96 47.1932 159.915 46.7674 158.247 47.0294C157.462 47.1441 156.709 47.5208 156.071 47.9957C155.712 48.2578 155.384 48.5362 155.057 48.8474C154.73 49.1586 154.337 49.4698 154.223 49.912C154.108 50.3542 154.534 50.8456 155.008 50.6982C155.384 50.5671 155.613 50.2887 155.875 50.0266C156.104 49.781 156.349 49.5353 156.611 49.3224C157.086 48.9129 157.625 48.5526 158.231 48.3724C158.885 48.1759 159.67 48.1923 160.341 48.3069C161.011 48.4216 161.535 48.7983 161.862 49.3879C162.189 49.9775 162.974 49.4534 162.713 48.8965L162.729 48.8638Z" fill="black"/>
<path d="M162.435 46.9969C161.944 46.4236 161.306 46.0305 160.587 45.8176C159.916 45.6211 159.065 45.5228 158.444 45.8995C158.362 45.9486 158.395 46.096 158.493 46.096C158.82 46.096 159.147 46.0469 159.491 46.0633C159.834 46.0797 160.161 46.1124 160.489 46.1943C161.143 46.3745 161.764 46.7184 162.239 47.1934C162.37 47.3244 162.55 47.1279 162.435 46.9969Z" fill="black"/>
<path d="M161.486 70.4506C160.488 70.2705 159.555 69.9102 158.656 69.468C158.198 69.2387 157.74 68.9766 157.364 68.6327C157.004 68.3051 156.66 67.9775 156.464 67.5189C156.382 67.306 156.071 67.3879 156.104 67.6172C156.3 68.7473 157.249 69.5007 158.198 70.0412C159.146 70.5817 160.292 70.9092 161.404 71.0403C161.731 71.073 161.813 70.5162 161.486 70.467V70.4506Z" fill="black"/>
<path d="M248.312 297.617C234.523 267.612 230.09 253.199 216.513 253.592C205.57 253.92 147.696 250.873 122.489 250.202L121.818 285.415L151.05 307.149C172.92 301.613 193.4 296.863 193.203 299.435C190.995 329.178 244.91 410.709 244.91 410.709C265.21 408.006 289.55 384.978 289.55 384.978C289.55 384.978 262.642 328.817 248.296 297.617H248.312Z" fill="#272727"/>
<path d="M120.821 214.088C120.821 214.088 121.05 245.01 131.192 249.088C141.333 253.15 215.516 262.862 228.814 265.564C242.113 268.267 250.783 283.4 244.91 315.911C239.054 348.422 234.082 414.115 234.082 414.115C234.082 414.115 201.841 417.506 181.328 409.382C181.328 409.382 186.742 340.298 195.674 311.849C197.097 307.329 124.779 310.932 104.807 310.49C84.0652 310.031 49.1088 309.36 47.5385 267.595C46.099 229.418 58.8089 209.797 58.8089 209.797L122.849 209.125L120.821 214.088Z" fill="#20120D"/>
<path d="M225.952 114.885C212.816 122.648 184.158 148.165 173.394 152.292C156.824 139.092 136.54 107.465 108.814 94.5919C88.7596 85.2891 72.4019 102.519 60.379 129.15C48.2089 156.092 49.1085 173.666 47.7509 191.273C46.7858 203.786 46.2787 232.579 50.1227 235.969C50.1227 235.969 91.8348 235.297 124.534 239.359C124.534 239.359 122.865 209.109 129.948 174.338C129.948 174.338 161.486 197.824 174.588 198.381C193.318 199.167 220.897 162.103 237.68 140.549C241.393 135.767 237.844 115.032 225.968 114.868L225.952 114.885Z" fill="#9E0000"/>
<path d="M114.736 160.973C117.222 163.561 119.758 166.1 122.375 168.556C124.992 171.013 127.511 173.437 130.374 175.419C130.603 175.583 130.848 175.239 130.668 175.042C128.215 172.503 125.45 170.243 122.882 167.836C120.314 165.428 117.779 162.922 115.325 160.384C114.949 159.99 114.36 160.58 114.736 160.973Z" fill="black"/>
<path d="M172.592 152.325C170.58 153.848 168.879 155.568 167.407 157.615C165.935 159.663 164.806 161.923 164.07 164.33C163.956 164.707 164.512 164.838 164.643 164.494C166.507 160.039 169.305 155.994 173.001 152.866C173.296 152.62 172.903 152.096 172.592 152.325Z" fill="black"/>
<path d="M174.048 152.719C174.048 156.093 173.95 159.483 174.13 162.857C174.13 163.135 174.555 163.135 174.572 162.857C174.752 159.483 174.653 156.093 174.653 152.719C174.653 152.326 174.048 152.326 174.048 152.719Z" fill="black"/>
<path d="M578.551 296.601L618.136 466.738H611.806L567.149 300.417L578.551 296.601Z" fill="#7A0000"/>
<path d="M507.199 296.601L470.476 455.749H476.806L518.6 300.417L507.199 296.601Z" fill="#7A0000"/>
<path d="M631.206 194.532C631.206 194.532 670.775 195.482 668.256 233.201C666.179 264.205 645.453 313.078 601.762 321.955C577.7 326.394 527.04 323.855 527.04 323.855L494.112 324.494C494.112 324.494 481.762 313.438 487.994 308.115C503.698 294.718 548.109 278.307 548.567 276.948C549.205 275.048 594.794 220.525 594.794 220.525L631.206 194.532Z" fill="#7A0000"/>
<path d="M620.754 194.221C620.754 194.221 663.185 191.371 662.548 222.441C661.91 253.51 639.745 302.317 596.054 311.194C571.991 315.633 488.845 313.094 488.845 313.094L488.42 302.317C488.42 302.317 542.237 268.087 542.858 266.187C543.496 264.287 589.085 209.764 589.085 209.764L620.737 194.237L620.754 194.221Z" fill="#7A0000"/>
<path d="M476.659 338.268C476.888 339.103 480.454 399.572 491.07 417.62L479.194 431.264L452.4 440.272L455.165 428.512L462.755 422.419C462.755 422.419 470.574 407.04 440.361 346.424C436.288 338.251 476.659 338.251 476.659 338.251V338.268Z" fill="#E87F74"/>
<path d="M535.496 252.036C526.025 256.852 448.653 265.86 435.993 269.659C423.332 273.459 415.856 280.715 424.477 311.391C433.114 342.084 435.796 351.895 435.796 351.895C435.796 351.895 463.768 353.68 482.939 344.033C482.939 344.033 470.753 315.42 472.323 311.129C473.91 306.822 541.025 303.874 560.36 301.662C580.447 299.37 544.002 247.713 535.48 252.053L535.496 252.036Z" fill="#460808"/>
<path d="M499.984 438.994C499.984 438.994 502.061 440.452 503.664 445.316C504.384 447.527 502.977 449.853 500.671 450.279C494.602 451.376 482.988 453.161 475.169 452.375C464.177 451.261 463.097 454.914 449.439 456.028C435.796 457.158 422.383 457.682 420.567 449.05L477.623 440.354L499.984 438.994Z" fill="white"/>
<path d="M500.786 441.779C503.338 441.238 500.181 434.032 498.447 430.494C495.846 425.22 493.229 419.946 490.628 414.656C487.209 418.522 483.48 422.96 478.948 425.499C476.691 426.76 474.221 427.644 471.751 428.463C468.447 429.56 465.11 430.56 461.74 431.444C462.656 430.297 464.047 429.429 465.077 428.398C466.124 427.366 467.024 426.056 467.089 424.598C467.155 422.813 465.944 421.24 464.586 420.077C463.392 419.046 462.035 418.21 460.579 417.604C459.074 416.966 457.275 416.589 455.868 417.408C455.197 417.785 454.706 418.391 454.265 418.997C452.269 421.764 451.157 425.106 449.079 427.824C445.595 432.394 439.886 434.638 434.472 436.669C432.362 437.455 430.252 438.257 428.141 439.043C426.62 439.617 425.083 440.19 423.823 441.205C421.517 443.04 419.799 446.201 420.568 449.034C420.568 449.034 444.139 453.899 500.786 441.779Z" fill="#20120D"/>
<path d="M473.092 309.868C469.968 308.476 467.269 306.265 465.322 303.448C465.158 303.219 464.799 303.415 464.929 303.677C466.582 306.855 469.444 309.328 472.797 310.556C473.19 310.703 473.468 310.048 473.076 309.885L473.092 309.868Z" fill="black"/>
<path d="M472.16 310.867C469.019 311.653 465.83 311.244 462.902 309.917C462.607 309.786 462.378 310.163 462.64 310.359C465.404 312.358 469.199 312.751 472.373 311.653C472.864 311.49 472.667 310.752 472.16 310.867Z" fill="black"/>
<path d="M430.464 339.709L434.684 353.975C434.684 353.975 464.815 359.936 485.524 345.54L478.85 330.849C478.85 330.849 475.611 340.987 430.48 339.709H430.464Z" fill="#6A0606"/>
<path d="M462.329 341.363C462.476 342.215 460.35 403.404 469.232 422.534L456.113 435.162L428.583 441.729L432.427 430.166L440.557 424.745C440.557 424.745 449.783 410.005 425.393 346.211C422.105 337.613 462.313 341.363 462.313 341.363H462.329Z" fill="#FF998B"/>
<path d="M533.518 218.379C533.518 218.379 538.344 249.4 528.464 253.363C518.584 257.327 441.228 265.909 428.273 268.546C415.301 271.183 407.188 277.783 412.897 309.459C418.605 341.134 420.372 351.256 420.372 351.256C420.372 351.256 448.049 355.662 468.055 347.735C468.055 347.735 458.6 317.812 460.579 313.635C462.558 309.459 529.674 312.734 549.123 312.309C569.341 311.866 603.398 311.211 604.936 270.511C606.343 233.3 593.943 214.186 593.943 214.186L531.539 213.531L533.518 218.379Z" fill="#4F0505"/>
<path d="M476.087 444.874C476.087 444.874 478.017 446.545 479.162 451.573C479.669 453.849 478.049 456.077 475.727 456.273C469.576 456.814 457.848 457.534 450.143 456.011C439.298 453.866 437.875 457.436 424.184 457.289C410.492 457.141 397.079 456.437 396.081 447.576L453.709 444.153L476.103 444.874H476.087Z" fill="white"/>
<path d="M476.626 447.757C479.227 447.445 476.757 439.911 475.35 436.193C473.256 430.641 471.146 425.089 469.052 419.537C465.274 423.107 461.152 427.235 456.408 429.347C454.036 430.412 451.501 431.067 448.965 431.657C445.579 432.443 442.16 433.147 438.725 433.737C439.739 432.672 441.212 431.935 442.34 430.985C443.469 430.035 444.5 428.823 444.696 427.349C444.925 425.564 443.862 423.861 442.618 422.567C441.522 421.42 440.247 420.454 438.873 419.701C437.433 418.914 435.683 418.374 434.194 419.062C433.491 419.373 432.935 419.93 432.444 420.519C430.187 423.124 428.78 426.383 426.457 428.922C422.564 433.196 416.659 434.916 411.081 436.455C408.905 437.061 406.73 437.651 404.554 438.257C403 438.683 401.397 439.125 400.056 440.026C397.586 441.664 395.574 444.677 396.064 447.609C396.064 447.609 419.08 454.701 476.626 447.773V447.757Z" fill="#20120D"/>
<path d="M461.413 312.44C458.436 310.736 455.966 308.263 454.298 305.249C454.183 305.037 453.79 305.184 453.889 305.43C455.214 308.754 457.798 311.539 461.037 313.078C461.462 313.275 461.838 312.669 461.413 312.44Z" fill="black"/>
<path d="M460.382 313.389C457.193 313.897 454.036 313.144 451.271 311.555C451.026 311.424 450.748 311.752 450.96 311.948C453.545 314.225 457.291 314.978 460.595 314.175C461.119 314.044 460.89 313.307 460.382 313.389Z" fill="black"/>
<path d="M416.185 338.497L419.047 353.238C419.047 353.238 448.491 362.033 470.459 349.503L465.192 334.108C465.192 334.108 461.021 344 416.201 338.514L416.185 338.497Z" fill="#6A0606"/>
<path d="M533.78 224.341C538.949 223.129 544.249 223.096 549.516 223.26C553.54 223.391 557.564 223.571 561.588 223.784C570.192 224.276 578.845 224.98 587.286 226.765C591.572 227.666 595.727 228.943 599.816 230.499C600.078 230.598 600.258 230.172 600.012 230.057C596.594 228.272 592.766 227.224 589.004 226.372C584.816 225.422 580.563 224.767 576.294 224.259C567.919 223.277 559.478 222.933 551.054 222.671C545.214 222.49 539.325 222.458 533.616 223.833C533.273 223.915 533.42 224.439 533.764 224.357L533.78 224.341Z" fill="black"/>
<path d="M427.603 107.4C427.603 107.4 423.153 100.472 410.967 99.1455L412.046 104.78L427.619 107.384L427.603 107.4Z" fill="#FD8A77"/>
<path d="M385.469 91.9511L410.759 92.8574C411.429 92.8814 411.949 93.4409 411.925 94.112L410.878 123.41C410.785 126.013 408.6 128.065 405.984 127.971L387.724 127.317C385.125 127.224 383.075 125.036 383.169 122.417L384.216 93.1189C384.24 92.4478 384.799 91.927 385.469 91.9511Z" fill="#272727"/>
<path d="M411.538 95.9842C411.538 95.9842 419.488 95.7877 421.108 97.1307C422.727 98.4737 419.603 121.665 417.116 123.434C414.728 125.137 406.909 123.827 406.909 123.827" stroke="#272727" stroke-width="1.56" stroke-miterlimit="10"/>
<path d="M473.747 23.576C473.747 23.576 457.766 29.8489 455.95 54.7602C454.134 79.6716 483.104 104.714 484.952 119.274C486.931 134.784 481.991 157.55 481.991 157.55C481.991 157.55 551.364 151.441 569.832 131.804C588.284 112.166 583.834 84.7816 563.894 72.3996C543.954 60.0177 539.505 61.8356 533.731 40.7241C527.957 19.6125 490.89 1.12146 473.747 23.5597V23.576Z" fill="black"/>
<path d="M473.976 29.6196C473.976 29.6196 466.337 36.7769 468.317 50.4692C470.132 63.0149 460.792 69.2222 460.792 70.5489C460.792 71.8755 467.597 71.8755 468.366 74.1849C469.134 76.4942 471.883 92.8233 479.358 93.3802C486.833 93.937 495.176 90.5795 495.176 90.5795C495.176 90.5795 507.035 102.781 509.685 115.982L517.095 101.635C517.095 101.635 507.379 92.2337 507.869 69.2878C507.869 69.2878 519.124 63.3261 513.807 53.45C509.031 44.5894 496.059 49.1098 497.172 59.3298C497.172 59.3298 480.307 56.2998 473.993 29.636L473.976 29.6196Z" fill="#FF998B"/>
<path d="M478.802 160.744C478.802 160.744 470.23 171.078 469.347 171.078C468.464 171.078 435.503 129.052 433.54 127.512C431.561 125.973 425.296 138.076 425.296 138.076C425.296 138.076 455.721 204.949 465.618 205.62C475.498 206.275 499.462 182.74 499.462 182.74L478.802 160.744Z" fill="#FF998B"/>
<path d="M436.844 133.016C436.844 133.016 430.955 110.25 427.356 106.09C423.496 101.602 398.142 101.34 396.784 104.239C395.426 107.138 405.601 108.055 405.601 108.055C405.601 108.055 402.084 109.316 402.002 110.889C401.888 113.231 406.844 113.804 406.844 113.804C406.844 113.804 404.129 115.016 404.21 116.441C404.39 119.684 414.09 117.604 414.09 117.604C414.09 117.604 414.041 137.241 425.459 138.552L436.828 132.999L436.844 133.016Z" fill="#FF998B"/>
<path d="M503.092 60.8856C502.569 59.2478 502.765 57.4462 503.714 56.0049C504.123 55.3825 504.679 54.8257 505.301 54.4162C505.971 53.9576 506.724 53.6956 507.427 53.3352C507.771 53.1551 507.574 52.6637 507.231 52.6473C506.315 52.5655 505.432 52.9913 504.679 53.499C503.927 54.0068 503.272 54.711 502.798 55.4972C501.784 57.1678 501.604 59.2969 502.275 61.1313C502.454 61.6226 503.256 61.4261 503.076 60.902L503.092 60.8856Z" fill="black"/>
<path d="M405.749 108.203C408.333 107.924 410.918 107.826 413.502 108.039C416.087 108.252 418.72 108.989 421.337 109.611C421.468 109.644 421.566 109.447 421.436 109.382C419.064 108.366 416.332 107.957 413.78 107.728C411.097 107.482 408.366 107.531 405.716 108.006C405.601 108.023 405.634 108.219 405.749 108.203Z" fill="black"/>
<path d="M407.171 113.558C409.576 113.149 412.013 112.854 414.45 112.837C415.448 112.837 416.446 112.87 417.411 113.083C417.902 113.198 418.392 113.345 418.85 113.574C419.243 113.771 419.57 114.066 419.979 114.213C420.061 114.246 420.143 114.131 420.093 114.066C419.668 113.345 418.54 113.017 417.787 112.821C416.789 112.575 415.759 112.51 414.745 112.51C412.176 112.51 409.608 112.821 407.122 113.427C407.024 113.46 407.073 113.591 407.171 113.574V113.558Z" fill="black"/>
<path d="M414.091 117.898C414.402 117.833 414.729 117.8 415.056 117.784C415.367 117.784 415.678 117.784 415.972 117.866C416.495 118.046 416.708 118.586 417.133 118.897C417.215 118.963 417.33 118.848 417.297 118.766C417.231 118.488 417.052 118.21 416.855 117.997C416.643 117.767 416.397 117.571 416.103 117.456C415.448 117.21 414.647 117.391 413.993 117.538C413.764 117.587 413.862 117.931 414.091 117.898Z" fill="black"/>
<path d="M470.966 51.5337C472.258 50.2726 474.401 50.2399 476.086 50.4528C477.1 50.5838 478.114 50.8295 479.079 51.157C480.045 51.4846 480.993 51.9923 481.991 52.1561C482.351 52.2216 482.58 51.8285 482.335 51.5501C481.631 50.7312 480.421 50.2726 479.407 49.9287C478.278 49.552 477.116 49.2899 475.922 49.1589C473.91 48.946 471.637 49.1753 470.23 50.7967C469.805 51.2881 470.475 51.9923 470.966 51.5337Z" fill="black"/>
<path d="M472.962 57.5282C473.273 56.9713 473.763 56.611 474.385 56.48C475.056 56.349 475.841 56.3326 476.511 56.5291C477.084 56.6929 477.591 57.0368 478.049 57.4135C478.294 57.6265 478.54 57.8558 478.769 58.1014C479.047 58.3799 479.276 58.6747 479.652 58.8057C480.11 58.9531 480.519 58.4781 480.405 58.0523C480.29 57.6265 479.947 57.348 479.636 57.0532C479.325 56.7584 478.998 56.48 478.654 56.2179C478.016 55.743 477.28 55.3663 476.495 55.2352C474.876 54.9896 472.864 55.399 472.128 57.0205C471.882 57.5773 472.651 58.0523 472.962 57.5118V57.5282Z" fill="black"/>
<path d="M480.078 58.7239C480.307 58.6093 480.552 58.511 480.781 58.3964C480.896 58.3472 481.01 58.2653 481.125 58.1998C481.255 58.1179 481.354 58.0197 481.452 57.905C481.615 57.7412 481.501 57.43 481.255 57.4464C481.108 57.4464 480.961 57.4464 480.814 57.4956C480.65 57.5447 480.503 57.5938 480.356 57.6593C480.11 57.774 479.865 57.8723 479.62 57.9869C479.521 58.0197 479.44 58.1507 479.423 58.249C479.391 58.3472 479.423 58.4946 479.472 58.5765C479.521 58.6584 479.62 58.7567 479.734 58.7731C479.849 58.8058 479.963 58.7731 480.061 58.7239H480.078Z" fill="black"/>
<path d="M474.843 160.302C474.843 160.302 486.489 154.143 492.427 137.634C498.365 121.141 506.937 96.4919 528.463 96.0496C549.99 95.6074 563.403 113.214 570.437 141.155C577.471 169.097 588.889 187.358 595.039 197.922C601.19 208.486 601.631 219.263 597.902 222.555C597.902 222.555 566.266 214.202 534.401 218.15C534.401 218.15 518.583 221.442 507.82 186.687L502.111 191.748C502.111 191.748 482.564 182.953 474.859 160.285L474.843 160.302Z" fill="#5E757A"/>
<path d="M472.602 55.4154C473.06 54.9405 473.665 54.6129 474.303 54.4327C474.614 54.3509 474.925 54.3181 475.252 54.3017C475.579 54.2853 475.923 54.3345 476.25 54.3345C476.348 54.3345 476.381 54.2035 476.299 54.1543C475.694 53.794 474.859 53.8923 474.205 54.0724C473.502 54.2853 472.896 54.662 472.406 55.2189C472.291 55.3499 472.471 55.5301 472.602 55.4154Z" fill="black"/>
<path d="M540.176 216.25C538.687 215.186 537.378 213.924 536.25 212.483C535.121 211.042 534.254 209.371 533.551 207.652C533.485 207.471 533.224 207.537 533.273 207.733C534.009 211.484 536.577 214.923 539.799 216.905C540.225 217.167 540.568 216.529 540.176 216.25Z" fill="black"/>
<path d="M547.144 215.611C546.277 214.891 545.475 214.088 544.756 213.22C544.396 212.778 544.052 212.319 543.741 211.844C543.463 211.435 542.907 210.78 543.071 210.256C543.283 209.617 543.889 210.157 544.183 210.436C544.494 210.73 544.756 211.058 544.985 211.418C545.459 212.139 545.835 212.925 546.31 213.662C546.555 214.055 546.833 214.448 547.16 214.792C547.487 215.136 547.88 215.529 548.338 215.562C548.534 215.562 548.681 215.316 548.567 215.169C548.42 214.972 548.24 214.858 548.043 214.71C547.847 214.563 547.684 214.399 547.52 214.219C547.193 213.875 546.931 213.466 546.686 213.073C546.162 212.237 545.721 211.353 545.099 210.583C544.576 209.944 543.431 208.749 542.678 209.748C542.318 210.223 542.433 210.812 542.678 211.32C542.973 211.893 543.365 212.45 543.758 212.958C544.625 214.104 545.623 215.136 546.735 216.053C547.013 216.283 547.422 215.89 547.144 215.644V215.611Z" fill="black"/>
<path d="M578.535 184.443C582.69 194.418 588.333 210.386 576.441 217.314C576.228 217.429 576.408 217.708 576.621 217.626C581.757 215.447 583.933 209.158 583.998 203.983C584.08 197.235 581.61 190.372 578.878 184.296C578.797 184.099 578.437 184.247 578.518 184.443H578.535Z" fill="black"/>
<path d="M588.954 197.169C590.704 201.346 592.373 205.932 591.555 210.518C591.195 212.532 590.377 214.514 588.97 216.037C587.416 217.74 585.257 218.461 583.311 219.558C583.114 219.673 583.245 220.001 583.474 219.935C587.793 218.723 591.048 215.365 591.947 210.96C592.929 206.128 591.179 201.411 589.216 197.071C589.15 196.924 588.905 197.038 588.954 197.186V197.169Z" fill="black"/>
<path d="M569.358 217.855C570.486 216.135 572.024 214.776 573.005 212.941C573.872 211.32 574.363 209.469 573.971 207.635C573.807 206.865 573.005 204.85 574.429 204.736C575.737 204.621 575.999 206.243 575.917 207.193C575.835 208.29 575.59 209.404 575.296 210.468C575.001 211.533 574.559 212.565 574.314 213.646C574.265 213.891 574.592 214.039 574.723 213.809C575.704 212.188 576.081 210.026 576.359 208.175C576.555 206.799 576.686 204.85 575.05 204.31C573.676 203.851 572.891 205.162 573.055 206.39C573.185 207.389 573.529 208.29 573.463 209.322C573.414 210.272 573.136 211.222 572.76 212.09C572.335 213.089 571.746 214.039 571.108 214.907C570.421 215.84 569.619 216.676 569.014 217.658C568.867 217.888 569.227 218.1 569.374 217.871L569.358 217.855Z" fill="black"/>
<path d="M473.42 78.6397C474.5 78.5087 475.596 78.2139 476.544 77.6734C477.493 77.1329 478.376 76.4123 478.573 75.315C478.622 75.0857 478.311 75.0038 478.229 75.2167C478.049 75.6589 477.722 75.9701 477.379 76.2813C477.002 76.6252 476.561 76.8873 476.103 77.1166C475.219 77.5424 474.303 77.9191 473.338 78.0829C473.027 78.132 473.093 78.6889 473.42 78.6397Z" fill="black"/>
<path d="M502.127 191.961C508.834 186.687 514.985 180.316 519.352 172.946C519.467 172.749 519.189 172.602 519.058 172.782C513.987 179.727 508.409 186.13 501.637 191.486C501.293 191.748 501.768 192.223 502.111 191.961H502.127Z" fill="black"/>
<path d="M469.331 170.735C468.284 171.095 467.597 172.094 466.91 172.93C466.141 173.879 465.421 174.862 464.767 175.878C463.426 177.925 462.248 180.136 461.528 182.494C461.463 182.707 461.79 182.855 461.888 182.642C462.886 180.595 463.867 178.564 465.11 176.664C465.732 175.697 466.419 174.764 467.139 173.863C467.777 173.077 468.546 171.849 469.543 171.521C470.034 171.357 469.821 170.587 469.331 170.751V170.735Z" fill="black"/>
<path d="M333.887 95.2962C335.163 96.066 336.423 96.9013 337.813 97.4909C337.927 97.5401 338.058 97.5401 338.14 97.4254C338.206 97.3272 338.222 97.1634 338.124 97.0815C336.946 96.1152 335.605 95.3781 334.312 94.5756C333.854 94.2972 333.445 95.0178 333.904 95.2799L333.887 95.2962Z" fill="black"/>
<path d="M333.789 89.662C335.131 91.3981 336.456 93.1341 337.944 94.7556C338.075 94.903 338.32 94.7065 338.222 94.5427C336.995 92.7083 335.638 91.005 334.28 89.2853C334.067 89.0068 333.593 89.3835 333.806 89.662H333.789Z" fill="black"/>
<path d="M337.568 86.7959C338.419 88.4828 339.22 90.2025 340.234 91.7912C340.398 92.0369 340.725 91.824 340.627 91.5619C339.891 89.8258 338.942 88.1716 338.042 86.5174C337.879 86.2226 337.437 86.4847 337.584 86.7795L337.568 86.7959Z" fill="black"/>
</svg>
