<svg width="461" height="253" viewBox="0 0 461 253" fill="none" xmlns="http://www.w3.org/2000/svg">
<path d="M237.297 164.578C240.37 162.083 243.434 162.158 246.473 163.975C249.488 165.767 250.585 169.275 249.471 172.791C248.5 175.873 246.247 177.832 243.635 179.414C239.532 181.901 235.003 183.149 230.272 183.735C229.803 183.793 229.075 183.576 228.815 183.224C225.533 178.862 222.795 174.223 221.958 168.706C221.347 164.645 222.259 161.103 225.801 158.667C230.088 155.703 236.317 158.44 237.171 163.581C237.213 163.833 237.238 164.084 237.297 164.578Z" fill="#840000"/>
<path d="M210.237 130.852C211.107 128.29 212.908 127.226 215.327 127.168C217.722 127.109 219.631 128.742 220.267 131.178C220.82 133.313 220.234 135.264 219.296 137.131C217.822 140.062 215.654 142.431 213.134 144.483C212.883 144.684 212.38 144.817 212.104 144.717C208.621 143.386 205.347 141.694 202.86 138.806C201.027 136.679 200.281 134.301 201.437 131.605C202.843 128.34 207.44 127.653 209.801 130.324C209.919 130.45 210.019 130.592 210.237 130.852Z" fill="#840000"/>
<path d="M239.926 116.45C240.922 115.236 242.128 115.027 243.459 115.487C244.774 115.948 245.477 117.229 245.327 118.686C245.193 119.967 244.473 120.904 243.577 121.725C242.178 123.014 240.504 123.86 238.712 124.463C238.536 124.521 238.235 124.496 238.101 124.379C236.476 122.939 235.045 121.348 234.283 119.263C233.722 117.731 233.797 116.274 234.986 115.052C236.426 113.561 239.064 114.131 239.809 116.073C239.842 116.165 239.876 116.266 239.934 116.45H239.926Z" fill="#840000"/>
<path d="M216.876 99.3108C217.186 98.2977 217.88 97.8539 218.827 97.8037C219.764 97.7534 220.535 98.3646 220.811 99.3191C221.054 100.148 220.844 100.918 220.501 101.664C219.957 102.827 219.136 103.79 218.174 104.628C218.081 104.711 217.88 104.77 217.772 104.728C216.39 104.251 215.084 103.631 214.071 102.526C213.326 101.714 212.999 100.793 213.418 99.721C213.928 98.4232 215.72 98.0967 216.683 99.1098C216.733 99.1601 216.775 99.2103 216.859 99.3108H216.876Z" fill="#840000"/>
<path d="M404.166 16.3678L359.421 244.385C359.053 246.277 358.199 248.077 356.817 249.543C355.176 251.284 352.53 252.959 348.536 252.657C340.549 252.063 273.734 238.465 273.734 238.465C273.734 238.465 267.119 237.168 265.386 228.753C264.909 226.442 264.976 224.098 265.419 221.837L306.312 13.3954C306.312 13.3954 307.401 1.94142 322.355 2.44379L391.422 3.80856C397.953 3.93415 403.789 8.36338 404.291 13.9229C404.316 14.216 404.333 14.5174 404.333 14.8272C404.333 15.3463 404.266 15.8571 404.166 16.3678Z" fill="black"/>
<path d="M396.955 16.2176L352.436 243.079C352.068 244.963 351.222 246.755 349.841 248.212C348.2 249.945 345.554 251.603 341.56 251.301C333.572 250.699 266.757 237.101 266.757 237.101C266.757 237.101 260.143 235.803 258.401 227.43C257.924 225.128 257.982 222.8 258.426 220.548L299.118 13.1699C299.118 13.1699 300.198 1.77448 315.152 2.28522L384.203 3.7086C390.734 3.84257 396.569 8.24667 397.08 13.7895C397.105 14.0825 397.122 14.384 397.122 14.6854C397.122 15.2045 397.055 15.7152 396.955 16.2176Z" fill="#191919"/>
<path d="M261.944 225.982C262.957 227.606 264.849 228.745 266.934 229.155L340.841 243.657C341.435 243.774 342.038 243.824 342.641 243.816C342.775 243.816 342.917 243.808 343.068 243.808C343.947 243.766 345.153 243.665 346.434 243.397C348.954 242.862 350.796 241.112 351.223 238.926L358.424 202.228L367.676 155.106L371.586 135.17L373.712 124.353L381.323 85.578L387.703 53.0412L394.804 16.8873C394.938 16.1924 394.929 15.4723 394.762 14.7606C394.762 14.7355 394.762 14.7104 394.745 14.6853C394.05 11.8385 391.011 9.71181 387.62 9.58622L342.591 7.9284L309.359 6.70597C309.359 6.70597 306.68 6.37943 304.293 8.54799C302.962 9.75368 301.715 11.738 301.078 14.9951C300.593 17.4734 297.369 33.9177 292.931 56.5159C291.709 62.7453 290.394 69.4436 289.013 76.4516C286.099 91.3134 282.918 107.548 279.778 123.582C276.504 140.244 273.272 156.688 270.434 171.173C268.148 182.82 266.113 193.194 264.506 201.383C262.186 213.18 260.763 220.447 260.763 220.447C260.763 220.447 260.328 223.378 261.944 225.982Z" fill="#C3D2F1"/>
<g opacity="0.3">
<path d="M304.292 8.54799L381.322 85.578L387.702 53.0412L342.589 7.9284L309.358 6.70597C309.358 6.70597 306.678 6.37943 304.292 8.54799Z" fill="white"/>
<path d="M289.011 76.4513L367.674 155.106L371.584 135.17L292.93 56.5156C291.707 62.745 290.393 69.4433 289.011 76.4513Z" fill="white"/>
<path d="M270.433 171.174L343.067 243.808C343.946 243.767 345.152 243.666 346.433 243.398C348.953 242.862 350.795 241.112 351.222 238.927L358.423 202.229L279.777 123.583C276.503 140.245 273.271 156.689 270.433 171.174Z" fill="white"/>
</g>
<g style="mix-blend-mode:multiply" opacity="0.4">
<path d="M261.944 225.983C262.957 227.607 264.849 228.746 266.934 229.156L340.841 243.658C341.436 243.775 342.038 243.825 342.641 243.817C342.775 243.817 342.918 243.809 343.068 243.809C343.947 243.767 345.153 243.666 346.434 243.398C348.954 242.862 350.796 241.113 351.223 238.927L358.424 202.229L367.676 155.107L371.586 135.171L373.713 124.354C349.323 169.517 308.179 226.217 264.506 201.384C262.187 213.181 260.763 220.448 260.763 220.448C260.763 220.448 260.328 223.379 261.944 225.983Z" fill="#C3D2F1"/>
</g>
<path d="M190.241 187.342H277.637L269.674 196.677V214.185C269.674 215.726 268.427 216.973 266.886 216.973H190.25C188.709 216.973 187.461 215.726 187.461 214.185V190.13C187.461 188.589 188.709 187.342 190.25 187.342H190.241Z" fill="#840000"/>
<path d="M194.712 193.403H264.977V195.949H194.712V193.403Z" fill="white"/>
<path d="M194.712 198.988H264.977V201.534H194.712V198.988Z" fill="white"/>
<path d="M238.954 204.565H264.977V207.111H238.954V204.565Z" fill="white"/>
<path d="M458.213 51.7012H370.817L378.78 61.0369V78.5445C378.78 80.0851 380.027 81.3326 381.568 81.3326H458.213C459.753 81.3326 461.001 80.0851 461.001 78.5445V54.4893C461.001 52.9487 459.753 51.7012 458.213 51.7012Z" fill="#840000"/>
<path d="M453.75 60.3096L383.485 60.3096V57.7642L453.75 57.7642V60.3096Z" fill="white"/>
<path d="M453.75 65.8857L383.485 65.8857V63.3404L453.75 63.3404V65.8857Z" fill="white"/>
<path d="M409.508 71.4697H383.485V68.9244H409.508V71.4697Z" fill="white"/>
<path d="M284.37 246.831C289.787 245.885 294.744 243.097 294.861 243.03C293.278 231.199 286.681 180.928 284.403 150.61H308.19L307.085 244.687H306.935C307.613 247.216 307.504 249.904 307.328 251.101C307.311 251.243 307.269 251.377 307.228 251.503C307.211 251.503 307.202 251.503 307.186 251.503H285.492C285.299 251.034 285.115 250.565 284.931 250.096C284.947 249.929 284.964 249.761 284.956 249.586C284.922 248.581 284.705 247.702 284.361 246.839L284.37 246.831Z" fill="#CC6F49"/>
<path d="M286.111 246.295C286.111 246.295 280.97 247.484 279.697 250.055C278.424 252.617 290.13 252.617 293.11 252.608C296.091 252.6 306.591 252.977 307.453 252.282C308.307 251.587 308.592 247.384 307.453 244.378C307.453 244.378 304.799 247.618 300.001 248.749C295.212 249.879 284.553 249.494 286.111 246.295Z" fill="#EFC863"/>
<path d="M293.68 172.095L297.289 157.493L298.988 150.61H323.663C321.403 157.35 318.539 165.556 315.424 174.297C333.937 191.562 350.892 207.855 352.675 209.555C352.7 209.58 352.742 209.605 352.784 209.63C355.455 210.459 357.841 212.259 358.787 213.139C358.888 213.239 358.98 213.34 359.063 213.457C359.063 213.465 359.047 213.474 359.038 213.49L346.647 231.299C346.153 231.19 345.659 231.073 345.173 230.948C345.047 230.839 344.913 230.73 344.771 230.638C343.925 230.085 343.08 229.767 342.175 229.558C343.85 225.949 344.595 221.997 344.888 220.029L344.771 220.189L308.659 193.144L298.503 185.542C294.35 182.435 292.458 177.135 293.705 172.103L293.68 172.095Z" fill="#CC6F49"/>
<path d="M342.703 227.807C342.703 227.807 340.743 232.705 342.125 235.217C343.506 237.729 350.18 228.117 351.879 225.663C353.579 223.218 359.884 214.804 359.8 213.707C359.716 212.61 356.426 209.973 353.311 209.186C353.311 209.186 354.45 213.213 352.641 217.801C350.833 222.381 344.427 230.913 342.694 227.807H342.703Z" fill="#EFC863"/>
<path d="M307.71 192.75C304.462 190.129 299.765 186.571 296.759 183.774C295.905 182.987 295.042 182.15 294.465 181.237C293.351 179.27 293.426 176.741 293.535 174.505C293.585 173.325 293.736 172.153 293.904 170.98C293.024 174.371 292.17 178.29 293.786 181.631C295.88 184.637 298.902 186.688 301.774 188.84C303.708 190.213 305.676 191.544 307.719 192.741L307.71 192.75Z" fill="#101010"/>
<path d="M316.713 170.562C316.713 170.562 297.003 170.981 293.796 171.4C293.796 171.4 311.413 173.635 316.713 170.562Z" fill="#101010"/>
<path d="M325.427 107.623C325.427 107.623 331.983 117.67 329.614 133.302C327.244 148.935 317.331 170.562 317.331 170.562C317.331 170.562 290.68 172.512 285.656 170.562C285.656 170.562 282.165 137.213 283.287 128.555C284.4 119.906 288.871 107.623 288.871 107.623H325.436H325.427Z" fill="#D92728"/>
<path d="M323.895 110.83C325.729 118.214 326.884 126.16 324.925 133.612C322.681 140.771 320.303 148.658 318.202 155.808C316.938 160.146 315.137 166.375 313.99 170.695C315.439 166.501 317.44 160.296 318.821 155.993C321.074 148.893 323.527 140.997 325.662 133.813C327.605 126.219 326.223 118.148 323.904 110.821L323.895 110.83Z" fill="#101010"/>
<path d="M306.146 144.723C304.044 140.737 302.135 136.852 300.251 132.758C301.021 137.187 303.106 141.415 306.146 144.723Z" fill="#101010"/>
<path d="M301.456 143.76C301.297 141.792 300.594 140.009 299.363 138.46C299.522 140.436 300.225 142.211 301.456 143.76Z" fill="#101010"/>
<path d="M249.983 54.7735C250.46 54.8321 251.415 55.2089 253.215 56.7495C253.215 56.7495 250.31 52.6384 250.46 51.7509C250.611 50.855 255.049 55.5522 255.049 55.5522C255.049 55.5522 252.277 50.5871 252.721 49.8922C253.173 49.1972 256.991 54.3465 256.991 54.3465C256.991 54.3465 254.429 49.0632 254.889 48.9293C256.037 48.5776 259.838 55.8955 260.558 55.4182C261.203 54.9912 261.035 52.965 260.767 51.9435C260.709 51.7258 260.843 51.5249 261.069 51.4997C261.504 51.4495 262.191 51.5667 262.542 52.6217C262.994 53.9781 263.823 56.6658 263.614 60.0735C263.614 60.0735 263.622 60.0819 263.631 60.0903C266.586 63.4645 273.829 71.695 282.017 80.8967C282.846 78.0081 283.6 75.3455 284.236 72.9928C286.154 76.8778 287.862 80.8632 289.36 84.9324C290.851 88.9514 292.107 93.0206 293.212 97.1484C289.829 102.842 281.406 103.755 277.044 98.1531C277.002 98.1029 276.969 98.0526 276.927 98.0024C268.964 87.7792 261.395 75.4879 257.251 61.9574C257.251 61.9574 257.251 61.9574 257.251 61.949C254.764 60.174 250.887 57.2016 249.732 55.167C249.623 54.9745 249.765 54.7651 249.991 54.7903L249.983 54.7735Z" fill="#CC6F49"/>
<path d="M258.464 66.2106L265.899 62.1832L264.953 60.9775L257.627 64.9546L258.464 66.2106Z" fill="#101010"/>
<path d="M294.735 56.0621C294.735 56.0621 286.991 58.4735 285.634 62.2412C284.278 66.009 281.766 80.3433 281.766 80.3433C281.766 80.3433 287.208 100.857 286.262 102.741C286.262 102.741 292.433 100.229 295.263 90.4995C298.093 80.7703 300.178 62.3501 298.712 59.0009C297.247 55.6518 294.735 56.0705 294.735 56.0705V56.0621Z" fill="black"/>
<path d="M251.18 45.3718C252.888 42.5585 255.316 41.7547 258.213 42.3241C261.077 42.885 262.927 45.3299 263.036 48.4027C263.137 51.0904 261.923 53.259 260.315 55.235C257.795 58.3329 254.588 60.5852 251.046 62.3686C250.695 62.5444 250.067 62.5779 249.757 62.3686C245.956 59.8651 242.514 57.0016 240.312 52.8989C238.688 49.8847 238.42 46.8538 240.513 43.9484C243.05 40.4234 248.702 40.8253 250.812 44.6182C250.912 44.8024 251.004 44.995 251.189 45.3634L251.18 45.3718Z" fill="#840000"/>
<path d="M289.603 57.9899C293.044 55.9218 295.414 55.1682 297.088 53.1253C297.272 52.4555 297.708 50.806 298.034 48.9472C298.319 47.2894 298.528 45.4641 298.386 44.0324C298.319 43.3207 298.168 42.7095 297.9 42.2573L313.959 33.2314C313.951 33.2817 313.943 33.3319 313.926 33.3905C313.675 34.8809 311.732 46.5777 313.725 52.782C314.931 53.3346 316.421 53.7281 318.263 53.7951C320.247 53.8621 322.19 54.5738 323.638 55.9302C325.656 57.8308 327.398 61.3893 326.259 68.0457C326.075 69.1006 325.866 70.1472 325.648 71.1855C323.814 71.378 321.972 71.5874 320.122 71.7213C313.323 72.2153 305.737 76.7032 298.93 77.0632C294.015 77.3227 289.879 73.4461 284.964 73.6387C284.269 66.706 285.458 60.4934 289.62 57.9899H289.603Z" fill="#CC6F49"/>
<path d="M314.202 52.607L299.031 76.4696L296.837 53.1261C296.837 53.1261 289.41 58.1498 287.108 59.7239C284.805 61.298 284.177 72.7018 283.549 74.6945C282.921 76.6873 286.999 84.1139 288.046 86.8351C289.092 89.5563 290.239 103.162 289.193 104.519C288.146 105.875 286.999 107.968 286.89 109.333C286.781 110.698 315.249 114.775 326.762 109.433C326.762 109.433 321.009 100.851 320.901 97.3932C320.792 93.9353 325.296 79.4921 326.234 73.3214C327.172 67.1506 327.699 59.6067 325.715 57.2037C323.731 54.8007 318.179 52.5986 314.202 52.5986V52.607Z" fill="#191919"/>
<path d="M289.536 100.089C290.147 89.6816 284.077 79.2323 287.945 69.0174C288.523 67.3763 289.243 65.7604 289.812 64.0858C290.365 62.4113 290.775 60.6446 290.666 58.8779C290.582 60.6362 290.097 62.3359 289.427 63.9435C288.782 65.5678 288.003 67.1419 287.342 68.7914C283.097 79.1151 289.192 89.6648 289.536 100.089Z" fill="#101010"/>
<path d="M289.818 29.388C290.003 24.6574 290.58 19.7844 292.205 15.598C294.306 10.2059 304.194 8.11266 311.085 14.0992C314.284 16.8874 314.954 21.9362 314.769 26.5413C314.937 26.4575 315.088 26.3989 315.188 26.3738C316.595 26.0221 318.001 27.0855 318.42 28.4C318.755 29.4466 318.529 30.6356 317.926 31.5649C317.424 32.3352 316.62 33.0469 315.749 33.3818C315.531 33.4656 314.56 33.6247 313.882 33.5661C313.22 36.597 311.68 39.3935 309.285 41.3779C306.279 43.8814 302.419 44.8861 298.585 44.0907C295.604 43.4711 291.183 41.5621 290.095 38.4642C289.802 37.6604 289.777 36.7896 289.768 35.9272C289.768 35.7346 289.768 35.5337 289.768 35.3411C289.751 33.4237 289.768 31.4226 289.827 29.3964L289.818 29.388Z" fill="#CC6F49"/>
<path d="M294.338 28.2372C293.848 28.2372 293.451 27.4275 293.451 26.4286C293.451 25.4298 293.848 24.6201 294.338 24.6201C294.828 24.6201 295.226 25.4298 295.226 26.4286C295.226 27.4275 294.828 28.2372 294.338 28.2372Z" fill="#101010"/>
<path d="M292.53 24.042C292.68 24.3351 292.873 24.5947 293.124 24.8123C293.375 25.0384 293.693 25.2059 294.053 25.2896H294.07C294.246 25.3315 294.422 25.2226 294.464 25.0468C294.506 24.871 294.397 24.6951 294.221 24.6533C294.196 24.6533 294.162 24.6449 294.137 24.6533C293.643 24.67 293.091 24.3686 292.722 23.9332C292.68 23.883 292.613 23.8746 292.571 23.9165C292.53 23.9499 292.521 24.0002 292.546 24.042H292.53Z" fill="#101010"/>
<path d="M301.111 26.4267C301.111 27.4231 301.504 28.2352 301.998 28.2352C302.492 28.2352 302.886 27.4231 302.886 26.4267C302.886 25.4303 302.492 24.6182 301.998 24.6182C301.504 24.6182 301.111 25.4303 301.111 26.4267Z" fill="#101010"/>
<path d="M303.624 23.9312C303.247 24.3666 302.703 24.668 302.209 24.6512C302.025 24.6512 301.874 24.7852 301.866 24.9694C301.866 25.1536 302 25.3043 302.184 25.3127C302.209 25.3127 302.243 25.3127 302.268 25.3127H302.284C302.645 25.229 302.963 25.0531 303.214 24.8271C303.465 24.601 303.666 24.3498 303.808 24.0568C303.833 24.0065 303.808 23.9396 303.766 23.9144C303.725 23.8893 303.666 23.9061 303.641 23.9396L303.624 23.9312Z" fill="#101010"/>
<path d="M294.849 31.9019C295.158 32.4964 295.619 33.0155 296.18 33.4174C296.741 33.8193 297.436 34.0789 298.164 34.0705C298.884 34.0537 299.588 33.8109 300.132 33.3923C300.425 33.1997 300.643 32.9402 300.894 32.7141C301.103 32.4462 301.304 32.1782 301.488 31.9019C301.212 32.1029 300.969 32.3122 300.718 32.5215C300.442 32.689 300.19 32.8983 299.906 33.0406C299.353 33.3588 298.759 33.5263 298.156 33.5346C297.553 33.5514 296.95 33.3588 296.398 33.0574C295.845 32.7476 295.326 32.3541 294.84 31.8936L294.849 31.9019Z" fill="#101010"/>
<path d="M297.235 35.1172C297.486 35.3433 297.829 35.4186 298.164 35.4354C298.499 35.427 298.843 35.3349 299.094 35.1172C298.767 35.1674 298.466 35.2344 298.164 35.2177C297.855 35.226 297.553 35.1758 297.235 35.1172Z" fill="#101010"/>
<path d="M300.376 20.1386C300.786 19.7702 301.255 19.6529 301.749 19.6278C302.235 19.6195 302.737 19.6697 303.206 19.8372C303.683 19.9795 304.127 20.2474 304.495 20.574C304.88 20.8838 305.148 21.294 305.374 21.6959C305.492 21.8969 305.416 22.1564 305.207 22.2736C305.039 22.3657 304.847 22.3323 304.713 22.215L304.679 22.1815C304.395 21.9136 304.118 21.6708 303.809 21.4866C303.516 21.2857 303.181 21.1768 302.846 21.0931C302.511 21.0177 302.159 20.9759 301.799 20.9926C301.448 21.001 301.071 21.0261 300.686 20.9256L300.577 20.9005C300.342 20.8419 300.192 20.5991 300.25 20.3646C300.275 20.2725 300.317 20.1972 300.384 20.1386H300.376Z" fill="#101010"/>
<path d="M295.955 20.1386C295.544 19.7702 295.075 19.6529 294.581 19.6278C294.096 19.6195 293.593 19.6697 293.124 19.8372C292.647 19.9795 292.203 20.2474 291.835 20.574C291.45 20.8838 291.182 21.294 290.956 21.6959C290.839 21.8969 290.914 22.1564 291.123 22.2736C291.291 22.3657 291.483 22.3323 291.617 22.215L291.651 22.1815C291.936 21.9136 292.212 21.6708 292.522 21.4866C292.815 21.2857 293.15 21.1768 293.485 21.0931C293.819 21.0177 294.171 20.9759 294.531 20.9926C294.883 21.001 295.26 21.0261 295.645 20.9256L295.754 20.9005C295.988 20.8419 296.139 20.5991 296.08 20.3646C296.055 20.2725 296.013 20.1972 295.946 20.1386H295.955Z" fill="#101010"/>
<path d="M297.964 23.6543C297.805 24.3325 297.696 25.0107 297.562 25.6889C297.428 26.3587 297.311 27.0285 297.118 27.6649C297.077 27.824 297.026 27.983 296.968 28.1338C296.926 28.2593 296.809 28.4938 296.817 28.7199C296.792 29.172 297.085 29.6157 297.453 29.7916C297.83 30.0009 298.266 29.9674 298.609 29.8502C298.961 29.7246 299.262 29.532 299.521 29.306C298.885 29.5404 298.148 29.733 297.696 29.3897C297.47 29.2222 297.353 28.9878 297.386 28.745C297.395 28.6194 297.437 28.5357 297.52 28.3431C297.587 28.1756 297.646 27.9998 297.696 27.8323C297.889 27.1458 297.989 26.4424 298.031 25.7475C298.073 25.0526 298.056 24.3576 297.964 23.6627V23.6543Z" fill="#101010"/>
<path d="M317.297 29.3822C317.306 28.9635 317.189 28.503 316.829 28.1848C316.435 27.8667 315.882 27.8918 315.464 28.0509C315.02 28.21 314.652 28.5114 314.359 28.8547C314.066 29.198 313.848 29.5747 313.672 30.0101C313.613 30.1608 313.68 30.3367 313.839 30.4036C313.957 30.4539 314.082 30.4204 314.166 30.3367L314.183 30.3199C314.476 30.0185 314.844 29.7003 315.196 29.5998C315.372 29.558 315.497 29.558 315.623 29.6501C315.748 29.7422 315.841 29.9264 315.924 30.119C316.075 30.5125 316.175 30.9814 315.832 31.1656C315.481 31.3665 314.953 31.3163 314.493 31.2577C314.928 31.4502 315.414 31.6093 315.966 31.4586C316.242 31.3665 316.469 31.0483 316.485 30.7637C316.51 30.479 316.469 30.2194 316.402 29.9599C316.326 29.7087 316.217 29.4408 315.975 29.2231C315.723 28.997 315.33 28.9468 315.045 29.0305C314.476 29.2063 314.082 29.5329 313.722 29.918L314.241 30.2194C314.518 29.5245 314.978 28.8044 315.631 28.4779C315.958 28.3188 316.351 28.2435 316.661 28.4193C316.988 28.5867 317.18 28.9886 317.297 29.3822Z" fill="#101010"/>
<path d="M287.249 50.4442C287.458 45.3535 286.219 40.3047 286.236 35.2224C286.252 29.4703 290.263 24.2205 290.581 18.4851C290.841 13.9889 294.382 10.0537 298.678 8.70566C302.973 7.36601 307.787 8.39587 311.58 10.8156C313.565 12.0883 315.214 13.7545 316.629 15.63C318.655 18.3177 319.61 21.6249 319.618 24.9992C319.643 29.5289 321.067 34.0753 322.456 38.4543C324.24 44.0808 325.998 50.0423 324.675 55.8028L324.332 55.9451C321.887 54.1534 317.793 52.73 314.578 52.6211C310.894 61.153 309.135 67.9936 310.165 77.4298C304.731 79.6067 298.736 79.4142 293.076 77.8736C291.435 77.4298 290.397 75.8222 290.673 74.1477C291.577 68.6886 294.24 63.5644 297.221 58.8505C300.721 53.3161 304.748 48.0496 307.327 42.0295C309.403 37.19 310.458 31.6556 309.37 26.5733C307.921 26.1546 306.481 25.7025 305.108 25.108C305.954 26.4477 306.59 27.3771 306.59 27.3771C299.783 25.1666 298.251 20.8128 297.999 18.0916C297.941 17.8907 297.874 17.6981 297.832 17.4888C295.303 18.9875 291.938 22.3031 290.255 23.827C290.029 25.6606 289.886 27.5278 289.819 29.3698C289.752 31.396 289.744 33.3971 289.761 35.3145C289.761 35.5071 289.761 35.708 289.761 35.9006C289.769 36.763 289.794 37.6338 290.087 38.4376C291.15 41.4685 295.404 43.3608 298.376 44.0139C298.519 45.454 298.318 47.2709 298.033 48.9287C297.706 50.7959 297.271 52.4453 297.087 53.1151C297.011 53.224 296.936 53.3161 296.852 53.3998L296.827 53.1151C296.827 53.1151 292.984 55.7107 289.978 57.7537C289.978 57.7537 289.962 57.762 289.953 57.7704C289.844 57.8374 289.727 57.9044 289.61 57.9714C289.325 58.1472 289.049 58.3314 288.789 58.5575C288.103 59.018 287.517 59.4199 287.098 59.7045C286.73 59.9557 286.403 60.4581 286.118 61.1279C286.855 57.6197 287.106 54.0026 287.249 50.4274V50.4442ZM313.33 32.451C313.514 32.8696 313.698 33.2883 313.883 33.7153C313.883 33.6651 313.899 33.6148 313.908 33.573C314.586 33.6232 315.532 33.4641 315.75 33.3804C316.612 33.0538 317.424 32.3338 317.918 31.5635C318.521 30.6425 318.747 29.4535 318.412 28.4069C317.994 27.084 316.587 26.029 315.18 26.3807C315.105 26.4058 314.98 26.4477 314.846 26.5147C314.469 26.8663 314.033 27.1343 313.531 27.2598C312.895 29.0014 312.577 30.7346 313.33 32.451Z" fill="#101010"/>
<path d="M302.731 43.3791C301.635 40.524 300.019 35.9022 300.169 33.5662C300.186 33.3401 300.421 33.248 300.588 33.3903C300.956 33.7001 301.542 34.5374 302.204 36.8148C302.204 36.8148 302.036 31.7828 302.656 31.1213C303.276 30.4599 304.398 36.8232 304.398 36.8232C304.398 36.8232 304.808 31.1548 305.57 30.8115C306.332 30.4766 306.692 36.8818 306.692 36.8818C306.692 36.8818 307.454 31.0627 307.914 31.1967C309.061 31.5316 308.216 39.7369 309.086 39.7286C309.857 39.7286 310.828 37.9368 311.171 36.9404C311.238 36.7311 311.464 36.6306 311.665 36.7395C312.059 36.9404 312.569 37.4093 312.276 38.481C311.908 39.8709 311.129 42.5837 309.07 45.3133C309.488 48.3358 310.326 54.3392 311.389 61.6989C312.285 59.7899 313.189 58.2995 314.06 57.1273C317.694 52.2376 324.752 53.9624 325.69 60.0578C326.058 62.4524 325.782 65.5671 324.208 69.561C322.408 74.1158 319.561 81.2913 315.5 89.5134C315.341 89.8399 315.173 90.1665 315.006 90.493C313.624 93.2393 310.811 94.9809 307.738 94.9809C303.56 94.9809 300.061 91.8159 299.642 87.6546C299.6 87.2444 299.558 86.8341 299.525 86.4154C298.285 72.9603 298.545 57.6967 302.74 43.3624L302.731 43.3791Z" fill="#CC6F49" stroke="black" stroke-width="0.1" stroke-miterlimit="10"/>
<path d="M302.48 43.6055C301.032 47.03 300.044 50.7559 300.278 54.4901C301.199 50.8647 302.129 47.3397 302.48 43.6055Z" fill="#101010"/>
<path d="M309.103 93.2557C311.079 95.1312 313.365 96.3872 316.011 97.0151C317.334 90.7941 320.993 85.3601 323.295 79.4322C325.665 73.3284 326.569 66.6636 325.941 60.1496C325.656 57.1688 323.454 54.6654 320.499 54.1463C320.482 54.1463 320.465 54.1463 320.44 54.1379C318.941 53.8783 317.342 53.8281 315.952 54.4393C313.6 55.4775 312.436 58.0899 311.481 60.4845C308.752 67.3335 310.87 75.4132 308.291 82.371C307.638 84.1293 307.245 85.9881 307.261 87.8636C307.278 89.9652 307.563 91.7988 309.095 93.2557H309.103Z" fill="black"/>
<path d="M310.435 94.2607L310.678 94.3277C312.194 95.7008 313.835 96.6805 315.777 97.3252C316.338 87.889 325.046 80.3367 325.272 70.8838C325.925 75.6647 323.547 80.9061 321.378 85.2181C319.21 89.5301 316.891 94.0514 317.1 98.8741C314.128 98.7737 311.482 97.0405 310.427 94.2523L310.435 94.2607Z" fill="black"/>
<path d="M40.3497 14.108L85.0941 242.125C85.4625 244.017 86.3166 245.818 87.6981 247.283C89.3391 249.024 91.985 250.699 95.9788 250.398C103.966 249.803 170.782 236.206 170.782 236.206C170.782 236.206 177.396 234.908 179.129 226.493C179.607 224.182 179.54 221.838 179.096 219.577L138.203 11.1357C138.203 11.1357 137.114 -0.318346 122.161 0.184024L53.0932 1.54879C46.5624 1.67439 40.7265 6.10361 40.2242 11.6632C40.1991 11.9562 40.1823 12.2576 40.1823 12.5674C40.1823 13.0865 40.2493 13.5973 40.3497 14.108Z" fill="#191919"/>
<path d="M47.5583 13.9496L92.0766 240.811C92.445 242.695 93.2906 244.487 94.6722 245.944C96.3132 247.677 98.959 249.335 102.953 249.033C110.941 248.431 177.756 234.833 177.756 234.833C177.756 234.833 184.37 233.535 186.112 225.162C186.589 222.86 186.53 220.532 186.087 218.28L145.395 10.9019C145.395 10.9019 144.315 -0.501915 129.361 0.0172001L60.3101 1.44058C53.7793 1.57455 47.9434 5.97865 47.4327 11.5215C47.4076 11.8145 47.3908 12.1159 47.3908 12.4174C47.3908 12.9365 47.4578 13.4472 47.5583 13.9496Z" fill="black"/>
<path d="M182.571 223.723C181.558 225.347 179.665 226.486 177.581 226.896L103.674 241.398C103.079 241.515 102.476 241.566 101.873 241.557C101.739 241.557 101.597 241.549 101.446 241.549C100.567 241.507 99.3616 241.407 98.0806 241.139C95.5603 240.603 93.7183 238.853 93.2913 236.668L86.0907 199.969L76.8387 152.847L72.9286 132.911L70.8019 122.094L63.191 83.3192L56.8109 50.7824L49.7107 14.6285C49.5768 13.9336 49.5851 13.2135 49.7526 12.5018C49.7526 12.4767 49.7526 12.4516 49.7693 12.4265C50.4643 9.57972 53.5036 7.45302 56.8946 7.32743L101.924 5.66961L135.155 4.44718C135.155 4.44718 137.835 4.12064 140.221 6.2892C141.552 7.49489 142.8 9.47925 143.436 12.7363C143.922 15.2146 147.145 31.6589 151.583 54.2571C152.805 60.4865 154.12 67.1848 155.501 74.1928C158.415 89.0546 161.597 105.289 164.737 121.323C168.01 137.985 171.242 154.43 174.081 168.915C176.366 180.561 178.401 190.935 180.009 199.124C182.328 210.921 183.751 218.189 183.751 218.189C183.751 218.189 184.187 221.119 182.571 223.723Z" fill="#C3D2F1"/>
<g opacity="0.3">
<path d="M140.221 6.2892L63.1907 83.3192L56.8106 50.7824L101.923 5.66961L135.155 4.44718C135.155 4.44718 137.834 4.12064 140.221 6.2892Z" fill="white"/>
<path d="M155.501 74.1925L76.8383 152.847L72.9282 132.911L151.583 54.2568C152.805 60.4862 154.119 67.1845 155.501 74.1925Z" fill="white"/>
<path d="M174.081 168.915L101.447 241.55C100.568 241.508 99.3619 241.407 98.0809 241.139C95.5607 240.603 93.7187 238.854 93.2916 236.668L86.091 199.97L164.737 121.324C168.011 137.986 171.243 154.43 174.081 168.915Z" fill="white"/>
</g>
<g style="mix-blend-mode:multiply" opacity="0.4">
<path d="M182.571 223.723C181.558 225.347 179.665 226.486 177.581 226.896L103.674 241.398C103.079 241.515 102.476 241.566 101.873 241.557C101.739 241.557 101.597 241.549 101.446 241.549C100.567 241.507 99.3616 241.406 98.0806 241.139C95.5603 240.603 93.7183 238.853 93.2913 236.667L86.0907 199.969L76.8387 152.847L72.9286 132.911L70.8019 122.094C95.1919 167.257 136.336 223.958 180.009 199.124C182.328 210.921 183.751 218.189 183.751 218.189C183.751 218.189 184.187 221.119 182.571 223.723Z" fill="#C3D2F1"/>
</g>
<path d="M233.076 29.3564H145.68L153.643 38.6921V56.1997C153.643 57.7403 154.89 58.9879 156.431 58.9879H233.067C234.608 58.9879 235.855 57.7403 235.855 56.1997V32.1446C235.855 30.604 234.608 29.3564 233.067 29.3564H233.076Z" fill="#D92728"/>
<path d="M228.605 37.9639L158.34 37.9639V35.4185L228.605 35.4185V37.9639Z" fill="white"/>
<path d="M228.605 43.54L158.34 43.54V40.9947L228.605 40.9947V43.54Z" fill="white"/>
<path d="M184.37 49.124H158.348V46.5787H184.37V49.124Z" fill="white"/>
<path d="M2.78023 204.625H90.1758L82.2132 213.961V231.468C82.2132 233.009 80.9657 234.256 79.4251 234.256H2.7886C1.24801 234.256 0.000442505 233.009 0.000442505 231.468V207.413C0.000442505 205.873 1.24801 204.625 2.7886 204.625H2.78023Z" fill="#D92728"/>
<path d="M7.25089 216.271H77.5156V218.817H7.25089V216.271Z" fill="white"/>
<path d="M51.4929 221.856H77.5156V224.402H51.4929V221.856Z" fill="white"/>
<path d="M121.016 235.53L120.982 241.55L114.552 245.033L107.602 241.55C107.602 241.55 107.351 239.34 106.933 235.53H121.016Z" fill="#FA9778"/>
<path d="M107.159 248.793C106.632 246.7 105.769 244.473 106.506 242.438C106.866 241.442 108.156 241.107 109.185 241.333C110.215 241.559 111.111 242.187 112.099 242.564C113.573 243.125 115.189 243.125 116.646 242.53C115.833 241.174 116.11 239.265 117.282 238.201C118.454 237.138 120.388 237.046 121.653 237.992C122.649 238.729 123.16 239.934 123.679 241.056C124.198 242.178 125.161 243.108 126.048 243.97C126.852 244.749 127.982 245.101 129.096 245.218C130.21 245.335 131.332 245.243 132.454 245.276C133.576 245.31 134.723 245.486 135.677 246.08C136.632 246.666 137.335 247.755 137.218 248.868L107.151 248.793H107.159Z" fill="white"/>
<path d="M137.678 249.062V249.656C137.678 249.908 137.477 250.117 137.226 250.125C133.81 250.217 112.141 250.753 107.193 250.167C106.967 250.142 106.791 249.958 106.782 249.723C106.766 249.447 106.757 249.062 106.766 248.744C106.766 248.484 106.983 248.283 107.243 248.283C110.676 248.317 133.475 248.56 137.218 248.593C137.477 248.593 137.687 248.802 137.687 249.062H137.678Z" fill="#EFC863"/>
<path d="M159.739 235.529L159.706 241.549L153.275 245.032L146.326 241.549C146.326 241.549 146.075 239.339 145.656 235.529H159.739Z" fill="#FA9778"/>
<path d="M145.883 248.792C145.355 246.699 144.493 244.472 145.23 242.437C145.59 241.441 146.879 241.106 147.909 241.332C148.939 241.558 149.835 242.186 150.823 242.563C152.296 243.124 153.912 243.124 155.369 242.529C154.557 241.173 154.833 239.264 156.006 238.2C157.178 237.137 159.112 237.045 160.376 237.991C161.373 238.728 161.883 239.934 162.402 241.055C162.922 242.177 163.884 243.107 164.772 243.969C165.576 244.748 166.706 245.1 167.82 245.217C168.933 245.334 170.055 245.242 171.177 245.275C172.299 245.309 173.446 245.485 174.401 246.079C175.355 246.665 176.059 247.754 175.941 248.867L145.875 248.792H145.883Z" fill="white"/>
<path d="M176.402 249.061V249.655C176.402 249.907 176.201 250.116 175.95 250.124C172.534 250.216 150.865 250.752 145.916 250.166C145.69 250.141 145.514 249.957 145.506 249.722C145.489 249.446 145.481 249.061 145.489 248.743C145.489 248.483 145.707 248.282 145.967 248.282C149.399 248.316 172.199 248.559 175.941 248.592C176.201 248.592 176.41 248.801 176.41 249.061H176.402Z" fill="#EFC863"/>
<path d="M140.348 102.754C140.348 102.754 165.467 152.781 168.397 170.155C171.328 187.528 160.552 235.622 160.552 235.622L145.012 235.781C145.012 235.781 142.45 188.575 144.334 176.016L122.146 133.105L121.987 236.191L106.128 236.242C106.128 236.242 95.3527 132.678 95.1433 126.817C94.934 120.956 97.6552 104.21 101.214 100.861L140.357 102.745L140.348 102.754Z" fill="#191919"/>
<path d="M142.859 109.517C130.652 109.777 117.816 110.463 105.684 109.182C104.872 109.057 104.051 108.931 103.231 108.822C109.661 110.53 116.393 110.673 123.007 110.748C129.639 110.681 136.278 110.363 142.859 109.526V109.517Z" fill="#101010"/>
<path d="M123.744 104.218C124.07 110.958 124.531 118.025 125.05 124.765L125.075 124.598L121.826 132.535L122.63 132.661C122.312 128.374 121.91 122.379 121.558 118.151C121.207 113.897 120.704 107.852 120.26 103.657C120.378 107.844 120.696 113.939 120.914 118.192C121.123 122.404 121.542 128.449 121.793 132.711L121.91 134.578L122.596 132.845L125.761 124.874L125.795 124.79C125.209 118.033 124.514 110.958 123.744 104.218Z" fill="#101010"/>
<path d="M146.904 234.693C147.573 215.21 147.959 193.842 148.285 174.275C144.35 166.681 140.164 159.129 136.078 151.585C132 144.1 127.897 136.631 123.736 129.188C127.621 136.773 131.573 144.326 135.542 151.869C139.376 159.104 143.864 167.769 147.473 174.258C147.172 193.842 146.862 215.176 146.904 234.685V234.693Z" fill="#101010"/>
<path d="M205.008 87.5142C199.473 90.5954 193.638 92.9984 187.718 94.8823C187.458 91.0224 187.107 87.1625 186.621 83.3278C186.613 83.244 186.596 83.1603 186.588 83.0766C192.8 82.6496 197.866 82.2895 200.704 82.0802C200.704 82.0802 200.704 82.0802 200.713 82.0802C203.099 79.0576 205.879 77.5589 207.26 76.8556C208.257 76.3448 208.817 76.7467 209.094 77.0984C209.236 77.2742 209.186 77.517 208.993 77.6259C208.081 78.1701 206.523 79.5098 206.682 80.2801C206.858 81.1425 214.729 78.5804 215.29 79.6437C215.516 80.0707 209.965 82.0551 209.965 82.0551C209.965 82.0551 216.32 81.0671 216.144 81.8877C215.968 82.7082 210.492 84.3158 210.492 84.3158C210.492 84.3158 216.956 84.0897 216.428 84.8433C215.901 85.5968 210.936 86.4843 210.936 86.4843C213.297 86.6602 214.243 87.0621 214.62 87.3635C214.796 87.5058 214.754 87.757 214.536 87.8156C212.418 88.4185 208.014 87.9077 204.983 87.4388L205.016 87.5226L205.008 87.5142Z" fill="#FA9778"/>
<path d="M193.563 82.6592C193.563 82.6592 195.815 88.8886 195.865 91.8693C195.865 91.8693 198.009 85.4892 193.563 82.6592Z" fill="#101010"/>
<path d="M193.353 81.8029C193.353 81.8029 196.702 91.5823 195.764 92.8718C194.826 94.1612 168.896 102.408 162.164 100.876C155.432 99.3356 131.712 74.3846 129.242 70.173C126.772 65.9615 137.204 52.6738 137.204 52.6738C137.204 52.6738 153.18 64.0441 166.451 82.1043L193.361 81.8029H193.353Z" fill="#68000A"/>
<path d="M215.14 75.5908C217.802 73.6483 220.348 73.8493 222.801 75.4903C225.229 77.1147 225.983 80.0786 224.911 82.9589C223.965 85.4791 222.006 87.003 219.762 88.2087C216.237 90.0925 212.419 90.9382 208.458 91.2145C208.065 91.2396 207.47 91.0303 207.269 90.7205C204.732 86.9444 202.656 82.9673 202.204 78.3455C201.869 74.9377 202.79 72.0407 205.838 70.1652C209.53 67.8878 214.596 70.4415 215.073 74.7535C215.098 74.9629 215.106 75.1722 215.131 75.5908H215.14Z" fill="#840000"/>
<path d="M112.741 49.6595C112.674 49.8856 112.598 50.1116 112.515 50.321L121.507 55.4451L129.47 50.321C129.47 50.321 129.436 50.2121 129.386 50.0112C129.336 49.8018 129.252 49.5088 129.16 49.1488C128.951 48.3199 128.666 47.1142 128.44 45.8164C128.155 44.1586 127.946 42.3417 128.097 40.9099C128.155 40.1982 128.306 39.587 128.582 39.1349L112.523 30.1006C112.531 30.1592 112.54 30.2094 112.548 30.2597C112.766 31.5072 114.147 39.8884 113.444 46.235C113.302 47.4575 113.092 48.6045 112.766 49.6093C112.766 49.626 112.766 49.6428 112.749 49.6595H112.741Z" fill="#FA9778"/>
<path d="M97.4939 85.1662C97.6529 87.1506 97.812 89.0512 97.9795 90.8179C98.0381 91.5045 98.1051 92.1743 98.1637 92.8106C98.3814 95.0294 98.5823 96.9635 98.7414 98.4539C98.9591 100.488 99.1098 101.703 99.1098 101.703C99.1098 101.703 126.531 105.68 141.183 103.796C141.183 103.796 141.3 101.577 141.3 98.4539C141.3 96.771 141.267 94.8117 141.15 92.8106C141.116 92.1492 141.074 91.4793 141.024 90.8179C140.865 88.8503 140.622 86.8994 140.271 85.1662C140.229 84.9569 140.187 84.7476 140.137 84.5383C138.462 77.212 141.393 56.28 141.393 56.28C141.393 56.28 138.462 52.0936 130.717 50.0004C130.717 50.0004 120.461 53.7681 111.878 49.1631C111.878 49.1631 102.878 49.3724 98.4818 54.8147C95.9533 57.9462 96.5394 72.9587 97.4939 85.1662Z" fill="#D92728"/>
<path d="M97.4931 85.166C97.6522 87.1504 97.8113 89.051 97.9787 90.8177H141.023C140.864 88.8501 140.622 86.8992 140.27 85.166H97.4931Z" fill="white"/>
<path d="M98.163 92.8105C98.3807 95.0293 98.5816 96.9635 98.7407 98.4538H141.3C141.3 96.7709 141.266 94.8117 141.149 92.8105H98.163Z" fill="white"/>
<path d="M138.604 66.1104C138.403 71.7955 138.938 77.5058 140.194 83.0569L138.604 66.1104Z" fill="#D92728"/>
<path d="M134.484 52.5117C134.091 54.1193 133.873 55.7771 133.856 57.4349L134.484 52.5117Z" fill="#D92728"/>
<path d="M129.152 49.1484C129.244 49.5085 129.328 49.8015 129.378 50.0025C129.47 50.1281 129.562 50.2369 129.663 50.3374C130.266 50.1615 130.634 50.036 130.701 50.0108C130.701 50.0108 130.149 49.6424 129.135 49.1484H129.152Z" fill="#D92728"/>
<path d="M102.417 113.244C103.589 116.585 104.351 118.762 104.502 119.189C104.502 119.189 104.502 119.189 104.502 119.206C107.7 120.704 109.693 122.806 110.681 123.886C111.435 124.707 111.192 125.36 110.932 125.72C110.798 125.904 110.555 125.912 110.396 125.762C109.634 125.025 107.926 123.878 107.231 124.229C106.444 124.623 110.991 131.547 110.103 132.368C109.752 132.694 106.377 127.863 106.377 127.863C106.377 127.863 109.006 133.732 108.161 133.783C107.324 133.833 104.334 128.96 104.334 128.96C104.334 128.96 106.252 135.139 105.381 134.829C104.519 134.519 102.35 129.965 102.35 129.965C102.802 132.292 102.66 133.305 102.467 133.749C102.375 133.959 102.124 133.975 102.007 133.783C100.575 131.413 99.8884 125.075 99.6624 122.437L99.5786 122.488C98.0548 120.93 96.6063 119.314 95.2164 117.657C97.5608 116.35 100.089 114.91 102.409 113.244H102.417Z" fill="#FA9778" stroke="black" stroke-width="0.1" stroke-miterlimit="10"/>
<path d="M111.041 50.0038C111.041 50.0038 104.343 47.9106 96.1792 55.6555C89.6066 61.8932 80.4634 77.3411 77.1394 83.1351C76.3105 84.5919 76.1347 86.3251 76.6789 87.9076C78.6214 93.5927 84.2479 107.793 95.3419 119.708L104.761 114.684L95.1326 88.3095L115.227 59.4232C115.227 59.4232 115.646 50.0038 111.041 50.0038Z" fill="#68000A"/>
<path d="M108.161 50.7571C100.55 50.6567 94.3795 56.4842 90.7206 62.6717C90.2014 63.5759 89.6739 64.4802 89.2218 65.418C89.8414 64.5807 90.4275 63.7266 91.0638 62.8977C95.2251 57.1456 100.835 51.7284 108.161 50.7571Z" fill="#101010"/>
<path d="M95.1758 88.3925C95.0586 86.81 93.7692 85.4118 92.2034 85.1689C93.1663 86.4416 93.9868 87.3208 95.1758 88.3925Z" fill="#101010"/>
<path d="M95.3508 86.4253C95.8196 85.4624 95.7108 84.533 95.0326 83.7041C94.5637 84.667 94.6726 85.5964 95.3508 86.4253Z" fill="#101010"/>
<path d="M105.507 72.5098C102.409 76.3361 99.7798 80.4807 97.6531 84.9183C100.759 81.0919 103.38 76.9474 105.507 72.5098Z" fill="#101010"/>
<path d="M108.663 60.754C110.145 58.1333 109.559 54.3906 107.349 52.3477C108.529 55.1023 108.948 57.7649 108.663 60.754Z" fill="#101010"/>
<path d="M108.058 25.261C108.477 23.9464 109.884 22.8831 111.29 23.2348C111.391 23.2599 111.541 23.3185 111.7 23.4022C111.508 18.7972 112.186 13.7483 115.385 10.9602C122.275 4.96525 132.164 7.06683 134.257 12.4589C136.652 18.6213 136.777 26.2573 136.693 32.7798C136.685 33.6338 136.66 34.5046 136.375 35.3084C135.278 38.4063 130.866 40.3153 127.877 40.9349C124.042 41.7303 120.182 40.7256 117.176 38.2221C114.79 36.2378 113.241 33.4412 112.588 30.4103C111.901 30.4689 110.939 30.3098 110.721 30.2261C109.858 29.8995 109.046 29.1795 108.544 28.4092C107.941 27.4881 107.715 26.2992 108.05 25.2442L108.058 25.261Z" fill="#FA9778"/>
<path d="M131.686 23.2851C131.686 24.2815 132.079 25.0936 132.573 25.0936C133.067 25.0936 133.461 24.2815 133.461 23.2851C133.461 22.2887 133.067 21.4766 132.573 21.4766C132.079 21.4766 131.686 22.2887 131.686 23.2851Z" fill="#101010"/>
<path d="M125.791 23.2851C125.791 24.2815 125.397 25.0936 124.903 25.0936C124.41 25.0936 124.016 24.2815 124.016 23.2851C124.016 22.2887 124.41 21.4766 124.903 21.4766C125.397 21.4766 125.791 22.2887 125.791 23.2851Z" fill="#101010"/>
<path d="M132.063 28.7705C131.753 29.365 131.293 29.8841 130.732 30.286C130.171 30.6879 129.476 30.9474 128.747 30.9474C128.027 30.9307 127.324 30.6879 126.78 30.2692C126.487 30.0767 126.269 29.8171 126.018 29.591C125.808 29.3231 125.607 29.0552 125.423 28.7789C125.7 28.9798 125.942 29.1891 126.194 29.3985C126.47 29.5659 126.721 29.7752 127.006 29.9176C127.558 30.2358 128.153 30.4032 128.756 30.4116C129.359 30.4283 129.961 30.2358 130.514 29.9343C131.067 29.6245 131.586 29.231 132.071 28.7705H132.063Z" fill="#101010"/>
<path d="M129.668 31.9775C129.417 32.2036 129.074 32.279 128.739 32.2957C128.404 32.2873 128.06 32.1952 127.809 31.9775C128.136 32.0278 128.437 32.0948 128.739 32.078C129.048 32.0864 129.35 32.0361 129.668 31.9775Z" fill="#101010"/>
<path d="M126.528 17.0067C126.117 16.6383 125.649 16.5211 125.155 16.496C124.669 16.4876 124.167 16.5379 123.698 16.7053C123.22 16.8477 122.777 17.1156 122.408 17.4421C122.023 17.7519 121.755 18.1622 121.529 18.5641C121.412 18.765 121.487 19.0246 121.697 19.1418C121.864 19.2339 122.057 19.2004 122.191 19.0832L122.224 19.0497C122.509 18.7818 122.785 18.539 123.095 18.3548C123.388 18.1538 123.723 18.045 124.058 17.9612C124.393 17.8859 124.744 17.844 125.104 17.8608C125.456 17.8691 125.833 17.8943 126.218 17.7938L126.327 17.7687C126.561 17.7101 126.712 17.4672 126.653 17.2328C126.628 17.1407 126.586 17.0653 126.519 17.0067H126.528Z" fill="#101010"/>
<path d="M130.949 17.0067C131.359 16.6383 131.828 16.5211 132.322 16.496C132.808 16.4876 133.31 16.5379 133.779 16.7053C134.256 16.8477 134.7 17.1156 135.069 17.4421C135.454 17.7519 135.722 18.1622 135.948 18.5641C136.065 18.765 135.989 19.0246 135.78 19.1418C135.613 19.2339 135.42 19.2004 135.286 19.0832L135.253 19.0497C134.968 18.7818 134.692 18.539 134.382 18.3548C134.089 18.1538 133.754 18.045 133.419 17.9612C133.084 17.8859 132.732 17.844 132.372 17.8608C132.021 17.8691 131.644 17.8943 131.259 17.7938L131.15 17.7687C130.916 17.7101 130.765 17.4672 130.823 17.2328C130.849 17.1407 130.89 17.0653 130.957 17.0067H130.949Z" fill="#101010"/>
<path d="M130.522 20.3564C130.681 21.0346 130.79 21.7128 130.924 22.391C131.058 23.0609 131.175 23.7307 131.368 24.367C131.41 24.5261 131.46 24.6852 131.519 24.8359C131.561 24.9615 131.678 25.1959 131.669 25.422C131.695 25.8741 131.401 26.3179 131.033 26.4937C130.656 26.703 130.221 26.6696 129.878 26.5523C129.526 26.4267 129.225 26.2342 128.965 26.0081C129.601 26.2425 130.338 26.4351 130.79 26.0918C131.016 25.9244 131.134 25.6899 131.1 25.4471C131.092 25.3215 131.05 25.2378 130.966 25.0452C130.899 24.8778 130.84 24.7019 130.79 24.5345C130.598 23.8479 130.497 23.1446 130.455 22.4497C130.413 21.7547 130.43 21.0598 130.522 20.3648V20.3564Z" fill="#101010"/>
<path d="M109.088 26.0745C109.08 25.6559 109.197 25.1954 109.557 24.8772C109.95 24.5591 110.503 24.5842 110.922 24.7433C111.365 24.9023 111.734 25.2038 112.027 25.5471C112.32 25.8903 112.538 26.2671 112.713 26.7025C112.772 26.8532 112.705 27.029 112.546 27.096C112.429 27.1463 112.303 27.1128 112.219 27.029L112.203 27.0123C111.91 26.7109 111.541 26.3927 111.19 26.2922C111.014 26.2504 110.888 26.2504 110.763 26.3425C110.637 26.4346 110.545 26.6188 110.461 26.8113C110.31 27.2049 110.21 27.6738 110.553 27.858C110.905 28.0589 111.432 28.0087 111.893 27.9501C111.457 28.1426 110.972 28.3017 110.419 28.151C110.143 28.0589 109.917 27.7407 109.9 27.4561C109.875 27.1714 109.917 26.9118 109.984 26.6523C110.059 26.4011 110.168 26.1332 110.411 25.9155C110.662 25.6894 111.056 25.6392 111.34 25.7229C111.91 25.8987 112.303 26.2253 112.663 26.6104L112.144 26.9118C111.868 26.2169 111.407 25.4968 110.754 25.1703C110.428 25.0112 110.034 24.9358 109.724 25.1117C109.398 25.2791 109.205 25.681 109.088 26.0745Z" fill="#101010"/>
<path d="M104.535 22.3242C104.753 20.0803 105.255 17.828 106.419 15.9023C107.583 13.9765 109.542 12.3103 111.752 11.9168C111.56 9.43007 113.511 7.17778 115.805 6.19816C118.09 5.21854 120.669 5.22691 123.164 5.25203C125.459 5.27715 127.753 5.29389 130.038 5.31901C131.437 5.33575 132.902 5.36087 134.116 6.03907C136.427 7.32011 137.021 10.3929 136.795 13.0304C136.636 14.8222 136.025 16.7898 135.95 18.5732C135.95 18.5732 128.071 22.3075 120.251 13.9346C120.251 13.9346 123.809 21.7465 115.855 24.61C115.855 24.61 116.642 25.464 118.995 30.1779C121.347 34.8918 126.212 35.2016 126.212 35.2016C126.212 35.2016 126.84 33.5271 128.406 33.0582C129.971 32.5893 131.386 34.9421 131.386 34.9421C136.36 34.5234 136.67 27.2474 136.67 27.2474C138.026 33.9457 136.929 40.0662 128.071 40.9119C119.212 41.7575 115.06 32.4888 114.323 29.9686C113.017 25.4891 111.677 23.4043 111.677 23.4043C111.677 23.4043 111.677 23.4127 111.677 23.4211C111.509 23.3373 111.375 23.2787 111.275 23.2536C109.868 22.9019 108.462 23.9569 108.043 25.2798C107.708 26.3264 107.934 27.5154 108.529 28.4364C109.031 29.2067 109.843 29.9267 110.706 30.2533C110.923 30.337 111.869 30.4961 112.548 30.4459C112.765 31.7102 113.502 36.3487 113.611 41.138C113.594 41.1463 113.569 41.1631 113.552 41.1714C113.209 39.5136 112.079 38.1321 110.856 36.9683C109.634 35.7961 108.261 34.7746 107.189 33.4684C104.711 30.4291 104.15 26.226 104.518 22.3326L104.535 22.3242Z" fill="black"/>
</svg>
