<svg width="359" height="659" viewBox="0 0 359 659" fill="none" xmlns="http://www.w3.org/2000/svg">
<path fill-rule="evenodd" clip-rule="evenodd" d="M85.935 11.6116C85.935 11.6116 89.6624 3.64816 100.845 0.462801C112.027 -2.72256 137.043 11.3523 143.163 22.7974C149.283 34.224 149.783 69.8741 119.741 73.3002C89.6995 76.7263 127.048 77.8931 127.048 77.8931C127.048 77.8931 123.209 95.3755 131.462 106.006C139.714 116.636 102.718 117.432 102.718 117.432C102.718 117.432 77.2748 120.914 80.3531 92.7087C83.45 64.5034 85.9535 11.6301 85.9535 11.6301L85.935 11.6116Z" fill="black"/>
<path fill-rule="evenodd" clip-rule="evenodd" d="M176.32 37.4463C176.32 37.4463 170.609 57.5956 176.079 63.0218C181.55 68.448 187.095 40.5391 176.32 37.4463Z" fill="#0B0B0B"/>
<path fill-rule="evenodd" clip-rule="evenodd" d="M159.278 102.228C159.278 102.228 183.979 97.1348 196.923 97.1348C217.155 97.1348 246.827 121.988 256.488 139.156L163.488 128.988L159.278 102.228Z" fill="#DB9988"/>
<path fill-rule="evenodd" clip-rule="evenodd" d="M281.838 202.733C281.838 202.733 286.993 218.364 284.712 230.364C282.45 242.365 265.148 208.585 265.222 205.604C265.296 202.604 281.838 202.733 281.838 202.733Z" fill="#E7B3A2"/>
<path fill-rule="evenodd" clip-rule="evenodd" d="M257.712 126.841C257.712 126.841 266.892 130.526 269.989 142.471C273.086 154.416 286.363 206.827 286.363 206.827C286.363 206.827 286.808 208.049 286.03 208.494C285.251 208.938 275.292 210.92 272.084 210.809C268.876 210.697 246.4 171.992 246.4 171.992C246.4 171.992 241.968 145.453 257.694 126.841H257.712Z" fill="#4F0505"/>
<path fill-rule="evenodd" clip-rule="evenodd" d="M272.399 302.869L266.539 306.203L265.222 327.63C265.222 327.63 265 330.13 266.15 330.278C267.299 330.426 268.004 330.537 268.004 330.537C268.004 330.537 268.913 330.408 269.024 328.926C269.135 327.445 272.51 308.092 272.51 308.092L272.381 302.869H272.399Z" fill="#AF4B3D"/>
<path fill-rule="evenodd" clip-rule="evenodd" d="M276.089 291.831C276.089 291.831 268.616 294.776 267.819 296.109C267.021 297.443 264.666 303.591 266.001 306.129C267.336 308.666 271.954 311.11 272.881 312.684C273.808 314.259 276.423 327.185 276.423 327.185C276.423 327.185 276.72 331.704 281.801 332.408C286.882 333.093 312.214 336.538 312.214 336.538C312.214 336.538 313.716 336.445 313.939 334.463C314.068 333.371 313.401 331.667 312.77 330.352C311.509 327.704 309.377 327.278 307.782 327.056L292.464 320.685L286.27 308.944L282.58 291.794C282.58 291.794 278.241 289.609 276.071 291.868L276.089 291.831Z" fill="#CB6459"/>
<path fill-rule="evenodd" clip-rule="evenodd" d="M286.103 255.848C286.103 255.848 292.89 296.739 294.819 309.462C296.747 322.185 301.532 322.166 303.702 322.444C305.871 322.74 307.466 324.407 307.8 327.037C307.8 327.037 294.281 325.203 290.98 324.759C287.698 324.314 285.713 322.055 285.102 318.796C284.49 315.518 281.43 299.109 281.133 296.257C280.836 293.405 277.776 291.776 276.107 291.85L265.63 261.385L286.121 255.848H286.103Z" fill="#E7B3A2"/>
<path fill-rule="evenodd" clip-rule="evenodd" d="M307.466 311.888L303.294 317.184L310.155 337.519C310.155 337.519 310.897 339.908 312.01 339.63C313.122 339.352 313.827 339.167 313.827 339.167C313.827 339.167 314.625 338.704 314.161 337.297C313.697 335.871 309.543 316.703 309.543 316.703L307.466 311.906V311.888Z" fill="#AF4B3D"/>
<path fill-rule="evenodd" clip-rule="evenodd" d="M306.725 300.276C306.725 300.276 300.902 305.814 300.679 307.351C300.457 308.888 300.587 315.462 302.775 317.314C304.963 319.166 310.174 319.703 311.621 320.814C313.067 321.926 320.374 332.908 320.374 332.908C320.374 332.908 322.358 336.982 327.328 335.704C332.298 334.426 357.073 328.093 357.073 328.093C357.073 328.093 358.427 327.426 357.889 325.5C357.592 324.444 356.331 323.111 355.256 322.129C353.086 320.148 350.953 320.555 349.396 320.963L332.817 320.814L322.636 312.258L312.752 297.758C312.752 297.758 307.912 297.369 306.743 300.276H306.725Z" fill="#CB6459"/>
<path fill-rule="evenodd" clip-rule="evenodd" d="M302.422 263.163C302.422 263.163 324.138 298.48 330.721 309.555C337.304 320.629 341.736 318.796 343.851 318.24C345.965 317.703 348.079 318.648 349.377 320.944C349.377 320.944 336.155 324.333 332.946 325.148C329.738 325.981 327.049 324.629 325.25 321.833C323.433 319.037 314.421 304.98 313.067 302.443C311.713 299.906 308.282 299.554 306.743 300.258L285.547 275.979L302.441 263.145L302.422 263.163Z" fill="#E7B3A2"/>
<path fill-rule="evenodd" clip-rule="evenodd" d="M127.233 104.654C127.233 104.654 167.271 97.802 170.368 97.5798C173.465 97.3575 182.329 111.284 182.774 119.025C183.219 126.767 181.439 126.544 180.122 128.1C178.787 129.656 142.699 152.212 142.699 152.212C142.699 152.212 126.974 120.377 127.252 104.654H127.233Z" fill="#282828"/>
<path fill-rule="evenodd" clip-rule="evenodd" d="M141.364 149.471C139.658 145.823 136.542 138.915 133.668 131.267C142.959 123.229 148.003 122.081 148.003 122.081C148.003 122.081 148.133 142.767 145.926 147.045C145.221 148.416 143.459 149.12 141.364 149.471Z" fill="#4F0505"/>
<path fill-rule="evenodd" clip-rule="evenodd" d="M128.569 281.46L126.158 294.72C126.158 294.72 117.034 448.895 117.498 461.359C117.961 473.823 117.961 626.035 117.961 626.035C117.961 626.035 126.733 633.406 137.822 633.406C137.822 633.406 150.525 538.845 153.288 521.307C156.051 503.787 154.104 480.49 154.104 474.026C154.104 467.563 198.314 294.59 198.314 294.59L128.569 281.441V281.46Z" fill="#32325C"/>
<path fill-rule="evenodd" clip-rule="evenodd" d="M128.569 281.46L126.158 294.72L125.843 300.091C134.447 305.202 157.276 317.055 191.323 322.11C195.514 305.591 198.314 294.609 198.314 294.609L128.569 281.46Z" fill="#221E40"/>
<path fill-rule="evenodd" clip-rule="evenodd" d="M248.291 307.499C248.291 307.499 250.257 447.729 251.184 454.192C252.111 460.656 257.656 488.787 259.047 503.084C260.438 517.381 264.814 629.943 264.814 629.943H241.949C241.949 629.943 204.823 467.008 204.36 457.785C203.896 448.562 167.567 275.441 167.567 275.441L248.291 307.517V307.499Z" fill="#32325C"/>
<path fill-rule="evenodd" clip-rule="evenodd" d="M248.291 307.499C248.291 307.499 248.365 313.499 248.514 323.055C220.4 326.092 196.219 323.722 176.747 319.407C171.48 294.054 167.567 275.423 167.567 275.423L248.291 307.499Z" fill="#221E40"/>
<path fill-rule="evenodd" clip-rule="evenodd" d="M112.658 633.554C112.658 633.554 116.59 628.591 116.59 620.646C116.59 620.646 116.682 619.757 117.943 619.757H139.64C139.64 619.757 140.252 619.757 140.289 620.572C140.326 621.387 139.047 634.869 139.622 639.258C140.197 643.647 118.945 644.906 112.658 633.572V633.554Z" fill="#211C57"/>
<path fill-rule="evenodd" clip-rule="evenodd" d="M239.965 619.757C239.965 619.757 239.372 619.923 239.428 620.553C239.483 621.183 240.466 627.702 240.466 627.702L260.179 635.054L265.371 639.888L266.577 641.332C266.577 641.332 267.559 636.887 267.207 634.535C266.855 632.165 265.816 629.294 265.649 626.183C265.482 623.072 265.482 620.275 265.482 620.275C265.482 620.275 265.482 619.757 264.778 619.757H239.928H239.965Z" fill="#211C57"/>
<path fill-rule="evenodd" clip-rule="evenodd" d="M238.611 632.572C238.611 632.572 239.279 624.331 244.768 624.331H255.468C259.084 624.331 262.626 629.387 263.646 633.091C263.646 633.091 267.188 633.924 267.949 637.128C268.709 640.332 270.397 652.277 270.638 653.444C270.897 654.629 271.824 659 266.335 659H227.244C223.794 659 224.202 656.722 224.202 655.425C224.202 654.129 224.963 649.277 226.817 646.758C228.672 644.24 238.611 632.591 238.611 632.591V632.572Z" fill="#84543E"/>
<path fill-rule="evenodd" clip-rule="evenodd" d="M238.611 632.572C238.611 632.572 239.279 624.331 244.768 624.331H255.468C259.084 624.331 262.626 629.387 263.646 633.091L259.251 641.388C259.251 641.388 257.286 643.258 253.465 643.258H241.096C241.096 643.258 237.832 642.684 237.999 639.999C238.166 637.313 238.63 632.572 238.63 632.572H238.611Z" fill="#693726"/>
<path fill-rule="evenodd" clip-rule="evenodd" d="M270.434 652.277C270.526 652.851 270.601 653.277 270.638 653.444C270.897 654.629 271.824 659 266.335 659H227.244C223.794 659 224.202 656.722 224.202 655.426C224.202 654.87 224.332 653.666 224.629 652.296H270.415L270.434 652.277Z" fill="#693726"/>
<path fill-rule="evenodd" clip-rule="evenodd" d="M112.713 627.609C112.713 627.609 96.1718 640.61 90.1634 641.647C84.1735 642.684 71.0255 643.721 68.2439 645.166C65.4622 646.61 62.866 652.703 62.5507 653.833C62.2355 654.963 61.5122 659 65.5549 659H139.603C142.7 659 143.33 657.444 143.33 655.185C143.33 652.926 141.476 650.648 141.476 650.648V637.943C141.476 635.165 139.825 632.887 136.209 632.684C129.96 632.332 123.135 635.536 119.111 629.646C117.331 627.035 116.534 625.017 112.75 627.628L112.713 627.609Z" fill="#84543E"/>
<path fill-rule="evenodd" clip-rule="evenodd" d="M112.713 627.609C112.713 627.609 96.8393 640.091 90.5527 641.573C92.8337 643.832 96.8022 644.944 98.5454 644.814C100.826 644.647 117.924 637.665 119.463 635.795C121.003 633.924 119.389 630.072 119.389 630.072C119.278 629.943 119.167 629.795 119.074 629.646C117.294 627.035 116.496 625.017 112.713 627.628V627.609Z" fill="#693726"/>
<path fill-rule="evenodd" clip-rule="evenodd" d="M63.923 650.629C63.1812 652.092 62.6805 653.37 62.5507 653.833C62.2355 654.962 61.5122 659 65.5549 659H139.603C142.7 659 143.33 657.444 143.33 655.185C143.33 652.925 141.476 650.647 141.476 650.647H63.9416L63.923 650.629Z" fill="#693726"/>
<path d="M130.201 468.878C130.201 468.878 131.332 474.563 129.218 480.101" stroke="#221E40" stroke-width="0.71" stroke-linecap="round" stroke-linejoin="round"/>
<path d="M229.209 462.526C229.209 462.526 231.805 467.397 229.691 473.249" stroke="#221E40" stroke-width="0.71" stroke-linecap="round" stroke-linejoin="round"/>
<path d="M183.608 352.483L176.562 314.74" stroke="#221E40" stroke-width="0.71" stroke-linecap="round" stroke-linejoin="round"/>
<path d="M168.736 314.24C168.736 314.24 172.482 330 173.78 336.186C175.079 342.371 182.218 345.761 182.218 345.761" stroke="#221E40" stroke-width="0.71" stroke-linecap="round" stroke-linejoin="round"/>
<path d="M134.874 302.869C134.874 302.869 132.426 313.277 131.536 315.314C130.645 317.351 125.268 320.444 125.268 320.444" stroke="#221E40" stroke-width="0.71" stroke-linecap="round" stroke-linejoin="round"/>
<path d="M222.57 319.444C222.57 319.444 227.948 330.019 228.913 331.482C229.895 332.945 243.896 334.741 243.896 334.741" stroke="#221E40" stroke-width="0.71" stroke-linecap="round" stroke-linejoin="round"/>
<path d="M243.377 318.389C243.377 318.389 247.457 447.97 247.29 452.044C247.123 456.119 253.484 488.787 254.615 495.621C255.746 502.455 262.923 617.091 262.923 617.091" stroke="#221E40" stroke-width="0.71" stroke-linecap="round" stroke-linejoin="round"/>
<path d="M167.438 348.02L198.37 357.131" stroke="#221E40" stroke-width="0.71" stroke-linecap="round" stroke-linejoin="round"/>
<path fill-rule="evenodd" clip-rule="evenodd" d="M170.09 348.797C173.521 354.371 179.251 369.187 171.61 400.17C175.56 384.354 179.696 367.872 183.516 352.76L170.071 348.797H170.09Z" fill="#221E40"/>
<path fill-rule="evenodd" clip-rule="evenodd" d="M204.749 60.6885C212.927 60.6885 219.621 67.374 219.621 75.5412V116.321C219.621 124.488 212.927 131.174 204.749 131.174C196.571 131.174 189.876 124.488 189.876 116.321V75.5412C189.876 67.374 196.571 60.6885 204.749 60.6885Z" fill="#CF8577"/>
<path fill-rule="evenodd" clip-rule="evenodd" d="M98.712 52.3545C106.445 52.3545 112.75 58.6697 112.75 66.3923V104.894C112.75 112.617 106.426 118.914 98.712 118.914C90.9789 118.914 84.6738 112.599 84.6738 104.894V66.3923C84.6738 58.6697 90.9975 52.3545 98.712 52.3545Z" fill="#CF8577"/>
<path fill-rule="evenodd" clip-rule="evenodd" d="M219.622 114.099C219.622 114.099 219.455 119.228 225.129 120.821C230.804 122.414 257.73 126.84 257.73 126.84C257.73 126.84 242.506 151.434 250.294 179.732C250.294 179.732 238.259 249.088 238.611 254.736C238.964 260.403 250.294 309.572 250.294 309.572C250.294 309.572 250.164 310.369 249.552 310.813C248.94 311.258 148.578 309.054 127.326 282.164C127.326 282.164 133.705 249.606 133.705 241.828C133.705 234.05 132.278 182.732 133.001 168.935C133.705 155.138 146.816 123.469 148.059 122.062C149.301 120.636 186.854 115.876 186.854 115.876C186.854 115.876 189.914 114.987 189.914 111.987C189.914 111.987 198.017 126.136 219.659 114.099H219.622Z" fill="#3A0101"/>
<path fill-rule="evenodd" clip-rule="evenodd" d="M150.933 296.572C140.493 292.812 131.981 288.09 127.308 282.164C127.308 282.164 131.295 261.866 132.964 249.495L216.006 194.918L228.412 209.66L150.97 296.572H150.933Z" fill="#290303"/>
<path fill-rule="evenodd" clip-rule="evenodd" d="M219.621 114.099C219.621 114.099 219.547 116.396 221.198 118.396C201.04 134.36 186.816 115.859 186.816 115.859C186.816 115.859 189.876 114.97 189.876 111.97C189.876 111.97 197.98 126.119 219.621 114.081V114.099Z" fill="white"/>
<path fill-rule="evenodd" clip-rule="evenodd" d="M106.093 269.941L101.216 293.998H119.167C130.46 293.998 146.835 288.738 159.686 274.367C172.519 259.996 239.186 194.529 239.186 194.529C239.186 194.529 240.967 214.438 249.812 233.458C258.083 251.199 270.378 281.942 272.01 285.979C272.344 286.831 272.863 288.331 274.161 287.738L292.223 282.442L268.598 181.288C263.925 161.305 252.631 147.49 228.783 154.601C200.447 163.065 106.13 269.941 106.13 269.941H106.093Z" fill="#A01819"/>
<path fill-rule="evenodd" clip-rule="evenodd" d="M237.071 74.3926C237.275 74.4667 237.498 74.5408 237.702 74.6149C241.485 76.1149 243.859 80.0411 243.228 84.2265C242.486 89.0786 237.943 92.4121 233.084 91.6714C228.226 90.9306 224.888 86.3933 225.63 81.5412C226.056 78.7262 227.781 76.4112 230.099 75.1149C229.431 77.6706 229.301 80.93 232.547 81.819L233.325 76.7446C233.641 74.6889 235.718 74.0778 237.109 74.3741L237.071 74.3926Z" fill="#CF8577"/>
<path fill-rule="evenodd" clip-rule="evenodd" d="M33.1201 127.711C26.2772 143.99 12.2576 191.363 12.5172 196.363C12.7769 201.345 22.253 209.234 30.6722 200.308C39.0914 191.381 60.9738 161.732 60.9738 161.732C68.6141 151.768 76.5326 128.785 71.7666 115.803C64.1263 94.9501 38.2383 115.47 33.1015 127.711H33.1201Z" fill="#CF8577"/>
<path fill-rule="evenodd" clip-rule="evenodd" d="M176.431 63.0225C176.209 63.0225 175.986 63.0225 175.764 63.0225C171.703 63.1706 168.142 66.0967 167.345 70.2451C166.417 75.0787 169.589 79.7271 174.41 80.6531C179.25 81.5791 183.905 78.4122 184.832 73.5971C185.37 70.8007 184.535 68.0413 182.774 66.0597C182.551 68.6894 181.587 71.8193 178.23 71.5785L179.195 66.5412C179.584 64.504 177.841 63.2262 176.431 63.041V63.0225Z" fill="#CF8577"/>
<path fill-rule="evenodd" clip-rule="evenodd" d="M212.946 25.1685C229.469 28.002 240.67 43.8362 237.832 60.3556L233.122 87.6535C230.266 104.154 214.429 115.34 197.888 112.507C181.365 109.673 170.164 93.839 173.001 77.3381L177.711 50.0402C180.549 33.5393 196.404 22.3535 212.927 25.187L212.946 25.1685Z" fill="#E7B3A2"/>
<path fill-rule="evenodd" clip-rule="evenodd" d="M177.321 52.336L177.729 50.021C178.36 46.3912 179.602 43.0206 181.345 40.002C192.027 40.4464 214.336 41.4465 215.226 41.8909C216.413 42.4836 215.523 50.0025 215.523 50.0025L214.633 49.8544C213.39 49.7062 195.903 55.5769 177.321 52.336Z" fill="#CF8577"/>
<path fill-rule="evenodd" clip-rule="evenodd" d="M203.284 91.6159C202.709 95.931 198.759 98.9682 194.438 98.3941C190.117 97.82 187.076 93.8753 187.651 89.5602C187.744 88.8195 188.43 88.3009 189.171 88.3935L202.097 90.0973C202.839 90.1899 203.376 90.8751 203.265 91.6159H203.284Z" fill="#302B5C"/>
<path fill-rule="evenodd" clip-rule="evenodd" d="M199.575 97.3014C198.091 98.2089 196.293 98.6348 194.438 98.3941C192.918 98.1904 191.564 97.5792 190.451 96.6717C191.267 95.1531 193.177 94.1716 195.31 94.3753C197.331 94.5605 198.982 95.7643 199.575 97.3014Z" fill="#CB6459"/>
<path fill-rule="evenodd" clip-rule="evenodd" d="M189.004 88.375L201.151 89.9677C201.151 91.3381 200.372 92.616 199.426 92.7826C198.277 92.9864 189.524 91.6159 188.986 90.8381C188.726 90.4677 188.837 89.3936 188.986 88.375H189.004Z" fill="white"/>
<path fill-rule="evenodd" clip-rule="evenodd" d="M218.379 72.3004C218.88 72.6523 219.566 72.5597 219.937 72.0597C220.308 71.5596 220.197 70.8744 219.696 70.504C217.118 68.5595 213.354 67.7446 210.275 68.9299C209.701 69.1521 209.422 69.8003 209.645 70.3744C209.867 70.9485 210.517 71.2263 211.091 71.0041C213.558 70.041 216.302 70.8374 218.379 72.3004Z" fill="#302B5C"/>
<path fill-rule="evenodd" clip-rule="evenodd" d="M180.029 65.707C182.477 65.0218 185.333 65.1885 187.336 66.9293C187.799 67.3368 188.504 67.2812 188.912 66.8182C189.32 66.3552 189.264 65.6515 188.801 65.2441C186.297 63.0958 182.477 62.6143 179.399 63.5958C178.805 63.781 178.471 64.3922 178.657 64.9848C178.842 65.5774 179.454 65.9108 180.048 65.7256L180.029 65.707Z" fill="#302B5C"/>
<path fill-rule="evenodd" clip-rule="evenodd" d="M214.837 73.8192C216.228 74.0599 217.192 75.3748 216.951 76.7823L216.395 80.0973C216.172 81.4863 214.837 82.4493 213.427 82.2085C212.037 81.9863 211.072 80.6529 211.313 79.2454L211.87 75.9304C212.092 74.5414 213.427 73.5784 214.837 73.8192Z" fill="#302B5C"/>
<path fill-rule="evenodd" clip-rule="evenodd" d="M182.922 68.3182C184.313 68.5589 185.277 69.8738 185.036 71.2813L184.479 74.5963C184.238 75.9853 182.903 76.9483 181.512 76.7075C180.122 76.4853 179.157 75.1519 179.398 73.7444L179.955 70.4294C180.177 69.0404 181.512 68.0774 182.922 68.3182Z" fill="#302B5C"/>
<path fill-rule="evenodd" clip-rule="evenodd" d="M193.418 77.9861C193.418 77.9861 193.121 83.5975 192.788 84.5235C192.454 85.4495 189.932 85.5236 188.578 83.042C187.224 80.5603 193.177 75.7267 193.418 77.9861Z" fill="#EFCFC4"/>
<path fill-rule="evenodd" clip-rule="evenodd" d="M66.8899 225.716C66.8899 225.716 61.1411 279.664 92.5739 292.053C124.025 304.443 162.097 256.681 178.49 241.643C194.883 226.605 218.342 206.271 218.342 206.271C218.342 206.271 233.845 230.587 253.762 250.051C270.749 266.626 292.205 289.627 298.213 296.072C299.122 297.053 299.993 297.868 301.718 296.405L316.349 285.608C317.944 284.46 317.462 282.497 316.924 281.59L246.678 163.361C246.678 163.361 232.51 149.656 214.8 155.842C197.09 162.027 111.174 219.975 111.174 219.975C111.174 219.975 87.2517 215.993 66.8899 225.716Z" fill="#D92728"/>
<path fill-rule="evenodd" clip-rule="evenodd" d="M66.8899 225.716C66.8899 225.716 65.0169 243.254 69.245 260.626C106.872 259.107 113.974 229.42 115.291 217.197C112.676 218.957 111.174 219.957 111.174 219.957C111.174 219.957 87.2517 215.975 66.8899 225.698V225.716Z" fill="#4F0505"/>
<path fill-rule="evenodd" clip-rule="evenodd" d="M48.1416 148.379C48.5867 151.916 62.699 201.956 63.3666 205.938C64.0342 209.919 63.2553 245.625 63.4778 246.958C63.7004 248.292 64.5905 248.403 64.5905 248.403C105.333 248.403 111.193 219.994 111.193 219.994L138.787 201.678C138.787 201.678 136.32 186.27 137.433 182.733C138.546 179.195 146.742 162.602 145.185 153.546C143.627 144.471 135.226 130.322 134.336 128.118C133.446 125.915 127.252 104.673 127.252 104.673C127.252 104.673 117.516 105.673 116.404 105.562C115.291 105.45 112.787 103.024 112.787 103.024C102.514 116.062 84.6926 103.024 84.6926 103.024C80.1864 105.08 64.9985 106.321 58.7676 107.136C58.7676 107.136 61.7347 137.86 48.1601 148.397L48.1416 148.379Z" fill="#282828"/>
<path fill-rule="evenodd" clip-rule="evenodd" d="M78.5909 115.395L68.0947 126.729C68.0947 126.729 80.0559 138.674 96.1524 133.97C112.249 129.248 105.888 113.043 105.888 113.043L78.5723 115.395H78.5909Z" fill="black"/>
<path fill-rule="evenodd" clip-rule="evenodd" d="M116.385 105.543C115.272 105.432 112.769 103.006 112.769 103.006C107.447 109.784 100.084 109.506 94.2244 107.71C93.019 111.432 93.427 114.784 98.8234 114.84C111.081 114.988 116.404 105.543 116.404 105.543H116.385Z" fill="white"/>
<path fill-rule="evenodd" clip-rule="evenodd" d="M231.434 222.994C231.434 222.994 231.119 222.049 230.34 221.716C229.561 221.383 228.059 222.235 226.724 223.235C225.389 224.253 222.7 226.753 222.236 227.068C221.773 227.383 221.123 228.679 223.349 231.031C223.349 231.031 224.146 236.402 224.369 237.124C224.591 237.847 226.242 239.384 228.43 239.439C228.43 239.439 230.692 242.18 231.787 242.643C232.881 243.106 234.846 242.625 234.846 242.625C234.846 242.625 236.608 244.199 238.333 244.995C240.057 245.81 241.541 245.329 241.541 245.329C241.541 245.329 244.99 244.68 245.936 244.606C246.362 244.569 247.623 244.551 248.884 244.532C245.528 240.717 242.635 237.513 241.763 236.81L241.448 236.569C240.91 236.161 242.635 231.624 238.407 231.55C238.537 229.494 238.518 226.013 234.661 226.716C236.812 223.827 232.417 222.512 231.434 222.994Z" fill="#E7B3A2"/>
<path d="M231.435 222.994C231.435 222.994 230.749 223.253 230.415 223.605C230.081 223.957 225.278 227.865 224.759 228.346C224.239 228.809 223.201 230.032 223.349 231.05" stroke="#CF8577" stroke-width="0.71" stroke-linecap="round" stroke-linejoin="round"/>
<path d="M234.662 226.717C234.662 226.717 233.605 227.106 233.086 227.772C231.658 229.587 229.488 231.05 228.987 233.143C228.487 235.236 228.06 238.977 228.449 239.477" stroke="#CF8577" stroke-width="0.71" stroke-linecap="round" stroke-linejoin="round"/>
<path d="M238.407 231.55C238.407 231.55 237.202 231.754 236.961 232.846C236.72 233.957 235.106 235.976 234.736 237.106C234.383 238.235 233.382 241.161 234.847 242.624" stroke="#CF8577" stroke-width="0.71" stroke-linecap="round" stroke-linejoin="round"/>
<path d="M241.448 236.569C241.448 236.569 241.17 238.162 239.909 239.107" stroke="#CF8577" stroke-width="0.71" stroke-linecap="round" stroke-linejoin="round"/>
<path d="M240.707 238.272C240.707 238.272 242.413 241.217 243.192 242.106" stroke="#CF8577" stroke-width="0.71" stroke-linecap="round" stroke-linejoin="round"/>
<path fill-rule="evenodd" clip-rule="evenodd" d="M233.548 85.1904C233.548 85.1904 230.599 81.1531 230.303 79.8197C230.006 78.5048 231.49 73.1897 231.49 73.1897C231.49 73.1897 220.196 60.152 226.39 50.8551C226.39 50.8551 214.725 54.8368 210.887 52.4849C207.048 50.1329 212.074 47.1697 212.074 47.1697C181.679 56.9296 170.182 41.5768 172.852 28.4094C177.025 7.85272 199.649 -8.94452 203.209 13.7049C203.209 13.7049 231.249 13.5567 238.926 20.9275C246.603 28.2983 252.834 46.0401 238.666 75.0787C238.666 75.0787 235.087 76.1714 233.529 85.1904H233.548Z" fill="#0B0B0B"/>
<path fill-rule="evenodd" clip-rule="evenodd" d="M74.6044 118.322C74.6044 118.322 77.2563 136.452 68.2622 152.379C59.2496 168.306 53.7976 175.529 53.7976 175.529L52.3882 175.714C52.3882 175.714 40.3158 157.453 25.0723 151.879C25.0723 151.879 41.4284 112.988 42.4484 111.821C43.4869 110.636 46.9547 110.784 46.9547 110.784C46.9547 110.784 54.4095 106.617 59.5093 106.469C64.609 106.321 74.6044 118.34 74.6044 118.34V118.322Z" fill="#282828"/>
<path fill-rule="evenodd" clip-rule="evenodd" d="M85.9352 11.6113C85.9352 11.6113 72.8985 12.4076 67.5762 22.7786C62.254 33.1495 71.3037 48.8356 65.4436 64.7809C60.1214 79.2632 47.7708 123.71 78.7585 132.34C84.0622 133.822 94.206 134.303 90.3302 129.229C90.3302 129.229 105.704 131.488 107.836 117.395C109.969 103.302 96.1532 91.0787 86.4174 89.486L94.5213 27.8159L85.9352 11.5928V11.6113Z" fill="black"/>
<path fill-rule="evenodd" clip-rule="evenodd" d="M75.0495 55.5957C74.8456 55.5957 74.6416 55.6142 74.4561 55.6513C70.8214 56.1142 67.8543 59.0218 67.4834 62.8183C67.0383 67.226 70.2651 71.1521 74.6787 71.5966C79.0922 72.0411 83.0236 68.8187 83.4687 64.411C83.7283 61.8553 82.7455 59.4478 81.0208 57.7995C81.0208 60.17 80.4274 63.0591 77.3861 63.1146L77.8497 58.5218C78.0352 56.6698 76.3662 55.6513 75.0866 55.6142L75.0495 55.5957Z" fill="#CF8577"/>
<path fill-rule="evenodd" clip-rule="evenodd" d="M130.553 59.2439C130.757 59.281 130.942 59.3365 131.128 59.3921C134.632 60.4292 137.099 63.7812 136.858 67.5777C136.58 72.0039 132.778 75.356 128.346 75.0782C123.914 74.8004 120.557 71.0039 120.817 66.5777C120.965 64.0035 122.319 61.7996 124.303 60.4477C123.914 62.7812 124.044 65.7443 127.048 66.2814L127.326 61.67C127.437 59.7995 129.255 59.0773 130.534 59.2439H130.553Z" fill="#CF8577"/>
<path fill-rule="evenodd" clip-rule="evenodd" d="M107.169 18.0014C92.092 16.7791 78.7771 28.1131 77.5532 43.151L75.5318 68.0413C74.3079 83.0977 85.6571 96.3947 100.715 97.617C115.773 98.8393 129.107 87.5053 130.331 72.4674L132.352 47.5772C133.576 32.5208 122.227 19.2237 107.169 18.0014Z" fill="#E7B3A2"/>
<path fill-rule="evenodd" clip-rule="evenodd" d="M78.5729 37.6132C78.0537 39.3911 77.7014 41.243 77.5345 43.1691L76.2734 58.6885C104.683 59.5404 120.446 36.002 120.446 36.002C120.446 35.2798 96.9875 36.5206 78.5729 37.6132Z" fill="#CF8577"/>
<path fill-rule="evenodd" clip-rule="evenodd" d="M100.696 78.1901C100.232 82.0792 103.014 85.6164 106.908 86.0979C110.803 86.5609 114.363 83.783 114.827 79.8939C114.901 79.2271 114.419 78.616 113.751 78.5234L102.087 77.1159C101.419 77.0418 100.807 77.5234 100.715 78.1901H100.696Z" fill="white"/>
<path fill-rule="evenodd" clip-rule="evenodd" d="M102.662 83.9865C103.756 85.1162 105.221 85.8755 106.909 86.0793C108.281 86.2459 109.616 86.0052 110.766 85.4681C110.395 83.9495 108.949 82.6902 107.039 82.3753C105.221 82.079 103.515 82.7643 102.662 83.9865Z" fill="white"/>
<path fill-rule="evenodd" clip-rule="evenodd" d="M113.881 78.56L102.921 77.2451C102.606 78.4304 103.014 79.7267 103.793 80.0971C104.739 80.5416 112.713 81.2824 113.343 80.7268C113.659 80.449 113.807 79.486 113.881 78.56Z" fill="white"/>
<path fill-rule="evenodd" clip-rule="evenodd" d="M91.8323 57.9476C91.3131 58.1513 90.7382 57.9106 90.5342 57.392C90.3302 56.8735 90.5713 56.2994 91.0905 56.0957C93.7795 54.966 97.2658 55.0956 99.6766 56.8179C100.122 57.1327 100.233 57.7624 99.9177 58.2254C99.6024 58.6699 98.9719 58.781 98.5083 58.4662C96.5611 57.0772 93.9834 57.1513 91.8508 57.9661L91.8323 57.9476Z" fill="#302B5C"/>
<path fill-rule="evenodd" clip-rule="evenodd" d="M126.807 60.7624C124.822 59.6142 122.282 59.1327 120.149 60.1883C119.648 60.429 119.055 60.2253 118.795 59.7253C118.554 59.2253 118.758 58.6326 119.259 58.3734C121.911 57.0585 125.36 57.4844 127.845 59.0401C128.327 59.3364 128.476 59.9475 128.179 60.4105C127.901 60.892 127.27 61.0402 126.807 60.7439V60.7624Z" fill="#302B5C"/>
<path fill-rule="evenodd" clip-rule="evenodd" d="M91.9617 66.004C92.0173 65.4114 92.2955 64.8558 92.7591 64.4854C93.2227 64.0965 93.7976 63.9113 94.391 63.9669C94.9844 64.0224 95.5222 64.3002 95.9116 64.7632C96.3011 65.2262 96.4865 65.8003 96.4309 66.3929C96.3938 66.893 96.7461 67.3189 97.2468 67.3559C97.7475 67.393 98.1741 67.0411 98.2297 66.5411C98.3224 65.467 97.9886 64.4113 97.3025 63.5965C96.6163 62.7816 95.6335 62.2631 94.5579 62.1705C93.4823 62.0779 92.4253 62.4112 91.6093 63.0964C91.1828 63.4483 90.849 63.8928 90.6079 64.3743C90.4967 64.3743 90.2556 64.3743 90.0702 64.2261C89.9589 64.1335 89.792 64.1335 89.6993 64.2261C89.6065 64.3373 89.6065 64.5039 89.7178 64.5965C89.9403 64.7817 90.1814 64.8558 90.3854 64.8743C90.1629 64.9299 89.8847 64.9114 89.6065 64.7447C89.4767 64.6706 89.3284 64.7076 89.2542 64.8373C89.18 64.9669 89.2171 65.1151 89.3469 65.1892C89.6622 65.3744 89.9774 65.4114 90.2371 65.4114C89.996 65.4855 89.7364 65.5225 89.4211 65.4484C89.2727 65.4299 89.1429 65.504 89.1244 65.6521C89.0873 65.8003 89.18 65.9299 89.3284 65.9485C89.6436 66.0225 89.9218 66.004 90.1814 65.9485C90.2 66.3929 90.5523 66.7633 90.9974 66.8004C91.4981 66.8374 91.9246 66.4855 91.9802 65.9855L91.9617 66.004Z" fill="#302B5C"/>
<path fill-rule="evenodd" clip-rule="evenodd" d="M124.637 68.9855C124.711 68.3929 124.545 67.8003 124.174 67.3373C123.803 66.8743 123.265 66.5595 122.672 66.4854C122.078 66.4113 121.485 66.578 121.021 66.9484C120.557 67.3188 120.242 67.8559 120.168 68.4485C120.112 68.9485 119.667 69.3004 119.167 69.2263C118.666 69.1707 118.314 68.7263 118.388 68.2262C118.518 67.1521 119.055 66.1891 119.908 65.5409C120.761 64.8742 121.819 64.5779 122.894 64.7075C123.97 64.8372 124.934 65.3742 125.602 66.2261C125.935 66.6521 126.195 67.1521 126.325 67.6707C126.436 67.7077 126.659 67.7633 126.881 67.6336C127.011 67.5595 127.159 67.5966 127.233 67.7262C127.308 67.8559 127.271 68.004 127.141 68.0781C126.9 68.2262 126.64 68.2448 126.436 68.2262C126.64 68.3188 126.918 68.3559 127.233 68.2633C127.363 68.2262 127.512 68.3003 127.567 68.43C127.604 68.5596 127.53 68.7078 127.4 68.7633C127.067 68.8744 126.751 68.8559 126.473 68.8004C126.677 68.93 126.955 69.0041 127.252 69.0041C127.4 69.0041 127.512 69.1152 127.512 69.2633C127.512 69.4115 127.4 69.5226 127.252 69.5226C126.937 69.5226 126.659 69.4485 126.418 69.3559C126.306 69.7819 125.898 70.0782 125.435 70.0226C124.934 69.9671 124.582 69.5226 124.656 69.0226L124.637 68.9855Z" fill="#302B5C"/>
<path fill-rule="evenodd" clip-rule="evenodd" d="M110.692 69.5411C110.692 69.5411 109.895 73.5599 109.969 74.2636C110.043 74.9859 111.805 75.4859 113.214 73.9858C114.605 72.4672 111.285 67.9855 110.711 69.5411H110.692Z" fill="#EFCFC4"/>
<path fill-rule="evenodd" clip-rule="evenodd" d="M76.0134 61.9845C76.0134 61.9845 80.223 59.7992 80.4826 54.0767C80.4826 54.0767 103.7 54.6693 115.68 38.335C115.68 38.335 116.607 37.8721 116.978 38.5573C117.349 39.261 120.761 57.3917 131.461 58.4658C131.461 58.4658 137.915 40.5204 130.998 29.0938C124.081 17.6672 103.849 13.1484 96.9315 15.2782C90.0145 17.4079 75.9022 29.0938 74.567 43.1872C73.2318 57.2806 72.0449 56.3546 72.0449 56.3546C72.0449 56.3546 76.44 56.7064 76.0134 61.9845Z" fill="black"/>
<path fill-rule="evenodd" clip-rule="evenodd" d="M71.8594 17.3531C88.6977 35.0022 115.643 31.9835 138.935 17.2049C137.117 15.2974 134.929 13.4269 132.518 11.6306C117.126 17.9642 100.529 17.779 89.6064 6.83398C86.9731 9.4082 85.9346 11.6306 85.9346 11.6306C85.9346 11.6306 77.8863 12.1306 71.8408 17.3716L71.8594 17.3531Z" fill="#080808"/>
<path fill-rule="evenodd" clip-rule="evenodd" d="M42.6891 103.895C43.8945 115.525 48.6975 188.214 34.27 201.067C26.4257 208.03 17.4316 211.808 12.8697 206.456C8.28925 201.104 7.10241 189.085 10.8113 169.62C14.5202 150.156 29.9677 123.451 27.0006 102.876C32.3785 103.135 37.3298 103.635 42.7077 103.895H42.6891Z" fill="#E7B3A2"/>
<path d="M135.226 129.934C135.226 129.934 130.831 124.174 126.695 111.951" stroke="black" stroke-width="0.57" stroke-linecap="round" stroke-linejoin="round"/>
<path fill-rule="evenodd" clip-rule="evenodd" d="M103.626 237.069C103.441 236.754 103.533 236.346 103.849 236.143C104.164 235.957 104.572 236.05 104.776 236.365C104.776 236.383 110.024 245.477 126.547 233.513L138.026 225.198C163.209 206.919 210.813 172.361 217.563 168.62C221.81 166.268 226.353 165.657 230.785 166.954C234.976 168.176 239.056 171.102 242.617 175.88C249.775 185.436 308.765 285.627 308.931 285.923C309.117 286.238 309.006 286.646 308.69 286.831C308.375 287.016 307.967 286.905 307.782 286.59C307.615 286.312 248.681 186.214 241.541 176.676C238.147 172.139 234.309 169.38 230.414 168.231C226.335 167.046 222.125 167.602 218.194 169.787C211.536 173.472 163.97 208.011 138.805 226.29L127.326 234.606C109.616 247.421 103.645 237.087 103.626 237.069Z" fill="#4F0505"/>
<path fill-rule="evenodd" clip-rule="evenodd" d="M315.923 279.978C316.22 279.775 316.646 279.849 316.85 280.145C317.073 280.441 316.999 280.867 316.683 281.071L297.026 294.924C296.729 295.127 296.303 295.072 296.099 294.757C295.876 294.461 295.951 294.035 296.266 293.831L315.923 279.978Z" fill="#302B5C"/>
<path fill-rule="evenodd" clip-rule="evenodd" d="M112.286 221.883C111.916 221.957 111.582 221.717 111.508 221.346C111.433 220.994 111.674 220.642 112.045 220.568C112.045 220.568 116.069 219.753 117.961 221.642C119.741 223.42 122.208 237.292 122.208 237.329C122.282 237.699 122.041 238.032 121.67 238.106C121.318 238.18 120.965 237.94 120.891 237.569C120.891 237.532 118.462 224.032 117.015 222.587C115.643 221.217 112.305 221.883 112.305 221.883H112.286Z" fill="#4F0505"/>
<path d="M54.8545 174.029C54.8545 174.029 66.76 149.009 62.8657 133.082" stroke="black" stroke-width="0.57" stroke-linecap="round" stroke-linejoin="round"/>
<path d="M54.168 108.173C54.168 108.173 58.6001 112.729 60.8069 122.174" stroke="black" stroke-width="0.57" stroke-linecap="round" stroke-linejoin="round"/>
<path fill-rule="evenodd" clip-rule="evenodd" d="M54.8545 174.029C55.5221 176.473 59.4535 190.307 60.2138 190.363C61.2152 190.437 62.4763 190.585 63.3293 190.826C62.6617 185.918 62.2723 168.51 62.0683 162.935C62.0312 162.046 62.0126 161.176 61.9755 160.38C61.8643 156.657 61.8272 154.046 61.8272 154.046C60.6589 158.898 59.1383 163.435 57.8216 166.954C56.2082 171.251 54.8916 174.029 54.8916 174.029H54.8545Z" fill="black"/>
<path fill-rule="evenodd" clip-rule="evenodd" d="M135.226 129.933C143.515 123.081 148.021 122.062 148.021 122.062C148.096 121.969 148.318 121.877 148.652 121.766C141.846 123.229 135.819 121.266 131.443 118.877C130.645 118.451 129.904 117.988 129.217 117.543C129.013 117.414 128.809 117.284 128.624 117.154C129.106 118.358 129.588 119.488 130.052 120.525C132.908 126.896 135.226 129.933 135.226 129.933Z" fill="black"/>
<path d="M137.414 182.714C137.414 182.714 122.875 185.27 98.9531 184.973" stroke="black" stroke-width="0.57" stroke-linecap="round" stroke-linejoin="round"/>
<path d="M111.229 219.938C111.229 219.938 114.456 208.641 125.824 201.122" stroke="black" stroke-width="0.57" stroke-linecap="round" stroke-linejoin="round"/>
<path d="M63.5518 229.142C63.5518 229.142 85.6752 225.309 106.927 200.548" stroke="black" stroke-width="0.57" stroke-linecap="round" stroke-linejoin="round"/>
<path fill-rule="evenodd" clip-rule="evenodd" d="M251.258 90.6907C254.355 87.5979 259.436 87.5979 262.533 90.6907L264.388 92.5426L266.242 90.6907C269.339 87.5979 274.42 87.5979 277.517 90.6907C280.614 93.7834 280.614 98.8578 277.517 101.951L264.388 115.062L251.258 101.951C248.161 98.8578 248.161 93.802 251.258 90.6907Z" fill="#D92728"/>
<path fill-rule="evenodd" clip-rule="evenodd" d="M262.941 40.6134C268.69 34.8724 278.092 34.8724 283.841 40.6134L287.29 44.0581L290.74 40.6134C296.488 34.8724 305.89 34.8724 311.621 40.6134C317.369 46.3545 317.369 55.7439 311.621 61.485L287.29 85.7826L262.941 61.485C257.193 55.7439 257.193 46.3545 262.941 40.6134Z" fill="#D92728"/>
<path fill-rule="evenodd" clip-rule="evenodd" d="M4.30255 9.964C10.0513 4.22294 19.4533 4.22294 25.2021 9.964L28.6514 13.4086L32.1006 9.964C37.8494 4.22294 47.2514 4.22294 52.9817 9.964C58.7304 15.7051 58.7304 25.0945 52.9817 30.8355L28.6328 55.1332L4.30255 30.817C-1.42767 25.076 -1.42767 15.6865 4.30255 9.964Z" fill="#D92728"/>
<path fill-rule="evenodd" clip-rule="evenodd" d="M45.2668 101.117C37.5152 88.5607 36.4768 80.301 34.678 76.5415C33.454 74.0044 31.377 73.9303 31.4698 76.3008C31.5996 79.838 32.1003 83.1345 32.4897 85.2087C32.6381 86.0421 32.7308 90.0793 31.1916 86.4866C29.5411 82.616 27.2787 73.5784 25.0719 73.8192C21.0293 74.2636 26.2402 88.7089 26.2402 88.7089C26.2402 88.7089 25.8508 89.7645 24.6825 87.431C23.199 84.4864 21.4558 77.6527 19.1563 78.375C16.9124 79.0787 22.2532 94.2648 22.2532 94.2648C22.2532 94.2648 18.2476 84.6531 16.4859 86.5791C14.7056 88.5052 22.1048 105.117 25.8694 109.692C29.6339 114.266 45.2854 101.08 45.2854 101.08L45.2668 101.117Z" fill="#E7B3A2"/>
<path fill-rule="evenodd" clip-rule="evenodd" d="M42.4665 96.1536C41.7803 94.8573 41.5022 94.4684 40.9458 93.2276C28.5396 92.4683 24.2559 103.024 24.2559 103.024C24.2559 103.024 28.6509 102.395 32.4154 100.617C36.1799 98.839 42.2625 96.524 42.2625 96.524C42.2625 96.524 42.3367 96.4314 42.4665 96.1722V96.1536Z" fill="#DB9988"/>
<path fill-rule="evenodd" clip-rule="evenodd" d="M43.5426 112.914C48.29 107.506 48.5125 107.71 50.7379 100.913C52.9447 94.1166 53.2043 91.2276 54.1686 89.1534C55.1329 87.0977 51.1273 86.8014 49.1987 89.5979C47.2701 92.3758 42.7267 97.339 40.965 97.4502C39.2032 97.5613 27.2792 100.043 24.0339 103.58C20.8072 107.117 27.8355 114.655 27.8355 114.655L43.5426 112.895V112.914Z" fill="#E7B3A2"/>
<path fill-rule="evenodd" clip-rule="evenodd" d="M65.2394 189.455C65.2394 189.455 65.6659 188.455 65.2765 187.64C64.887 186.825 63.0511 186.417 61.2338 186.288C59.4164 186.14 55.4479 186.269 54.836 186.177C54.224 186.103 52.7775 186.695 52.8888 190.195C52.8888 190.195 49.6806 195.122 49.3468 195.881C49.013 196.64 49.2355 199.066 50.9787 200.678C50.9787 200.678 50.8489 204.511 51.4052 205.678C51.9616 206.826 53.9087 207.845 53.9087 207.845C53.9087 207.845 54.2054 210.382 55.0214 212.271C55.8374 214.16 57.3765 214.845 57.3765 214.845C57.3765 214.845 60.6404 216.79 61.4563 217.401C61.8272 217.679 62.8657 218.567 63.9042 219.456C63.9042 213.938 63.8856 209.289 63.6816 208.085L63.5889 207.641C63.4406 206.919 68.0952 204.493 64.7387 201.381C66.3335 199.807 68.7999 196.974 65.1837 194.788C69.0039 193.992 66.3891 189.77 65.2394 189.455Z" fill="#E7B3A2"/>
<path d="M65.2393 189.455C65.2393 189.455 64.4975 189.159 63.9782 189.214C63.4405 189.27 56.7459 188.992 55.9856 189.011C55.2253 189.011 53.5006 189.27 52.9072 190.196" stroke="#CF8577" stroke-width="0.71" stroke-linecap="round" stroke-linejoin="round"/>
<path d="M65.2021 194.789C65.2021 194.789 64.0523 194.344 63.1622 194.511C60.6958 194.956 57.8956 194.585 55.9855 195.919C54.0754 197.252 51.0342 199.993 50.9971 200.678" stroke="#CF8577" stroke-width="0.71" stroke-linecap="round" stroke-linejoin="round"/>
<path d="M64.757 201.382C64.757 201.382 63.6443 200.678 62.6429 201.4C61.6601 202.122 58.897 202.604 57.7843 203.271C56.6716 203.937 53.7787 205.586 53.9085 207.826" stroke="#CF8577" stroke-width="0.71" stroke-linecap="round" stroke-linejoin="round"/>
<path d="M63.6077 207.642C63.6077 207.642 62.2539 208.734 60.5479 208.605" stroke="#CF8577" stroke-width="0.71" stroke-linecap="round" stroke-linejoin="round"/>
<path d="M61.7896 208.493C61.7896 208.493 61.0479 212.104 61.0479 213.401" stroke="#CF8577" stroke-width="0.71" stroke-linecap="round" stroke-linejoin="round"/>
</svg>
