<svg width="190" height="57" viewBox="0 0 190 57" fill="none" xmlns="http://www.w3.org/2000/svg">
<path d="M187.914 50.381C187.914 53.3454 185.52 55.7496 182.569 55.7496H182.564H7.43748C4.48151 55.752 2.08332 53.3502 2.07861 50.381V7.57195C2.08332 4.60281 4.47916 2.19865 7.43748 2.19629H182.562C185.518 2.19629 187.914 4.60281 187.914 7.56959V50.381Z" fill="white"/>
<path d="M182.564 56.9999H7.4375C3.79667 56.9999 0.843059 54.0378 0.835999 50.3831V7.57403C0.840705 3.91697 3.79432 0.952559 7.4375 0.950195H182.562C186.203 0.954923 189.156 3.91697 189.163 7.57403V50.3831C189.166 54.0331 186.2 56.9999 182.564 56.9999Z" fill="#A6A6A6"/>
<path d="M187.914 50.381C187.914 53.3454 185.52 55.7496 182.569 55.7496H182.564H7.43748C4.48151 55.752 2.08332 53.3502 2.07861 50.381V7.57195C2.08332 4.60281 4.47916 2.19865 7.43748 2.19629H182.562C185.518 2.19629 187.914 4.60281 187.914 7.56959V50.381Z" fill="black"/>
<path d="M42.8879 28.6798C42.8479 24.1623 46.5711 21.9638 46.7405 21.8621C44.6318 18.7748 41.3628 18.3516 40.2143 18.3185C37.4678 18.0278 34.806 19.9686 33.4081 19.9686C32.0101 19.9686 29.8284 18.3469 27.5056 18.3942C24.519 18.4415 21.7254 20.1766 20.191 22.8739C17.0279 28.3725 19.3861 36.4525 22.4173 40.8968C23.933 43.074 25.7051 45.5042 28.0233 45.4191C30.2921 45.3269 31.1393 43.9676 33.8764 43.9676C36.6135 43.9676 37.3831 45.4191 39.7483 45.3647C42.1818 45.3269 43.7163 43.178 45.1778 40.9819C46.9288 38.4879 47.6325 36.0294 47.6607 35.9041C47.6042 35.8852 42.9349 34.0933 42.8879 28.6798ZM38.421 15.3943C39.6401 13.8625 40.4756 11.7774 40.2449 9.66406C38.4798 9.74207 36.2723 10.891 34.999 12.3897C33.8741 13.7112 32.8691 15.8742 33.128 17.9096C35.112 18.0585 37.1477 16.9049 38.421 15.3967V15.3943Z" fill="white"/>
<path d="M182.564 0.950195H88.7618L125.502 56.9999H182.564C186.205 56.9975 189.159 54.0354 189.166 50.3784V7.57403C189.159 3.91697 186.207 0.954923 182.564 0.950195Z" fill="url(#paint0_linear_129_8658)"/>
<path d="M75.74 45.1064H72.5699L70.8331 39.6267H64.7987L63.1442 45.1064H60.0588L66.039 26.4547H69.7316L75.74 45.1064ZM70.3106 37.3289L68.7408 32.4591C68.5737 31.9627 68.263 30.7902 67.8041 28.9463H67.7476C67.5641 29.7406 67.2699 30.9107 66.8651 32.4591L65.3212 37.3289H70.3106ZM91.0918 38.2154C91.0918 40.5037 90.4728 42.3098 89.2349 43.6383C88.1264 44.8203 86.7496 45.4089 85.1069 45.4089C83.3324 45.4089 82.0568 44.773 81.2825 43.5012V50.5577H78.3077V36.0736C78.3077 34.6363 78.27 33.1636 78.1971 31.653H80.8141L80.9812 33.7853H81.0377C82.0309 32.1802 83.5371 31.3764 85.5564 31.3764C87.1356 31.3764 88.4559 32.0029 89.5102 33.2582C90.5646 34.5158 91.0941 36.1658 91.0941 38.2154H91.0918ZM88.0605 38.3241C88.0605 37.0145 87.7663 35.9365 87.1779 35.0855C86.5354 34.2014 85.6694 33.7593 84.5868 33.7593C83.8525 33.7593 83.1864 34.0052 82.5887 34.4921C81.9909 34.9839 81.6002 35.6221 81.4166 36.4164C81.3343 36.7143 81.2895 37.0192 81.2778 37.3265V39.5699C81.2778 40.5463 81.5767 41.3713 82.1744 42.0474C82.7722 42.7211 83.5489 43.0568 84.502 43.0568C85.6223 43.0568 86.4954 42.6218 87.1191 41.7566C87.7451 40.889 88.0581 39.7449 88.0581 38.3241H88.0605ZM106.495 38.2154C106.495 40.5037 105.876 42.3098 104.638 43.6383C103.53 44.8203 102.153 45.4089 100.508 45.4089C98.7335 45.4089 97.4579 44.773 96.6836 43.5012V50.5577H93.7088V36.0736C93.7088 34.6363 93.6712 33.1636 93.5982 31.653H96.2153L96.3824 33.7853H96.4389C97.4297 32.1802 98.9359 31.3764 100.958 31.3764C102.537 31.3764 103.855 32.0029 104.914 33.2582C105.966 34.5158 106.498 36.1658 106.498 38.2154H106.495ZM103.464 38.3241C103.464 37.0145 103.17 35.9365 102.581 35.0855C101.939 34.2014 101.078 33.7593 99.9926 33.7593C99.2583 33.7593 98.5923 34.0052 97.9922 34.4921C97.3944 34.9839 97.006 35.6221 96.8225 36.4164C96.7307 36.7876 96.6836 37.0878 96.6836 37.3265V39.5699C96.6836 40.5463 96.9849 41.3713 97.5779 42.0474C98.1757 42.7187 98.9524 43.0568 99.9079 43.0568C101.03 43.0568 101.901 42.6218 102.525 41.7566C103.151 40.889 103.464 39.7449 103.464 38.3241ZM123.72 39.8725C123.72 41.4611 123.167 42.7518 122.068 43.7471C120.859 44.8345 119.171 45.3806 117.008 45.3806C115.01 45.3806 113.407 44.9929 112.198 44.2175L112.885 41.7259C114.191 42.5013 115.624 42.889 117.185 42.889C118.307 42.889 119.178 42.6337 119.802 42.1278C120.425 41.6195 120.741 40.941 120.741 40.0947C120.741 39.3359 120.48 38.7024 119.967 38.1847C119.451 37.6693 118.599 37.1871 117.404 36.7474C114.151 35.5299 112.525 33.7475 112.525 31.4048C112.525 29.8753 113.099 28.62 114.248 27.6414C115.396 26.6627 116.916 26.1733 118.809 26.1733C120.498 26.1733 121.908 26.4688 123.026 27.0598L122.28 29.4947C121.228 28.9226 120.04 28.6366 118.712 28.6366C117.662 28.6366 116.839 28.8966 116.25 29.412C115.754 29.873 115.504 30.4356 115.504 31.1022C115.504 31.8374 115.791 32.4497 116.361 32.9296C116.855 33.3716 117.757 33.8515 119.06 34.3669C120.661 35.0146 121.835 35.7687 122.588 36.6339C123.346 37.4991 123.723 38.5818 123.723 39.8678L123.72 39.8725ZM133.584 33.8988H130.303V40.4281C130.303 42.0899 130.882 42.9173 132.04 42.9173C132.572 42.9173 133.012 42.8724 133.363 42.7779L133.445 45.0473C132.859 45.2671 132.087 45.3782 131.131 45.3782C129.957 45.3782 129.037 45.0189 128.376 44.2979C127.714 43.5769 127.382 42.3712 127.382 40.6715V33.8917H125.429V31.6483H127.382V29.185L130.305 28.2985V31.6459H133.586V33.8941L133.584 33.8988ZM148.354 38.2698C148.354 40.3382 147.766 42.0356 146.589 43.3617C145.361 44.7281 143.723 45.4089 141.684 45.4089C139.646 45.4089 138.152 44.7541 136.985 43.4468C135.817 42.1372 135.234 40.4848 135.234 38.4943C135.234 36.5039 135.836 34.7025 137.039 33.3763C138.244 32.0478 139.865 31.3835 141.903 31.3835C143.941 31.3835 145.448 32.0383 146.641 33.348C147.782 34.6174 148.352 36.258 148.352 38.2698H148.354ZM145.269 38.3383C145.269 37.1067 145.003 36.05 144.471 35.1659C143.847 34.0974 142.953 33.5631 141.797 33.5631C140.642 33.5631 139.691 34.0974 139.07 35.1659C138.535 36.05 138.272 37.1256 138.272 38.395C138.272 39.6645 138.538 40.6881 139.07 41.5699C139.712 42.6384 140.611 43.1726 141.774 43.1726C142.936 43.1726 143.803 42.6266 144.447 41.5439C144.993 40.6385 145.269 39.5747 145.269 38.3407V38.3383ZM158.032 34.2841C157.721 34.2274 157.408 34.2014 157.093 34.2014C156.045 34.2014 155.236 34.5962 154.666 35.3928C154.172 36.0926 153.922 36.979 153.922 38.0499V45.1064H150.948V35.8916C150.95 34.4803 150.922 33.069 150.861 31.6577H153.452L153.56 34.2321H153.642C153.958 33.348 154.452 32.6341 155.13 32.0998C155.751 31.6341 156.504 31.3812 157.281 31.3788C157.556 31.3788 157.803 31.3977 158.025 31.4332V34.2841H158.027H158.032ZM171.341 37.745C171.348 38.1988 171.312 38.6527 171.232 39.0995H162.306C162.339 40.4281 162.772 41.4469 163.6 42.1467C164.353 42.7707 165.325 43.0852 166.521 43.0852C167.843 43.0852 169.048 42.8748 170.133 42.4493L170.599 44.5225C169.331 45.078 167.836 45.3546 166.109 45.3546C164.033 45.3546 162.402 44.7399 161.216 43.5154C160.032 42.2885 159.439 40.6408 159.439 38.5771C159.439 36.5133 159.99 34.8609 161.094 33.5135C162.249 32.0762 163.812 31.3575 165.777 31.3575C167.742 31.3575 169.168 32.0762 170.161 33.5135C170.948 34.6529 171.343 36.0666 171.343 37.7426L171.341 37.745ZM168.502 36.9696C168.523 36.0831 168.328 35.3195 167.923 34.6718C167.408 33.8397 166.615 33.4236 165.553 33.4236C164.581 33.4236 163.788 33.8279 163.186 34.6411C162.689 35.2864 162.395 36.0642 162.306 36.9648H168.502V36.9672V36.9696Z" fill="white"/>
<path d="M63.9397 19.8596C63.1113 19.8596 62.3958 19.8194 61.8004 19.7508V10.7323C62.6335 10.6023 63.4761 10.5384 64.3186 10.5408C67.7312 10.5408 69.3033 12.2263 69.3033 14.9756C69.3033 18.1457 67.4464 19.8596 63.9397 19.8596ZM64.441 11.6968C63.9797 11.6968 63.5891 11.7251 63.2619 11.7913V18.6468C63.4384 18.6752 63.775 18.687 64.2504 18.687C66.4862 18.687 67.7594 17.4081 67.7594 15.0158C67.7594 12.8811 66.6086 11.6968 64.441 11.6968ZM74.2032 19.9281C72.2804 19.9281 71.0331 18.4861 71.0331 16.5287C71.0331 14.5714 72.3063 13.0324 74.3115 13.0324C76.206 13.0324 77.4816 14.4059 77.4816 16.42C77.4816 18.4341 76.1684 19.9281 74.2032 19.9281ZM74.2574 14.1057C73.2006 14.1057 72.5228 15.0985 72.5228 16.4862C72.5228 17.8738 73.2148 18.8407 74.2432 18.8407C75.2717 18.8407 75.9636 17.7793 75.9636 16.4602C75.9636 15.1411 75.2858 14.108 74.2574 14.108V14.1057ZM88.4488 13.1672L86.3895 19.7768H85.048L84.1961 16.907C83.9843 16.2049 83.8078 15.4933 83.6666 14.7723H83.6383C83.53 15.4933 83.3276 16.2143 83.1111 16.907L82.205 19.7768H80.8494L78.9125 13.1672H80.4164L81.1625 16.3089C81.339 17.0583 81.4872 17.7627 81.6096 18.4317H81.6379C81.7461 17.8762 81.9203 17.1812 82.1792 16.3231L83.1135 13.1672H84.3043L85.1987 16.2545C85.4152 17.0039 85.5917 17.7367 85.7282 18.4317H85.7682C85.8623 17.7509 86.013 17.0299 86.2154 16.2545L87.0155 13.1672H88.4512H88.4488ZM96.027 19.7768H94.5631V15.9803C94.5631 14.8125 94.116 14.2262 93.2358 14.2262C92.3556 14.2262 91.7719 14.9756 91.7719 15.8455V19.7768H90.3081V15.056C90.3081 14.4721 90.2939 13.8456 90.2539 13.1648H91.5413L91.6095 14.186H91.6495C92.0426 13.4792 92.8404 13.0301 93.7371 13.0301C95.1186 13.0301 96.027 14.0915 96.027 15.8172V19.7745V19.7768ZM100.061 19.7768H98.597V10.1342H100.061V19.7768ZM105.396 19.9281C103.473 19.9281 102.226 18.4861 102.226 16.5287C102.226 14.5714 103.499 13.0324 105.504 13.0324C107.401 13.0324 108.675 14.4059 108.675 16.42C108.675 18.4861 107.361 19.9281 105.396 19.9281ZM105.45 14.1057C104.394 14.1057 103.716 15.0985 103.716 16.4862C103.716 17.8738 104.408 18.8407 105.434 18.8407C106.46 18.8407 107.154 17.7793 107.154 16.4602C107.154 15.1151 106.481 14.108 105.45 14.108V14.1057ZM114.441 19.7768L114.335 19.0156H114.295C113.848 19.6279 113.196 19.9258 112.37 19.9258C111.19 19.9258 110.353 19.096 110.353 17.9802C110.353 16.3491 111.76 15.5051 114.201 15.5051V15.3822C114.201 14.5123 113.742 14.0749 112.833 14.0749C112.184 14.0749 111.614 14.238 111.113 14.5666L110.816 13.5998C111.426 13.2192 112.184 13.0277 113.076 13.0277C114.796 13.0277 115.664 13.9378 115.664 15.7628V18.1977C115.664 18.8643 115.693 19.382 115.759 19.7768H114.441ZM114.238 16.4838C112.614 16.4838 111.798 16.8786 111.798 17.8171C111.798 18.5097 112.219 18.8501 112.8 18.8501C113.544 18.8501 114.236 18.2804 114.236 17.5051V16.4838H114.238ZM122.767 19.7768L122.699 18.7154H122.659C122.238 19.5168 121.532 19.9258 120.546 19.9258C118.959 19.9258 117.783 18.5239 117.783 16.5524C117.783 14.5808 119.002 13.0277 120.666 13.0277C121.546 13.0277 122.169 13.3256 122.522 13.926H122.551V10.1318H124.015V17.9944C124.015 18.6327 124.031 19.2331 124.069 19.7768H122.767ZM122.551 15.8881C122.551 14.9638 121.941 14.1742 121.009 14.1742C119.924 14.1742 119.261 15.1411 119.261 16.5004C119.261 17.8596 119.948 18.7461 120.979 18.7461C121.899 18.7461 122.548 17.9424 122.548 16.9921V15.8905L122.551 15.8881ZM133.299 19.9281C131.376 19.9281 130.131 18.4861 130.131 16.5287C130.131 14.5714 131.404 13.0324 133.41 13.0324C135.307 13.0324 136.58 14.4059 136.58 16.42C136.58 18.4861 135.269 19.9281 133.301 19.9281H133.299ZM133.353 14.1057C132.299 14.1057 131.621 15.0985 131.621 16.4862C131.621 17.8738 132.313 18.8407 133.339 18.8407C134.365 18.8407 135.059 17.7793 135.059 16.4602C135.062 15.1151 134.386 14.108 133.353 14.108V14.1057ZM144.443 19.7768H142.979V15.9803C142.979 14.8125 142.532 14.2262 141.651 14.2262C140.771 14.2262 140.19 14.9756 140.19 15.8455V19.7768H138.726V15.056C138.726 14.4721 138.712 13.8456 138.672 13.1648H139.959L140.028 14.186H140.068C140.461 13.4792 141.258 13.0301 142.153 13.0301C143.534 13.0301 144.443 14.0915 144.443 15.8172V19.7768ZM154.285 14.2688H152.675V17.479C152.675 18.297 152.958 18.7036 153.527 18.7036C153.786 18.7036 154.003 18.6752 154.177 18.635L154.217 19.7508C153.934 19.8596 153.553 19.9139 153.082 19.9139C151.929 19.9139 151.24 19.2757 151.24 17.602V14.2688H150.279V13.1672H151.24V11.9568L152.675 11.5218V13.1672H154.285V14.2711V14.2688ZM162.028 19.7768H160.566V16.0087C160.566 14.8267 160.122 14.2262 159.239 14.2262C158.481 14.2262 157.775 14.7439 157.775 15.7912V19.7768H156.314V10.1342H157.775V14.1057H157.803C158.265 13.3847 158.931 13.0301 159.783 13.0301C161.176 13.0301 162.028 14.1175 162.028 15.8455V19.7768ZM169.961 16.8242H165.572C165.6 18.0748 166.424 18.7816 167.646 18.7816C168.295 18.7816 168.893 18.6728 169.42 18.4695L169.648 19.4908C169.025 19.7626 168.293 19.8997 167.441 19.8997C165.382 19.8997 164.162 18.5925 164.162 16.5689C164.162 14.5454 165.41 13.0182 167.276 13.0182C168.959 13.0182 170.013 14.2688 170.013 16.16C170.023 16.3822 170.006 16.6067 169.964 16.8266L169.961 16.8242ZM168.62 15.7794C168.62 14.7581 168.107 14.0395 167.173 14.0395C166.332 14.0395 165.669 14.7747 165.572 15.7794H168.62Z" fill="white"/>
<defs>
<linearGradient id="paint0_linear_129_8658" x1="143.008" y1="58.1326" x2="143.008" y2="-143.956" gradientUnits="userSpaceOnUse">
<stop stop-color="#1A1A1A" stop-opacity="0.1"/>
<stop offset="0.12" stop-color="#212121" stop-opacity="0.15"/>
<stop offset="0.31" stop-color="#353535" stop-opacity="0.23"/>
<stop offset="0.53" stop-color="#575757" stop-opacity="0.32"/>
<stop offset="0.78" stop-color="#858585" stop-opacity="0.42"/>
<stop offset="1" stop-color="#B3B3B3" stop-opacity="0.51"/>
</linearGradient>
</defs>
</svg>
