<?xml version="1.0" encoding="UTF-8"?>
<svg id="Layer_2" data-name="Layer 2" xmlns="http://www.w3.org/2000/svg" xmlns:xlink="http://www.w3.org/1999/xlink" viewBox="0 0 727.79 196.88">
  <defs>
    <style>
      .cls-1 {
        fill: #a72024;
      }

      .cls-1, .cls-2, .cls-3 {
        stroke-width: 0px;
      }

      .cls-2 {
        fill: url(#linear-gradient);
      }

      .cls-3 {
        fill: #010101;
      }
    </style>
    <linearGradient id="linear-gradient" x1="0" y1="938.95" x2="215.47" y2="938.95" gradientTransform="translate(0 -840)" gradientUnits="userSpaceOnUse">
      <stop offset="0" stop-color="#e92729"/>
      <stop offset="1" stop-color="#931c1f"/>
    </linearGradient>
  </defs>
  <g id="Layer_3_copy" data-name="Layer 3 copy">
    <g>
      <path class="cls-2" d="M215.47,65.49c-.01,6.74-1.02,13.47-3.05,19.9-4.23,13.35-12.9,22.46-22.53,32.18-23.21,23.46-46.74,46.6-69.93,70.07-1.62,1.64-3.25,3.29-4.87,4.93-5.25,5.33-8.5,6.04-14.11.32-27.62-28.17-56.1-55.51-83.4-83.99C-3.69,86.7-5.57,53.29,11.46,28.81,28.92,3.69,59.68-5.59,88.47,5.94c4.41,1.77,13.14,3.5,10.09,9.14-2.72,5.04-4.89,16.15-17.7,10.13-19.26-9.05-41.25-1.55-52.92,15.42-11.74,17.06-10.2,39.45,4.91,55.01,22.43,23.11,45.55,45.56,68.18,68.49,4.48,4.54,7.29,6.39,12.86.63,22.68-23.46,46.32-45.99,68.9-69.55,17.51-18.27,16.31-44.95-1.62-62.08-16.07-15.35-42.92-15.24-59.26.24-16.92,16.03-16.9,42.08.25,60.99,5.77,6.37,11.58,12.83,18.15,18.3,7.08,5.9,4.85,9.55-.54,15.16-5.72,5.95-9.09,5.29-14.07-.52-5.89-6.85-12.9-12.73-19.06-19.35-20.11-21.63-23.61-54.09-8.62-77.99C112.36,7.1,141.8-4.1,168.1,3.29c21.84,6.14,39.37,22.66,45.17,44.79,1.46,5.68,2.21,11.53,2.2,17.4Z"/>
      <path class="cls-3" d="M205.79,16.48c-1.32-1.84-.99-4.39.8-5.79,1.17-.92,2.21-1.75,2.62-2,2.58-1.53,5.26-2.87,8.03-4.01,5.44-2.23,11.21-3.68,17.05-4.31,11.61-1.25,23.53.73,34.08,5.74,21.41,10.16,35.48,32.77,35.85,56.39.22,13.66-4.14,27.32-12.1,38.4-4.31,6.01-9.92,11.11-15.07,16.41-5.68,5.85-11.41,11.66-17.16,17.44-19.22,19.32-38.72,38.34-57.86,57.75-4.15,4.21-6.52,4.49-10.58.09-7.67-8.32-15.79-16.25-23.95-24.1-5.07-4.88-9.51-7.99-1.74-15.67,7.63-7.54,10.69-3.62,15.85,1.59,14.98,15.12,15.1,14.98,30.45-.39,19.54-19.56,39.24-38.95,58.6-58.67,16.22-16.52,18.32-38.7,5.92-56.89-12-17.61-34.98-24.46-55.34-14.25-11.23,5.63-11.99-2.92-15.45-7.74Z"/>
      <path class="cls-3" d="M151.17,82.25c-10.81-.63-19.13-10.21-18.39-21.18.77-11.37,9.51-18.74,21.18-17.85,10.96.83,18.07,8.83,17.72,19.95-.34,10.91-9.8,19.71-20.51,19.08Z"/>
      <g>
        <path class="cls-1" d="M394.6,24.46c-5.2-4.97-12.93-7.73-19.68-7.73-16.58,0-26.64,12.6-26.64,28.52,0,12.72,7.41,25.86,26.64,25.86,6.08,0,11.39-1.32,17.46-6.19v-13.71h-19.79v-13.04h33.17v32.61c-7.63,8.73-17.25,13.93-30.85,13.93-29.08,0-40.9-19.13-40.9-39.46,0-21.78,13.6-41.9,40.9-41.9,10.39,0,20.78,3.99,28.74,11.83l-9.05,9.29Z"/>
        <path class="cls-1" d="M493.77,44.7c-.23,20.01-12.49,40.02-39.69,40.02s-39.8-19.57-39.8-39.9,13.04-40.79,39.8-40.79c26.64-.01,39.9,20.44,39.69,40.67ZM428.64,45.03c.33,12.72,7.19,26.31,25.42,26.31s25.09-13.71,25.32-26.42c.23-13.04-7.08-27.64-25.32-27.64-18.23,0-25.75,14.71-25.42,27.75Z"/>
      </g>
      <g>
        <path class="cls-3" d="M403.11,153.46c.33,19.57-11.61,39.35-38.69,39.35h-30.4v-77.39h30.4c26.53,0,38.36,18.91,38.69,38.04ZM348.51,178.77h15.92c17.57,0,24.54-12.82,24.21-25.42-.33-12.05-7.41-24.1-24.21-24.1h-15.92v49.52Z"/>
        <path class="cls-3" d="M504.04,128.7h-24.54v-13.26h63.67v13.26h-24.54v64.11h-14.6v-64.11h0Z"/>
        <path class="cls-3" d="M552.13,192.81v-77.39h14.48v77.39h-14.48Z"/>
        <path class="cls-3" d="M631.17,115.31h14.6v77.5h-9.07v.11l-40.69-52.29v52.18h-14.6v-77.39h11.83l37.92,47.98v-48.09Z"/>
        <path class="cls-3" d="M716.63,134.34c-5.2-4.97-12.93-7.73-19.68-7.73-16.58,0-26.64,12.6-26.64,28.52,0,12.72,7.41,25.86,26.64,25.86,6.08,0,11.39-1.32,17.47-6.19v-13.71h-19.79v-13.04h33.17v32.61c-7.63,8.73-17.25,13.93-30.85,13.93-29.08,0-40.9-19.13-40.9-39.46,0-21.78,13.6-41.9,40.9-41.9,10.39,0,20.78,3.99,28.74,11.83l-9.06,9.29Z"/>
        <polygon class="cls-3" points="455.4 115.43 439.48 115.43 404.77 192.81 420.58 192.81 447.44 131.68 474.2 192.81 490.11 192.81 455.4 115.43"/>
      </g>
    </g>
  </g>
</svg>