<?xml version="1.0" encoding="UTF-8"?>
<svg id="Layer_2" data-name="Layer 2" xmlns="http://www.w3.org/2000/svg" viewBox="0 0 1593.88 983.91">
  <defs>
    <style>
      .cls-1 {
        fill: #a72024;
        stroke-width: 0px;
      }
    </style>
  </defs>
  <g id="Layer_3_copy" data-name="Layer 3 copy">
    <path class="cls-1" d="M1203.93,49.1c-89.49,7.54-179.16-4.36-264.53-32.23-102.54-33.48-223.2-17.7-322.91,52.59-25.42,17.92-47.97,38.32-67.49,60.56-54.86,62.46-131.59,100.58-214.23,109.56-60.87,6.62-121.88,28.77-176.59,67.34C-3.21,420.68-48.56,634.17,56.88,783.75c78.16,110.88,217.24,155.5,349.71,124.83,78.31-18.13,160.44-5.04,230.78,33.89,112.18,62.09,260.69,55.72,379.47-28.02,42.63-30.05,77.16-67.06,102.95-108.01,43.31-68.77,110.29-119.4,189.12-139.18,43.94-11.02,87.03-30.38,126.79-58.41,161.39-113.77,206.74-327.26,101.29-476.84-60.65-86.03-213.52-92.99-333.06-82.92Z"/>
  </g>
</svg>