<?xml version="1.0" encoding="UTF-8"?>
<svg xmlns="http://www.w3.org/2000/svg" xmlns:xlink="http://www.w3.org/1999/xlink" width="243px" height="150px" viewBox="0 0 797 492" version="1.1">
<g id="surface1">
<path style=" stroke:none;fill-rule:nonzero;fill:rgb(65.490196%,12.54902%,14.117647%);fill-opacity:1;" d="M 602.011719 24.554688 C 557.261719 28.324219 512.421875 22.375 469.734375 8.441406 C 418.460938 -8.300781 358.128906 -0.410156 308.269531 34.738281 C 295.558594 43.699219 284.28125 53.898438 274.519531 65.019531 C 247.089844 96.25 208.722656 115.3125 167.398438 119.804688 C 136.960938 123.113281 106.453125 134.1875 79.097656 153.476562 C -1.605469 210.359375 -24.28125 317.113281 28.441406 391.910156 C 67.523438 447.351562 137.070312 469.664062 203.308594 454.328125 C 242.46875 445.261719 283.535156 451.808594 318.710938 471.273438 C 374.804688 502.320312 449.0625 499.136719 508.457031 457.261719 C 529.773438 442.238281 547.042969 423.730469 559.9375 403.253906 C 581.59375 368.867188 615.085938 343.550781 654.503906 333.660156 C 676.476562 328.148438 698.023438 318.46875 717.902344 304.453125 C 798.605469 247.5625 821.28125 140.808594 768.554688 66.015625 C 738.226562 22.996094 661.785156 19.515625 602.011719 24.550781 Z M 602.011719 24.554688 "/>
</g>
</svg>
