<?xml version="1.0" encoding="UTF-8"?>
<svg xmlns="http://www.w3.org/2000/svg" xmlns:xlink="http://www.w3.org/1999/xlink" width="146px" height="90px" viewBox="0 0 145 90" version="1.1">
<g id="surface1">
<path style=" stroke:none;fill-rule:nonzero;fill:rgb(65.490196%,12.54902%,14.117647%);fill-opacity:1;" d="M 109.523438 4.492188 C 101.382812 5.179688 93.226562 4.09375 85.460938 1.542969 C 76.132812 -1.519531 65.15625 -0.0742188 56.082031 6.355469 C 53.769531 7.992188 51.71875 9.859375 49.945312 11.894531 C 44.953125 17.605469 37.972656 21.09375 30.453125 21.914062 C 24.917969 22.519531 19.367188 24.546875 14.390625 28.074219 C -0.292969 38.480469 -4.417969 58.007812 5.175781 71.691406 C 12.285156 81.832031 24.9375 85.914062 36.988281 83.109375 C 44.113281 81.449219 51.585938 82.648438 57.984375 86.207031 C 68.1875 91.886719 81.699219 91.304688 92.503906 83.644531 C 96.382812 80.898438 99.523438 77.511719 101.871094 73.765625 C 105.8125 67.476562 111.902344 62.84375 119.074219 61.035156 C 123.074219 60.027344 126.992188 58.257812 130.609375 55.691406 C 145.292969 45.285156 149.417969 25.757812 139.824219 12.074219 C 134.308594 4.207031 120.398438 3.570312 109.523438 4.492188 Z M 109.523438 4.492188 "/>
</g>
</svg>
