<svg width="172" height="389" viewBox="0 0 172 389" fill="none" xmlns="http://www.w3.org/2000/svg">
<path d="M74.4109 195.068L79.0263 200.8L71.7827 216.719L58.9687 214.173C58.9687 214.173 57.8546 210.433 55.8652 207.884C53.8758 205.338 53.3983 205.019 53.3983 205.019L53.9554 195.786L74.4109 195.07V195.068Z" fill="#9E4F2B"/>
<path d="M75.6841 187.586C75.6841 187.586 75.3658 190.928 75.6841 192.919C76.0024 194.911 76.7659 197.993 76.7659 197.993C76.7659 197.993 77.196 200.004 73.2151 199.288C69.2341 198.572 66.6876 197.765 61.913 199.443C57.1363 201.12 54.1124 205.338 54.1124 205.338C54.1124 205.338 50.7701 201.757 45.0385 199.526C39.3068 197.298 31.2674 195.07 27.209 190.771C23.1485 186.474 24.9013 183.448 29.5963 182.891C34.2913 182.334 42.2511 182.891 49.8131 181.936C57.375 180.981 64.6982 179.151 70.6665 180.105C76.6347 181.06 77.4326 181.617 75.6819 187.588L75.6841 187.586Z" fill="#EACBC6"/>
<path d="M57.7751 200.44C57.9256 200.44 58.0633 200.346 58.1149 200.195C58.1772 200.008 58.0762 199.806 57.8891 199.741C57.8202 199.718 57.1879 199.473 56.4588 199.189C54.6393 198.481 51.5939 197.298 49.7787 196.64C48.4173 196.145 41.5393 193.825 39.9478 196.808C39.8553 196.982 39.9198 197.199 40.0962 197.292C40.2704 197.384 40.4876 197.318 40.5801 197.146C41.6683 195.105 46.7204 196.29 49.5335 197.313C51.3401 197.969 54.3812 199.152 56.1986 199.858C57.1557 200.23 57.5837 200.395 57.6632 200.421C57.6998 200.434 57.7385 200.438 57.7772 200.438L57.7751 200.44Z" fill="#101C1C"/>
<path d="M66.2984 179.845C67.8189 179.813 69.2814 179.882 70.6708 180.103C76.6412 181.058 77.4369 181.615 75.6863 187.586C75.6863 187.586 75.6863 187.594 75.6863 187.605C73.2366 186.033 70.5159 185.087 67.6813 184.609C67.1931 183.031 66.7328 181.441 66.3005 179.845H66.2984Z" fill="#974F2C"/>
<path d="M56.9556 180.869C59.3107 180.501 61.6033 180.166 63.7971 179.981C64.182 181.424 64.5885 182.863 65.0208 184.291C64.7348 184.272 64.4487 184.254 64.1605 184.242C61.1796 184.117 58.1944 184.377 55.2286 184.723C55.7856 183.429 56.3169 182.123 56.9556 180.867V180.869Z" fill="#974F2C"/>
<path d="M49.8152 181.934C51.2347 181.755 52.6477 181.544 54.0435 181.327C53.4951 182.572 52.9875 183.839 52.4047 185.069C52.3488 185.076 52.2928 185.084 52.2369 185.091C50.6282 185.291 49.0324 185.54 47.4387 185.773C46.7182 184.626 46.0084 183.476 45.2643 182.347C46.7784 182.256 48.3054 182.125 49.8174 181.934H49.8152Z" fill="#974F2C"/>
<path d="M35.6828 182.6C37.7626 182.57 40.0402 182.557 42.3974 182.478C43.2276 183.671 44.0018 184.901 44.7739 186.132C42.8727 186.36 40.9607 186.51 39.0164 186.469C37.6808 186.441 36.2807 186.289 34.8806 186.207C35.1064 184.996 35.3688 183.792 35.6828 182.598V182.6Z" fill="#974F2C"/>
<path d="M29.5963 182.889C30.6308 182.766 31.8266 182.697 33.1407 182.654C32.8546 183.822 32.6138 184.999 32.403 186.181C31.2782 186.242 30.1749 186.425 29.1296 186.846C27.6757 187.429 26.7122 188.41 26.239 189.623C23.4947 185.938 25.3314 183.396 29.5963 182.889Z" fill="#974F2C"/>
<path d="M29.8351 193.272C29.8587 193.272 29.8845 193.27 29.9082 193.264C30.4265 193.156 30.8459 192.958 31.1534 192.679C31.5621 192.309 31.7686 191.775 31.6933 191.287C31.6051 190.708 31.1685 190.302 30.848 190.007L29.4307 188.691C29.0393 188.328 28.6263 187.902 28.6651 187.454C28.6823 187.257 28.536 187.084 28.3382 187.067C28.1446 187.05 27.9682 187.196 27.951 187.394C27.8779 188.229 28.5704 188.872 28.9447 189.218L30.362 190.534C30.676 190.825 30.9384 191.091 30.9857 191.399C31.0244 191.648 30.8997 191.943 30.6717 192.152C30.4609 192.343 30.1534 192.483 29.7619 192.565C29.5684 192.605 29.4436 192.795 29.4845 192.988C29.5189 193.156 29.6694 193.272 29.8351 193.272Z" fill="#101C1C"/>
<path d="M51.7724 204.677C52.1251 204.677 52.4886 204.514 52.7725 204.215C53.0435 203.929 53.2026 203.574 53.3424 203.26L53.3553 203.232C53.607 202.671 53.9253 202.109 54.2328 201.565C54.6071 200.905 54.9963 200.219 55.2824 199.509C55.5383 198.87 55.4286 198.182 54.992 197.713C54.549 197.238 53.8694 197.087 53.1747 197.311C52.7875 197.436 52.5617 197.786 52.4413 197.974C51.5659 199.337 50.9422 200.896 50.639 202.488C50.5723 202.834 50.5099 203.236 50.6046 203.645C50.7186 204.137 51.0691 204.529 51.4971 204.643C51.5875 204.667 51.6799 204.679 51.7746 204.679L51.7724 204.677ZM53.8005 197.924C54.0651 197.924 54.2995 198.019 54.4673 198.199C54.7124 198.462 54.7705 198.862 54.6178 199.24C54.349 199.907 53.9726 200.572 53.6091 201.213C53.293 201.77 52.9661 202.346 52.6994 202.94L52.6865 202.97C52.5574 203.256 52.437 203.527 52.2499 203.725C52.1079 203.875 51.8756 204.002 51.6756 203.95C51.4778 203.899 51.3444 203.679 51.2992 203.484C51.2369 203.211 51.2863 202.897 51.338 202.621C51.624 201.12 52.2133 199.647 53.0392 198.361C53.1403 198.206 53.2564 198.034 53.3898 197.993C53.5317 197.948 53.6693 197.926 53.7984 197.926L53.8005 197.924Z" fill="#101C1C"/>
<path d="M47.4042 202.084C47.486 202.084 47.5677 202.073 47.6451 202.051C48.0344 201.942 48.3549 201.563 48.628 200.892L49.5033 198.741C49.5507 198.625 49.6066 198.503 49.6668 198.376C49.8926 197.89 50.1486 197.339 50.084 196.782C50.0131 196.182 49.5636 195.756 48.8495 195.614C47.6623 195.382 47.286 196.382 47.1634 196.713C46.8666 197.505 46.5956 198.313 46.359 199.12C46.1891 199.698 45.8342 200.901 46.488 201.63C46.7504 201.922 47.0859 202.086 47.4042 202.086V202.084ZM47.9677 200.621C47.7656 201.118 47.5634 201.331 47.4537 201.361C47.3419 201.393 47.1634 201.307 47.0236 201.15C46.6364 200.718 46.9246 199.739 47.0494 199.322C47.2817 198.533 47.5483 197.739 47.8387 196.965C48.0796 196.324 48.3334 196.242 48.7162 196.317C49.1227 196.397 49.3442 196.582 49.3786 196.866C49.4195 197.221 49.2087 197.675 49.0237 198.072C48.9592 198.212 48.8968 198.346 48.8452 198.47L47.9699 200.621H47.9677Z" fill="#101C1C"/>
<path d="M42.8598 199.899C43.1652 199.899 43.5308 199.843 43.8039 199.576C43.9695 199.415 44.0577 199.212 44.1222 199.064C44.361 198.518 44.5933 197.961 44.8083 197.406C44.8492 197.3 44.9008 197.186 44.9567 197.066C45.1309 196.681 45.331 196.247 45.3267 195.832C45.3224 195.427 45.1008 195.1 44.718 194.93C44.1502 194.681 43.2318 194.812 42.7909 195.206C42.6017 195.373 42.4769 195.58 42.3673 195.761C42.0834 196.227 41.7887 196.711 41.5887 197.251C41.3564 197.881 41.2962 198.498 41.4188 199.04C41.451 199.18 41.5113 199.387 41.664 199.552C41.9156 199.825 42.2855 199.858 42.507 199.879C42.6038 199.888 42.7264 199.899 42.8619 199.899H42.8598ZM43.4663 198.776C43.4211 198.881 43.3673 199 43.3028 199.064C43.1587 199.206 42.849 199.191 42.5694 199.165C42.4511 199.154 42.2533 199.137 42.1887 199.066C42.1629 199.036 42.1371 198.976 42.1156 198.881C42.0231 198.477 42.0726 197.999 42.2576 197.5C42.4339 197.025 42.7092 196.574 42.9759 196.135C43.0684 195.982 43.1566 195.84 43.2663 195.741C43.4835 195.545 44.0857 195.438 44.4277 195.586C44.5847 195.655 44.6083 195.75 44.6083 195.84C44.6105 196.094 44.447 196.453 44.3029 196.769C44.2427 196.903 44.1846 197.029 44.1395 197.146C43.9265 197.692 43.6986 198.24 43.4641 198.776H43.4663Z" fill="#101C1C"/>
<path d="M52.8564 196.546C52.9682 197.152 53.08 197.757 53.1897 198.363C53.1983 198.406 53.2069 198.451 53.2392 198.479C53.265 198.503 53.3016 198.511 53.336 198.52C53.536 198.565 53.736 198.608 53.936 198.651C54.478 198.277 54.9985 197.875 55.4974 197.443C54.8823 196.956 53.6328 196.432 52.8564 196.544V196.546Z" fill="#555F4F"/>
<path d="M49.5528 197.059C49.0517 196.881 48.5162 196.797 47.9849 196.816C47.9548 196.261 47.9226 195.709 47.8925 195.154C47.8839 195.012 49.669 195.401 49.826 195.504C50.355 195.851 49.7657 196.578 49.5528 197.059Z" fill="#555F4F"/>
<path d="M44.69 196.107C44.6857 196.169 44.675 196.249 44.6169 196.27C44.5804 196.285 44.5395 196.27 44.5008 196.255C44.0921 196.1 43.6469 196.068 43.2103 196.038V194.171C43.2103 194.059 44.8449 194.442 44.9933 194.59C45.3697 194.965 44.7223 195.612 44.69 196.107Z" fill="#555F4F"/>
<path d="M114.367 334.282V341.287L123.282 358.4L135.777 346.341C135.777 346.341 135.379 340.889 135.777 337.704C136.175 334.521 119.38 329.744 114.367 334.282Z" fill="#9E4F2B"/>
<path d="M126.546 348.849C122.507 348.636 116.279 339.775 114.369 341.287C112.459 342.799 113.653 344.549 112.459 346.302C111.266 348.053 104.499 357.843 105.932 362.063C107.364 366.28 118.987 372.967 127.661 377.505C136.337 382.041 150.505 391.435 155.837 387.534C161.169 383.632 153.45 375.436 147.877 369.386C142.305 363.336 139.997 355.137 139.758 353.228C139.52 351.318 138.246 345.825 135.777 346.343C133.31 346.861 132.594 349.169 126.544 348.851L126.546 348.849Z" fill="#EACBC6"/>
<path d="M142.017 370.812C142.954 370.812 143.709 370.582 144.275 370.121C145.339 369.255 145.292 367.913 145.29 367.855C145.281 367.657 145.114 367.498 144.916 367.513C144.718 367.521 144.565 367.687 144.574 367.885C144.574 367.895 144.602 368.934 143.815 369.569C143.07 370.169 141.842 370.257 140.165 369.831C136.152 368.812 133.293 365.254 131.667 359.26C131.467 358.525 131.28 357.817 131.1 357.146C130.127 353.496 129.424 350.857 128.575 349.814C128.45 349.662 128.224 349.638 128.071 349.763C127.919 349.888 127.895 350.113 128.02 350.266C128.772 351.191 129.495 353.899 130.409 357.329C130.588 358 130.777 358.708 130.977 359.445C132.676 365.708 135.709 369.435 139.991 370.524C140.739 370.715 141.417 370.81 142.019 370.81L142.017 370.812Z" fill="#101C1C"/>
<path d="M152.256 383.512C152.293 383.512 152.329 383.505 152.368 383.495C152.557 383.432 152.658 383.232 152.598 383.043C152.179 381.759 152.211 380.641 152.691 379.718C153.174 378.787 153.972 378.365 154.099 378.326C154.284 378.271 154.398 378.073 154.347 377.886C154.295 377.698 154.11 377.584 153.921 377.632C153.643 377.701 152.695 378.225 152.101 379.296C151.484 380.413 151.422 381.748 151.916 383.265C151.966 383.415 152.106 383.512 152.256 383.512Z" fill="#101C1C"/>
<path d="M113.788 342.597C113.98 342.597 114.139 342.446 114.145 342.253C114.197 340.954 113.988 339.829 113.52 338.913C112.941 337.779 111.939 336.964 110.835 336.736C110.19 336.603 109.377 336.76 109.113 337.422C108.973 337.773 109.035 338.201 109.276 338.568C109.463 338.852 109.726 339.061 109.958 339.244C110.792 339.906 111.569 340.569 111.975 341.435C112.059 341.614 112.272 341.691 112.451 341.61C112.629 341.526 112.707 341.313 112.623 341.134C112.152 340.126 111.306 339.401 110.407 338.689C110.195 338.519 109.997 338.364 109.872 338.175C109.762 338.009 109.726 337.82 109.775 337.691C109.876 337.437 110.317 337.364 110.687 337.441C111.58 337.626 112.397 338.3 112.879 339.242C113.289 340.048 113.474 341.052 113.427 342.229C113.418 342.427 113.573 342.592 113.771 342.601C113.775 342.601 113.78 342.601 113.786 342.601L113.788 342.597Z" fill="#101C1C"/>
<path d="M140.761 384.605C138.76 383.609 136.739 382.51 134.784 381.426C134.799 379.871 134.842 378.316 134.958 376.763C137.343 377.765 139.748 378.718 142.111 379.781C142.903 380.138 143.886 380.617 144.969 381.112C143.576 382.291 142.21 383.499 140.761 384.603V384.605Z" fill="#974F2C"/>
<path d="M147.391 382.269C147.426 382.241 147.456 382.211 147.486 382.183C151.149 383.587 155.164 384.344 156.93 381.17C158.014 383.706 157.979 385.966 155.837 387.532C153.207 389.457 148.424 388.145 143.212 385.777C144.628 384.637 145.989 383.428 147.389 382.269H147.391Z" fill="#974F2C"/>
<path d="M127.084 373.625C127.282 373.511 127.424 373.369 127.519 373.212C127.602 373.26 127.684 373.311 127.77 373.359C129.353 374.245 130.981 375.028 132.631 375.761C132.599 375.856 132.575 375.959 132.566 376.071C132.446 377.402 132.386 378.738 132.358 380.073C130.687 379.138 129.099 378.254 127.663 377.503C126.503 376.897 125.29 376.251 124.058 375.58C125.056 374.909 126.045 374.228 127.086 373.625H127.084Z" fill="#974F2C"/>
<path d="M121.641 374.242C118.911 372.705 116.176 371.07 113.765 369.453C114.216 367.668 114.711 365.895 115.337 364.164C115.341 364.168 115.345 364.173 115.35 364.175C117.169 365.781 119.114 367.231 121.041 368.704C122.441 369.775 123.847 370.846 125.31 371.831C124.062 372.595 122.873 373.451 121.641 374.24V374.242Z" fill="#974F2C"/>
<path d="M107.495 354.701C109.065 357.575 111.152 360.145 113.5 362.452C113.371 362.575 113.264 362.734 113.188 362.93C112.562 364.573 112.068 366.257 111.625 367.956C108.672 365.795 106.502 363.734 105.932 362.061C105.323 360.267 106.198 357.463 107.495 354.701Z" fill="#974F2C"/>
<path d="M130.577 358.067C130.897 358.067 131.207 358.006 131.474 357.953L139.382 356.398C140.13 356.249 140.935 355.998 141.206 355.249C141.457 354.555 141.047 353.832 140.825 353.445C140.702 353.23 140.535 352.937 140.219 352.78C139.821 352.585 139.38 352.711 139.115 352.787L132.973 354.55C132.934 354.561 129.003 355.77 128.992 357.047C128.988 357.465 129.323 357.781 129.99 357.985C130.185 358.045 130.383 358.067 130.579 358.067H130.577ZM139.745 353.393C139.806 353.393 139.859 353.402 139.902 353.423C140.012 353.477 140.102 353.625 140.204 353.8C140.432 354.195 140.662 354.649 140.533 355.004C140.382 355.419 139.797 355.587 139.244 355.694L131.336 357.249C130.966 357.323 130.545 357.406 130.198 357.299C129.768 357.168 129.708 357.047 129.706 357.045C129.73 356.604 132.044 355.561 133.169 355.239L139.311 353.475C139.462 353.432 139.616 353.391 139.743 353.391L139.745 353.393Z" fill="#101C1C"/>
<path d="M133.672 366.433C134.519 366.433 135.431 366.076 135.984 365.814C138.405 364.672 140.797 363.386 143.111 362.142C143.249 362.069 143.503 361.932 143.587 361.644C143.851 360.738 143.092 359.555 142.455 359.138C142.064 358.882 141.606 358.813 141.055 358.923C140.728 358.99 140.41 359.108 140.102 359.222C139.965 359.273 139.827 359.325 139.692 359.368C137.625 360.054 135.683 361.059 133.921 362.358C133.822 362.431 133.708 362.51 133.584 362.594C132.743 363.175 131.474 364.052 131.872 365.233C132.039 365.73 132.349 366.076 132.796 366.268C133.065 366.382 133.364 366.429 133.67 366.429L133.672 366.433ZM142.898 361.441C142.898 361.441 142.847 361.471 142.771 361.51C140.466 362.749 138.081 364.031 135.676 365.166C134.594 365.678 133.622 365.844 133.076 365.612C132.822 365.504 132.65 365.306 132.549 365.007C132.323 364.336 133.287 363.672 133.99 363.186C134.119 363.095 134.242 363.011 134.345 362.934C136.046 361.68 137.919 360.708 139.915 360.048C140.057 360 140.203 359.947 140.35 359.893C140.631 359.787 140.924 359.68 141.195 359.624C141.563 359.549 141.829 359.585 142.062 359.736C142.541 360.048 143.04 360.949 142.898 361.439V361.441Z" fill="#101C1C"/>
<path d="M137.79 370.496C137.917 370.496 138.049 370.476 138.175 370.436C138.513 370.33 138.778 370.122 139.012 369.934C139.483 369.56 139.991 369.212 140.483 368.876C141.169 368.407 141.877 367.924 142.52 367.345C142.664 367.216 142.907 367.044 143.189 366.844C144.255 366.085 145.718 365.046 145.185 363.992C144.881 363.394 144.157 363.241 143.63 363.297C140.956 363.564 138.586 366.222 137.691 367.351C137.341 367.795 136.96 368.332 136.799 368.969C136.67 369.472 136.749 369.904 137.02 370.19C137.212 370.39 137.491 370.498 137.79 370.498V370.496ZM138.565 369.373C138.371 369.526 138.171 369.685 137.962 369.75C137.795 369.801 137.621 369.777 137.539 369.691C137.446 369.595 137.429 369.39 137.491 369.143C137.621 368.638 137.947 368.177 138.253 367.792C138.907 366.966 141.232 364.252 143.701 364.005C144.019 363.973 144.417 364.057 144.546 364.31C144.8 364.814 143.481 365.751 142.774 366.257C142.475 366.47 142.217 366.652 142.042 366.809C141.434 367.356 140.746 367.827 140.079 368.283C139.578 368.627 139.059 368.982 138.567 369.371L138.565 369.373Z" fill="#101C1C"/>
<path d="M128.465 356.402C128.415 356.927 128.497 358.822 129.336 358.725C129.732 358.68 130.17 358.018 130.431 357.751C130.573 357.605 130.717 357.458 130.891 357.353C130.775 357.116 130.785 356.777 130.644 356.555C129.917 356.503 129.192 356.454 128.465 356.402Z" fill="#555F4F"/>
<path d="M130.766 365.089C131.435 364.852 132.125 364.672 132.824 364.553C133.042 364.837 133.255 365.188 133.51 365.441C133.156 365.805 133.046 366.336 132.803 366.781C132.751 366.874 132.689 366.971 132.588 367.007C131.702 366.725 131.123 365.947 130.766 365.089Z" fill="#555F4F"/>
<path d="M137.543 368.971C137.036 369.21 136.478 369.416 135.971 369.655C136.012 370.034 136.227 370.376 136.5 370.642C136.773 370.909 137.1 371.109 137.427 371.305C137.694 370.713 138.005 370.143 138.358 369.599C138.16 369.378 137.741 369.193 137.543 368.971Z" fill="#555F4F"/>
<path d="M113.5 274.823C112.139 274.823 111.057 287.956 111.599 303.477C112.141 318.999 114.369 334.282 114.369 334.282C114.369 334.282 118.587 338.977 127.185 338.343C135.782 337.706 137.1 337.052 137.1 337.052C137.1 337.052 149.89 266.47 152.02 244.021C157.274 188.622 146.765 149.221 146.765 149.221L125.08 142.296H101.873C101.873 142.296 91.6058 164.818 91.6058 176.243C91.6058 187.667 95.903 221.337 95.903 221.337L79.0284 200.802C79.0284 200.802 72.501 206.056 68.92 208.443C65.3391 210.831 58.9708 214.175 58.9708 214.175C58.9708 214.175 72.2644 252.142 87.5453 264.083C102.828 276.021 113.5 274.828 113.5 274.828V274.823Z" fill="#021011"/>
<path d="M132.913 199.898C133.044 199.898 133.168 199.827 133.231 199.703C135.539 195.16 136.244 185.871 135.328 172.094C134.648 161.863 133.278 152.838 133.265 152.748C133.235 152.552 133.055 152.419 132.857 152.447C132.661 152.477 132.528 152.66 132.558 152.856C132.611 153.213 137.969 188.794 132.592 199.378C132.502 199.554 132.573 199.769 132.749 199.86C132.801 199.885 132.857 199.898 132.91 199.898H132.913Z" fill="#101C1C"/>
<path d="M115.537 272.795C115.95 272.795 117.87 272.661 120.266 270.375C123.72 267.082 126.488 261.045 128.499 252.436C131.295 240.454 132.5 223.801 132.076 202.939C132.072 202.744 131.912 202.589 131.719 202.589H131.712C131.515 202.593 131.358 202.757 131.362 202.954C131.777 223.416 130.822 259.318 119.774 269.857C117.346 272.173 115.524 272.081 115.507 272.076C115.307 272.064 115.139 272.212 115.124 272.41C115.111 272.608 115.259 272.778 115.457 272.793C115.466 272.793 115.494 272.795 115.537 272.795Z" fill="#101C1C"/>
<path d="M132.132 158.912C139.864 158.912 144.062 156.841 145.922 155.921C146.284 155.742 146.66 155.557 146.765 155.547C146.963 155.547 147.122 155.387 147.122 155.19C147.122 154.992 146.959 154.833 146.761 154.833C146.512 154.833 146.208 154.983 145.604 155.28C143.204 156.465 136.825 159.614 123.697 157.465C107.938 154.884 99.7313 147.847 99.6495 147.776C99.5011 147.645 99.2753 147.662 99.1441 147.81C99.0151 147.959 99.0301 148.185 99.1785 148.316C99.2603 148.389 107.624 155.559 123.581 158.173C126.817 158.702 129.654 158.915 132.128 158.915L132.132 158.912Z" fill="#101C1C"/>
<path d="M137.928 176.404C137.973 176.404 138.021 176.395 138.066 176.376C141.498 174.957 142.808 170.309 141.956 162.564C141.333 156.895 139.72 151.557 139.705 151.503C139.646 151.314 139.446 151.206 139.257 151.264C139.068 151.322 138.96 151.522 139.018 151.712C139.033 151.763 140.629 157.048 141.244 162.652C141.801 167.73 141.655 174.116 137.79 175.716C137.608 175.791 137.519 176.002 137.597 176.185C137.655 176.322 137.788 176.406 137.928 176.406V176.404Z" fill="#101C1C"/>
<path d="M110.945 169.636C110.967 169.636 110.988 169.636 111.012 169.63C115.023 168.888 118.232 165.079 120.047 158.908C120.081 158.794 120.105 158.713 120.12 158.667C120.185 158.48 120.084 158.276 119.899 158.214C119.711 158.149 119.507 158.248 119.445 158.437C119.428 158.489 119.4 158.579 119.363 158.708C117.625 164.608 114.614 168.236 110.883 168.928C110.689 168.965 110.56 169.152 110.597 169.346C110.629 169.518 110.78 169.638 110.947 169.638L110.945 169.636Z" fill="#101C1C"/>
<path d="M107.302 238.05C107.444 238.05 107.577 237.966 107.633 237.826C110.281 231.295 108.379 184.957 107.721 176.213C107.018 166.876 112.664 148.333 112.722 148.148C112.78 147.959 112.674 147.759 112.485 147.701C112.296 147.642 112.096 147.748 112.038 147.937C111.98 148.124 106.295 166.795 107.007 176.266C107.812 186.951 109.42 231.514 106.971 237.555C106.897 237.738 106.986 237.947 107.168 238.022C107.214 238.039 107.259 238.048 107.302 238.048V238.05Z" fill="#101C1C"/>
<path d="M99.4173 240.707C99.4409 240.707 99.4646 240.704 99.4883 240.7C99.6818 240.661 99.8066 240.472 99.7679 240.279C99.7377 240.132 96.7848 225.55 96.2557 221.292C96.2321 221.096 96.0514 220.956 95.8557 220.98C95.66 221.004 95.5202 221.182 95.5438 221.38C96.0751 225.664 99.0345 240.274 99.0646 240.421C99.099 240.59 99.2474 240.709 99.4151 240.709L99.4173 240.707Z" fill="#101C1C"/>
<path d="M99.4173 161.997C99.6151 161.997 99.7743 161.837 99.7743 161.64C99.7743 161.442 99.613 161.28 99.4173 161.28C98.6581 161.28 96.7504 160.28 96.0794 159.895C95.9073 159.796 95.6879 159.857 95.5911 160.027C95.4922 160.199 95.5524 160.418 95.7223 160.515C95.9869 160.667 98.3333 161.994 99.4173 161.994V161.997Z" fill="#101C1C"/>
<path d="M93.2748 186.132C93.3092 186.132 93.3458 186.126 93.3823 186.115C93.5114 186.074 96.5826 185.102 97.9096 183.807C99.2151 182.534 101.138 167.049 101.51 163.958C101.534 163.762 101.394 163.584 101.198 163.56C100.998 163.537 100.824 163.676 100.8 163.872C99.9506 170.933 98.2774 182.448 97.4106 183.293C96.2062 184.47 93.1995 185.42 93.1694 185.431C92.9801 185.491 92.8769 185.691 92.935 185.88C92.9823 186.033 93.1242 186.132 93.2769 186.132H93.2748Z" fill="#101C1C"/>
<path d="M112.642 155.383C112.803 155.383 112.95 155.273 112.988 155.112C113.623 152.57 114.401 149.757 114.623 149.391C114.745 149.266 114.76 149.069 114.653 148.927C114.535 148.768 114.309 148.737 114.152 148.856C114.038 148.942 113.73 149.172 112.294 154.94C112.246 155.131 112.362 155.327 112.554 155.375C112.582 155.381 112.612 155.385 112.64 155.385L112.642 155.383Z" fill="#101C1C"/>
<path d="M80.1726 59.7943C80.1726 59.7943 78.4714 64.8679 80.1726 69.5844C81.8738 74.3009 86.0914 76.628 90.4896 76.1506C94.8878 75.6731 102.947 57.8823 102.947 57.8823C102.947 57.8823 103.624 54.181 97.7332 52.8669C91.8424 51.5528 89.6938 53.226 89.6938 53.226C89.6938 53.226 92.5479 51.0775 90.4703 47.4944C87.1474 41.7627 77.1982 43.9134 78.9489 39.3754C80.3124 35.8439 85.6548 40.6938 93.1931 38.2613C98.5398 36.5365 99.5721 34.917 98.929 34.9191C98.929 34.9191 103.306 35.5557 107.525 33.805C111.743 32.0544 112.461 27.9938 112.461 27.9938C112.461 27.9938 109.513 30.6198 106.848 31.2564C104.183 31.8931 103.725 31.6543 103.725 31.6543C103.725 31.6543 105.854 26.4001 103.942 22.8987C102.03 19.3974 98.529 16.9283 94.1523 18.522C89.7756 20.1136 89.1368 24.4128 90.1713 27.5163C91.2058 30.6198 93.8125 32.5318 93.8125 32.5318C93.8125 32.5318 89.6938 33.7255 85.315 30.622C80.7038 27.3507 73.2172 27.5981 67.963 31.9748C62.7088 36.3536 60.9581 45.4275 64.6208 51.9528C68.2813 58.4802 75.4281 61.1859 80.1726 59.7922V59.7943Z" fill="#010101"/>
<path d="M123.643 158.175H123.649C123.847 158.17 124.004 158.007 124.002 157.809C124.002 157.742 123.882 151.122 123.882 150.811C123.882 150.613 123.72 150.454 123.525 150.454C123.329 150.454 123.168 150.613 123.168 150.811C123.168 151.129 123.284 157.549 123.288 157.822C123.292 158.018 123.452 158.173 123.645 158.173L123.643 158.175Z" fill="#101C1C"/>
<path d="M120.974 157.219C121.159 157.219 121.316 157.078 121.331 156.89L121.808 150.84C121.823 150.643 121.677 150.471 121.479 150.455C121.286 150.438 121.109 150.587 121.094 150.785L120.617 156.834C120.602 157.032 120.748 157.204 120.946 157.219C120.955 157.219 120.965 157.219 120.974 157.219Z" fill="#101C1C"/>
<path d="M145.49 155.383C145.505 155.383 145.52 155.383 145.535 155.381C145.731 155.355 145.871 155.177 145.845 154.981C145.634 153.329 145.299 150.626 145.29 150.411C145.283 150.217 145.124 150.06 144.933 150.06H144.926C144.731 150.064 144.574 150.219 144.574 150.415C144.574 150.658 145.002 154.041 145.133 155.071C145.157 155.252 145.309 155.383 145.488 155.383H145.49Z" fill="#101C1C"/>
<path d="M101.155 149.101C101.299 149.101 101.435 149.013 101.491 148.869C102.331 146.653 103.314 144.208 103.506 143.95C103.622 143.793 103.594 143.567 103.439 143.449C103.284 143.33 103.067 143.352 102.944 143.505C102.618 143.915 101.235 147.52 100.82 148.617C100.749 148.802 100.843 149.008 101.028 149.079C101.071 149.094 101.114 149.103 101.155 149.103V149.101Z" fill="#101C1C"/>
<path d="M101.871 142.296C101.871 142.296 82.0524 114.715 80.62 113.283C79.1876 111.85 49.4582 100.03 38.4745 88.33C27.4907 76.6301 16.7436 52.869 16.7436 52.869L21.3999 42.9585L32.3836 44.3908C32.3836 44.3908 50.2927 70.4188 54.949 74.359C59.6053 78.2991 81.4545 82.7167 84.5579 83.1941C87.6614 83.6716 94.7072 89.0441 94.7072 89.0441L111.423 84.2673L117.273 79.2519L116.556 72.804C116.556 72.804 135.659 43.3133 139.599 36.1493C143.539 28.9852 148.434 18.5973 148.434 18.5973L154.762 17.6423L161.21 25.0451C161.21 25.0451 155.598 45.8189 151.658 56.8048C147.718 67.7907 142.225 80.2068 141.391 83.6694C140.556 87.1321 140.436 90.356 140.436 90.356C140.436 90.356 143.182 95.3715 143.301 100.624C143.419 105.876 143.419 109.1 143.419 109.1C143.419 109.1 144.813 124.86 145.488 132.024C146.165 139.188 146.761 149.217 146.761 149.217C146.761 149.217 139.434 153.241 126.583 152.08C113.732 150.918 106.764 147.546 101.869 142.292L101.871 142.296Z" fill="#D92728"/>
<path d="M112.642 122.595C112.75 122.595 112.857 122.546 112.928 122.453C113.15 122.163 118.348 115.233 118.468 108.155C118.518 105.185 117.075 101.938 114.29 98.7653C112.203 96.3887 110.136 94.9069 110.048 94.8445C109.887 94.7305 109.663 94.7671 109.549 94.9284C109.435 95.0897 109.472 95.3134 109.633 95.4274C109.715 95.4854 117.866 101.372 117.752 108.142C117.636 114.99 112.412 121.952 112.358 122.021C112.238 122.178 112.27 122.404 112.427 122.522C112.492 122.572 112.569 122.595 112.644 122.595H112.642Z" fill="#C9141E"/>
<path d="M140.436 90.7172C140.481 90.7172 140.528 90.7086 140.571 90.6893C140.754 90.614 140.84 90.4032 140.765 90.2226C139.991 88.3493 138.068 86.5169 135.046 84.7791C132.822 83.4994 130.85 82.7703 130.768 82.7402C130.583 82.6714 130.377 82.766 130.308 82.9531C130.239 83.1381 130.334 83.3446 130.521 83.4134C130.598 83.4414 138.395 86.3534 140.105 90.4979C140.163 90.6355 140.296 90.7194 140.436 90.7194V90.7172Z" fill="#C9141E"/>
<path d="M79.6629 103.133C79.7597 103.133 79.8586 103.095 79.9296 103.015C80.0629 102.869 80.05 102.641 79.9038 102.51C79.5167 102.159 76.069 99.0814 74.5592 98.9567C74.3614 98.9395 74.1893 99.0857 74.1721 99.2836C74.1549 99.4815 74.3012 99.6535 74.499 99.6707C75.5744 99.7611 78.4176 102.135 79.422 103.043C79.4908 103.105 79.5769 103.136 79.6629 103.136V103.133Z" fill="#101C1C"/>
<path d="M105.573 149.101C105.633 149.101 105.695 149.086 105.751 149.053C105.923 148.955 105.981 148.735 105.882 148.565L102.181 142.117C102.082 141.945 101.863 141.887 101.693 141.986C101.521 142.085 101.463 142.304 101.562 142.474L105.263 148.922C105.33 149.038 105.45 149.103 105.575 149.103L105.573 149.101Z" fill="#101C1C"/>
<path d="M148.434 18.6017C148.434 18.6017 153.807 4.33384 156.254 1.88632C158.702 -0.5612 161.569 0.27543 161.569 0.27543C161.569 0.27543 162.702 -0.238592 163.539 0.137784C164.375 0.51416 164.614 1.35079 164.614 1.35079C164.614 1.35079 167.062 1.17228 167.539 2.84339L168.017 4.5145C168.017 4.5145 170.286 4.33599 170.582 6.12539C170.881 7.91694 170.582 8.63313 170.582 8.63313C170.582 8.63313 172.673 8.63313 171.776 11.6183C170.881 14.6035 168.253 16.5134 166.761 17.2296C165.268 17.9457 163.715 17.6468 163.715 17.6468L161.207 25.0496C161.207 25.0496 158.343 24.6323 154.342 22.7225C150.342 20.8127 148.432 18.6039 148.432 18.6039L148.434 18.6017Z" fill="#9E4F2B"/>
<path d="M159.24 15.6765C159.345 15.6765 159.45 15.6292 159.521 15.5389C159.622 15.4098 162.005 12.3386 161.56 10.1126C161.225 8.43935 161.453 7.36614 161.526 7.0887C162.025 6.58543 164.969 3.52926 164.969 1.34843C164.969 1.15056 164.808 0.989258 164.612 0.989258C164.416 0.989258 164.253 1.15056 164.253 1.34843C164.253 3.03674 161.874 5.7445 160.958 6.64565C160.919 6.68436 160.889 6.73168 160.87 6.7833C160.85 6.83491 160.425 8.09524 160.857 10.2546C161.238 12.1601 158.979 15.0679 158.956 15.098C158.833 15.2528 158.861 15.4787 159.016 15.6012C159.083 15.6529 159.16 15.6765 159.237 15.6765H159.24Z" fill="#101C1C"/>
<path d="M155.837 5.52952C155.949 5.52952 156.061 5.47575 156.13 5.37681C157.218 3.83045 161.44 0.714055 161.483 0.683945C161.642 0.567806 161.676 0.34198 161.558 0.182827C161.442 0.0236736 161.216 -0.0107379 161.057 0.107552C160.881 0.238746 156.697 3.32503 155.545 4.96603C155.431 5.12733 155.469 5.35101 155.631 5.46499C155.693 5.51016 155.764 5.52952 155.837 5.52952Z" fill="#101C1C"/>
<path d="M165.866 11.1406C165.984 11.1406 166.1 11.0825 166.169 10.975C167.864 8.3124 168.352 4.71209 168.371 4.56154C168.397 4.36583 168.26 4.18517 168.064 4.15936C167.868 4.13355 167.688 4.2712 167.662 4.46691C167.657 4.50348 167.174 8.06292 165.565 10.59C165.459 10.7578 165.507 10.9771 165.674 11.0847C165.735 11.1234 165.799 11.1406 165.866 11.1406Z" fill="#101C1C"/>
<path d="M165.866 13.8269C165.907 13.8269 165.948 13.8204 165.986 13.8054C169.447 12.5709 170.858 8.91466 170.918 8.7598C170.987 8.57484 170.894 8.36837 170.709 8.2974C170.524 8.22858 170.318 8.32106 170.247 8.50602C170.234 8.54043 168.888 12.0095 165.745 13.1301C165.558 13.1967 165.462 13.4011 165.528 13.5882C165.58 13.7344 165.717 13.8269 165.866 13.8269Z" fill="#101C1C"/>
<path d="M32.3837 44.3909C32.3837 44.3909 28.3231 39.6141 27.7274 38.4807C27.1295 37.3473 26.9509 30.7209 26.2348 28.8691C25.5186 27.0195 20.0256 23.0192 19.4901 21.8255C18.9546 20.6319 16.206 18.3629 14.894 19.0188C13.5821 19.6748 12.7454 21.7653 13.2831 23.0794C13.8208 24.3935 12.8057 22.6622 10.956 23.6171C9.10643 24.572 10.0613 26.5421 10.0613 26.5421C10.0613 26.5421 8.62896 25.6474 7.25465 26.9593C5.88249 28.2734 6.47825 30.422 6.47825 30.422C6.47825 30.422 4.98564 29.467 4.26945 30.6005C3.55326 31.7339 3.73177 32.6888 3.73177 32.6888C3.73177 32.6888 0.38955 32.8673 0.0303803 35.7923C-0.32879 38.7173 2.53813 42.3004 6.59653 45.0447C10.6549 47.789 14.1176 48.0299 14.1176 48.0299L16.7436 52.8647C16.7436 52.8647 20.3848 52.327 26.295 49.5225C32.2052 46.7158 32.3837 44.3887 32.3837 44.3887V44.3909Z" fill="#9E4F2B"/>
<path d="M18.5394 33.861C19.0943 33.861 19.561 33.6717 19.9245 33.2975C20.3331 32.8803 20.5181 32.3533 20.4772 31.7318C20.2815 28.7831 14.752 24.4129 14.5176 24.2279C14.3628 24.1053 14.1369 24.1333 14.0143 24.2881C13.8917 24.443 13.9197 24.6688 14.0746 24.7914C14.0875 24.8022 15.4876 25.9033 16.8877 27.3314C18.6986 29.1746 19.6922 30.7145 19.7632 31.7791C19.7912 32.1942 19.675 32.5275 19.4126 32.7964C19.1718 33.0437 18.8664 33.1577 18.4749 33.1405C16.1866 33.0566 12.0378 28.6971 10.6313 27.0238C10.5044 26.8733 10.2785 26.8539 10.1258 26.9808C9.97528 27.1077 9.95378 27.3336 10.0828 27.4863C10.2979 27.7422 15.3757 33.7427 18.4491 33.8567C18.4814 33.8567 18.5115 33.8567 18.5416 33.8567L18.5394 33.861Z" fill="#101C1C"/>
<path d="M15.0059 36.6911C15.236 36.6911 15.436 36.6653 15.5952 36.6137C16.8705 36.2115 17.4641 34.8587 17.4878 34.8006C17.5652 34.6178 17.4813 34.4092 17.2985 34.3296C17.1179 34.2522 16.9071 34.3361 16.8275 34.5167C16.8211 34.5318 16.3329 35.6265 15.3779 35.9297C14.5263 36.1986 10.4184 35.1856 7.11487 30.8605C6.99443 30.7035 6.77076 30.6734 6.61376 30.7938C6.45676 30.9143 6.42665 31.1379 6.54709 31.2949C9.47207 35.1254 13.2143 36.6889 15.0059 36.6889V36.6911Z" fill="#101C1C"/>
<path d="M11.3969 39.9474C11.6679 39.9474 11.911 39.9087 12.1196 39.8334C13.767 39.2291 13.9843 37.6978 13.9929 37.6332C14.0187 37.4375 13.881 37.2569 13.6832 37.2311C13.4853 37.2031 13.3089 37.3429 13.281 37.5386C13.2724 37.5902 13.0982 38.7108 11.8701 39.1603C10.6012 39.627 6.73202 37.9881 4.15761 33.3297C4.06298 33.1554 3.84362 33.0931 3.67156 33.1899C3.4995 33.2866 3.43498 33.5039 3.53176 33.6759C5.83303 37.8376 9.38172 39.9474 11.3948 39.9474H11.3969Z" fill="#101C1C"/>
<path d="M7.92995 41.9692C9.48277 41.9692 10.1473 41.025 10.2828 40.4787C10.3302 40.2873 10.214 40.0916 10.0226 40.0443C9.83118 39.997 9.63761 40.111 9.58815 40.3024C9.57309 40.354 9.2548 41.4272 7.52777 41.2315C5.59642 41.01 2.82844 37.9172 2.80048 37.8871C2.66928 37.7387 2.44131 37.7258 2.29506 37.857C2.14666 37.9882 2.13376 38.214 2.26495 38.3624C2.38539 38.4979 5.24585 41.6917 7.44604 41.9434C7.61595 41.9627 7.7751 41.9713 7.9278 41.9713L7.92995 41.9692Z" fill="#101C1C"/>
<path d="M13.638 39.6764C13.7089 39.6764 13.7821 39.6549 13.8444 39.6119C15.8554 38.1989 17.7781 38.9602 17.8598 38.9925C18.0426 39.0678 18.2513 38.9796 18.3265 38.7989C18.4018 38.6183 18.3158 38.4075 18.133 38.3322C18.0383 38.2935 15.7736 37.3794 13.4315 39.0269C13.2702 39.1409 13.2315 39.3646 13.3433 39.5259C13.4121 39.6248 13.524 39.6786 13.6358 39.6786L13.638 39.6764Z" fill="#101C1C"/>
<path d="M14.5886 48.4341C15.5435 48.4341 16.2446 47.9609 16.735 47.6297C16.8877 47.5265 17.0963 47.3867 17.1673 47.3759C17.3652 47.3759 17.5222 47.2167 17.5222 47.0189C17.5222 46.821 17.3565 46.6619 17.1587 46.6619C16.8941 46.6619 16.6468 46.8275 16.335 47.0382C15.8231 47.3824 15.1241 47.8534 14.1778 47.6813C13.9842 47.6469 13.7971 47.7759 13.7605 47.9695C13.724 48.1631 13.8552 48.3502 14.0488 48.3867C14.2359 48.4212 14.4144 48.4362 14.5864 48.4362L14.5886 48.4341Z" fill="#101C1C"/>
<path d="M92.9156 82.1208C92.9156 82.1208 85.1795 83.4133 81.1297 82.5509C77.0799 81.6885 86.2312 98.1178 101.871 94.5369C117.511 90.9559 123.004 81.4024 121.572 76.7461C120.139 72.0898 116.556 72.806 116.556 72.806L111.9 77.701L108.08 78.2989L105.811 76.1504C105.811 76.1504 109.631 71.494 106.289 64.6892L102.947 57.8843C102.947 57.8843 99.1656 55.7744 92.9565 58.6413C86.7474 61.5083 92.0812 67.0786 91.2854 67.954C90.4896 68.8293 89.853 68.2723 89.853 68.2723C89.853 68.2723 88.0228 66.999 86.8291 69.068C85.6355 71.137 88.2615 72.4103 88.9777 72.1715L89.6939 71.9328C89.6939 71.9328 91.1262 73.2856 90.8079 74.718L90.4896 76.1504L92.9178 82.1208H92.9156Z" fill="#9E4F2B"/>
<path d="M94.7072 85.7428C94.7696 85.7428 94.8341 85.7255 94.8922 85.6911C95.0621 85.59 95.1158 85.3685 95.0147 85.1986C94.9997 85.175 93.591 82.8242 93.249 81.9854C93.1737 81.8026 92.9673 81.7123 92.7823 81.7876C92.5995 81.8629 92.5113 82.0715 92.5866 82.2543C92.9501 83.1468 94.3437 85.4696 94.4018 85.5664C94.4685 85.6782 94.5868 85.7406 94.7093 85.7406L94.7072 85.7428Z" fill="#101C1C"/>
<path d="M109.592 80.1702C109.685 80.1702 109.775 80.1358 109.846 80.0648C109.986 79.925 109.986 79.6992 109.846 79.5572L108.334 78.0453C108.194 77.9055 107.969 77.9055 107.829 78.0453C107.689 78.1851 107.689 78.4109 107.829 78.5528L109.341 80.0648C109.412 80.1358 109.502 80.1702 109.594 80.1702H109.592Z" fill="#101C1C"/>
<path d="M111.9 78.0602C111.919 78.0602 111.937 78.0602 111.956 78.0559C113.294 77.8473 119.06 76.4966 119.305 76.4407C119.499 76.3955 119.617 76.202 119.572 76.0106C119.526 75.8191 119.335 75.6987 119.141 75.7439C119.081 75.7589 113.156 77.144 111.844 77.3483C111.648 77.3784 111.515 77.5612 111.545 77.7569C111.573 77.9333 111.726 78.0602 111.898 78.0602H111.9Z" fill="#101C1C"/>
<path d="M101.557 78.3013C102.476 78.3013 103.243 78.1141 103.839 77.8862C105.282 77.3313 106.052 76.4194 106.085 76.3828C106.211 76.2301 106.19 76.0043 106.039 75.8774C105.887 75.7505 105.663 75.772 105.536 75.9226C105.422 76.0581 102.738 79.1422 97.8989 76.5828C97.7247 76.4903 97.5075 76.557 97.415 76.7312C97.3225 76.9054 97.3892 77.1227 97.5634 77.2151C99.0968 78.026 100.439 78.3013 101.557 78.3013Z" fill="#101C1C"/>
<path d="M103.424 68.5089C103.461 68.5089 103.499 68.5025 103.538 68.4896C104.052 68.3175 104.129 67.4206 104.059 66.9776C103.953 66.3302 103.547 66.2808 103.424 66.2808C103.153 66.2808 101.929 65.9323 101.476 65.4635C101.413 65.399 101.338 65.3043 101.34 65.2183C101.346 65.0204 101.192 64.8548 100.994 64.8505C100.796 64.8441 100.63 65.0011 100.624 65.1968C100.615 65.4656 100.729 65.7237 100.961 65.9625C101.536 66.5561 102.813 66.9453 103.329 66.9926C103.398 67.1819 103.362 67.6852 103.263 67.8314C103.106 67.9089 103.028 68.0938 103.084 68.2637C103.134 68.4143 103.274 68.5089 103.424 68.5089Z" fill="#101C1C"/>
<path d="M93.8125 66.8378C93.9265 66.8378 94.0405 66.7819 94.1093 66.6808C95.1029 65.2162 96.5654 65.3194 96.6278 65.3237C96.8235 65.3409 96.9977 65.1947 97.0149 64.9989C97.0321 64.8032 96.888 64.629 96.6923 64.6118C96.6127 64.6032 94.7566 64.4527 93.5178 66.2808C93.406 66.4442 93.449 66.6679 93.6125 66.7776C93.6748 66.8184 93.7437 66.84 93.8125 66.84V66.8378Z" fill="#101C1C"/>
<path d="M101.194 63.9323C101.319 63.9323 101.439 63.8678 101.503 63.7538C101.798 63.244 102.665 62.9601 103.893 62.9774H103.938C104.136 62.9774 104.295 62.8182 104.295 62.6203C104.295 62.4225 104.134 62.2612 103.938 62.2612H103.902C102.394 62.2354 101.316 62.644 100.882 63.3946C100.783 63.5667 100.841 63.786 101.013 63.8828C101.069 63.9151 101.131 63.9301 101.192 63.9301L101.194 63.9323Z" fill="#101C1C"/>
<path d="M103.304 70.5779H99.5635C99.5635 70.5779 99.8022 72.8856 101.772 72.6469C103.742 72.4081 103.304 70.5779 103.304 70.5779Z" fill="white"/>
<path d="M102.732 59.5125C102.972 59.6072 103.231 59.8115 103.183 60.0674C102.437 60.2545 101.693 60.4416 100.946 60.6288C100.875 60.646 100.802 60.6653 100.729 60.6546C100.536 60.6309 100.413 60.4072 100.439 60.2137C100.465 60.0201 100.602 59.8588 100.755 59.7362C101.31 59.291 102.08 59.2545 102.729 59.5104L102.732 59.5125Z" fill="#643B37"/>
<path d="M94.2685 61.9429C94.3265 61.9494 94.3846 61.958 94.4362 61.9859C94.5717 62.0634 94.5889 62.2655 94.5136 62.4032C94.4384 62.5408 94.2964 62.6268 94.1631 62.7086C93.8448 62.9 93.5286 63.0936 93.2103 63.285C92.9802 63.4248 92.7457 63.5689 92.5823 63.7796C92.307 64.1388 92.0123 64.113 91.8704 63.6872C91.7349 63.2764 91.8962 63.0656 92.1672 62.8097C92.7866 62.2247 93.3845 61.8526 94.2685 61.9429Z" fill="#643B37"/>
<path d="M97.2171 67.5003C97.6128 67.4831 98.0365 67.638 98.2494 67.9735C98.3785 68.1778 98.4193 68.4294 98.4129 68.6703C98.4 69.2424 98.1376 69.8059 97.7074 70.1844C97.2773 70.5629 96.6858 70.75 96.1159 70.6898C95.9998 70.6769 95.8836 70.6554 95.7804 70.6038C94.2426 69.8446 96.0471 67.5498 97.2171 67.5003Z" fill="#8C411F"/>
<path d="M104.37 65.8463C104.28 65.7732 104.196 65.6893 104.138 65.5904C103.54 64.5667 104.682 63.8096 105.775 63.6418C105.938 63.9731 106.108 64.3193 106.289 64.6892C106.502 65.1237 106.687 65.5517 106.844 65.9689C106.583 66.1431 106.287 66.2614 105.977 66.3023C105.409 66.3797 104.813 66.212 104.37 65.8463Z" fill="#8C411F"/>
<path d="M80.6974 59.3168C80.8135 59.3168 80.9254 59.2608 80.9942 59.1598C83.5213 55.4089 88.5518 53.826 88.6034 53.8088C88.7927 53.7507 88.8981 53.5507 88.84 53.3614C88.7819 53.1722 88.5798 53.0668 88.3927 53.1248C88.1754 53.1915 83.0675 54.8002 80.4006 58.7597C80.2909 58.9232 80.3339 59.1469 80.4974 59.2565C80.5597 59.2974 80.6286 59.3168 80.6974 59.3168Z" fill="#101C1C"/>
<path d="M98.9269 35.2781C99.1076 35.2781 99.2624 35.1426 99.2818 34.9598C99.3033 34.7641 99.1613 34.5856 98.9656 34.5641C98.9355 34.5598 95.9761 34.2157 94.0663 32.28C93.9265 32.1402 93.7007 32.1381 93.5609 32.2757C93.4189 32.4155 93.4189 32.6414 93.5566 32.7812C95.6492 34.9018 98.7548 35.2588 98.886 35.2738C98.8989 35.2738 98.9119 35.276 98.9248 35.276L98.9269 35.2781Z" fill="#101C1C"/>
<path d="M103.31 32.0241C103.555 32.0241 103.708 32.0155 103.742 32.0133C103.94 32.0026 104.091 31.8327 104.08 31.6348C104.069 31.4369 103.904 31.2885 103.701 31.2971C103.654 31.2993 98.8215 31.538 96.6493 28.8044C95.718 27.6345 95.404 26.0902 95.8299 24.774C96.0987 23.9417 96.7826 22.8491 98.5096 22.3673C99.5248 22.0835 100.499 22.2275 101.323 22.7846C102.439 23.5395 103.166 24.9762 103.368 26.8279C103.39 27.0237 103.57 27.1656 103.764 27.1462C103.96 27.1247 104.104 26.9484 104.082 26.7505C103.858 24.6858 103.022 23.0685 101.727 22.191C100.738 21.5221 99.5291 21.3393 98.3204 21.677C96.7353 22.12 95.6083 23.1395 95.1524 24.5525C94.6534 26.0924 95.0126 27.8925 96.0922 29.2496C98.1182 31.7961 102.009 32.0219 103.314 32.0219L103.31 32.0241Z" fill="#101C1C"/>
<path d="M79.635 53.2819C79.8737 53.2819 80.0845 53.2604 80.2608 53.2152C80.4522 53.1658 80.5684 52.9722 80.5211 52.7808C80.4737 52.5894 80.2759 52.4733 80.0866 52.5206C78.8865 52.826 75.3873 51.7227 72.858 49.3698C71.0794 47.7159 69.1179 44.8576 69.8707 40.6335C71.2321 32.9791 78.865 32.8888 79.1898 32.8888C79.3876 32.8888 79.5489 32.7296 79.5489 32.5318C79.5489 32.3339 79.3898 32.1748 79.1919 32.1726C79.0951 32.1726 70.6363 32.2608 69.1674 40.5066C68.3587 45.0468 70.4643 48.118 72.372 49.8924C74.813 52.1635 77.9466 53.2798 79.6393 53.2798L79.635 53.2819Z" fill="#101C1C"/>
</svg>
