<svg width="169" height="126" viewBox="0 0 169 126" fill="none" xmlns="http://www.w3.org/2000/svg">
<path d="M6.03139 108.632C6.03139 108.632 -10.1754 73.1166 10.5443 47.0786C31.2641 21.0415 48.5085 32.2619 58.1254 34.7433C67.167 34.0203 70.0661 11.2158 96.8136 4.33821C123.561 -2.53934 166.722 5.03879 143.16 53.8607C129.163 82.8628 172.158 69.624 166.131 108.706L6.03057 108.631L6.03139 108.632Z" fill="#FFE9EB"/>
<path d="M169 108.682V108.943C169 109.093 168.902 109.214 168.783 109.214H2.31098C2.19128 109.214 2.09387 109.093 2.09387 108.943V108.682C2.09387 108.533 2.19128 108.411 2.31098 108.411H168.782C168.901 108.411 168.999 108.533 168.999 108.682H169Z" fill="black"/>
<path d="M114.793 40.4745C114.793 40.4745 122.466 38.738 124.177 40.1779C125.888 41.6178 129.233 66.8993 129.233 66.8993C129.233 66.8993 124.556 56.747 123.14 51.6893C121.654 46.3769 114.793 40.4745 114.793 40.4745Z" fill="#911922"/>
<path d="M129.231 66.8977C129.044 66.695 109.821 45.914 109.694 43.9179C109.567 41.9128 114.276 39.697 120.57 39.6321C120.57 39.6321 115.934 43.0292 116.128 44.2075C116.475 46.3184 119.583 48.1039 122.022 53.6009C124.889 60.0636 129.171 66.8019 129.231 66.8967V66.8977Z" fill="#A72024"/>
<path d="M129.226 66.8935C129.119 66.8096 127.823 65.8071 125.844 64.3622C125.842 64.3612 125.84 64.3592 125.838 64.3582C119.892 60.0204 107.78 51.7094 103.032 52.3086C100.99 52.5652 98.8606 53.365 96.967 54.3945C92.9187 56.5924 89.9432 59.8337 91.1826 61.0579C93.0024 62.8543 116.748 60.306 129.235 66.8985C129.233 66.8965 129.231 66.8945 129.228 66.8935H129.226ZM98.3401 58.6474C98.3401 58.6474 102.324 56.828 103.715 56.9439C105.106 57.0597 115.069 59.3045 116.246 60.295C117.421 61.2856 98.3411 58.6474 98.3411 58.6474H98.3401Z" fill="#A72024"/>
<path d="M129.232 66.8982C116.746 60.3057 93.0002 62.8531 91.1794 61.0577C89.94 59.8344 92.9154 56.5931 96.9638 54.3953C96.913 54.4462 94.4759 56.8557 96.6337 57.366C98.625 57.8363 113.602 56.3654 125.836 64.3579C125.837 64.3579 125.84 64.3609 125.842 64.3619C126.999 65.1178 128.13 65.9576 129.224 66.8932C129.226 66.8942 129.228 66.8962 129.231 66.8982H129.232Z" fill="#911922"/>
<path d="M129.116 66.8864C129.116 66.8864 135.116 55.0126 134.281 48.5199C134.281 48.5199 132.817 50.1136 132.318 50.3902C132.318 50.3902 131.083 48.5349 130.992 48.2932C130.902 48.0516 131.082 48.5349 131.082 48.5349C131.082 48.5349 128.604 63.0889 129.116 66.8864Z" fill="#911922"/>
<path d="M129.233 66.8994C129.233 66.8994 134.291 55.3691 146.415 55.427C146.415 55.427 144.394 57.2174 144.38 57.9354C144.38 57.9354 146.54 58.5365 147.187 58.6094C147.187 58.6094 136.414 60.6464 130.591 67.0522L129.233 66.9004V66.8994Z" fill="#A72024"/>
<path d="M83.651 124.335H139.789V70.3616H83.651V124.335Z" fill="#A51C2D"/>
<path d="M111.72 124.335H167.857V70.3616H111.72V124.335Z" fill="#D92728"/>
<path d="M111.719 70.3606H168.002V87.5218L111.719 124.334V70.3606Z" fill="#BC2A35"/>
<path d="M111.719 64.8137H82.4664V74.1712H111.719V64.8137Z" fill="#CE4552"/>
<path d="M169 64.8137H111.719V74.1712H169V64.8137Z" fill="#E2444C"/>
<path d="M143.363 64.8137H139.023V124.409H143.363V64.8137Z" fill="#A72024"/>
<path d="M99.8546 64.8137H95.515V124.284H99.8546V64.8137Z" fill="#911922"/>
<path d="M44.7336 80.4539C44.7336 80.4539 40.7152 79.5442 39.8187 80.2991C38.9223 81.053 37.1703 94.2949 37.1703 94.2949C37.1703 94.2949 39.6203 88.9776 40.3612 86.3284C41.14 83.5464 44.7326 80.4549 44.7326 80.4549L44.7336 80.4539Z" fill="#A51C2D"/>
<path d="M37.1713 94.2941C37.2701 94.1882 47.3372 83.3039 47.404 82.2584C47.4708 81.208 45.0049 80.0476 41.7073 80.0137C41.7073 80.0137 44.1354 81.7931 44.0337 82.4102C43.8522 83.5156 42.2239 84.4513 40.9465 87.3301C39.4448 90.7152 37.2023 94.2441 37.1703 94.2941H37.1713Z" fill="#D92728"/>
<path d="M37.1714 94.294C43.7116 90.841 56.1479 92.1761 57.1012 91.2344C57.7503 90.5933 56.1918 88.8958 54.0719 87.7454C53.0797 87.2062 51.9649 86.7868 50.895 86.653C48.4081 86.3395 42.0633 90.6922 38.9503 92.9639C38.9503 92.9639 38.9483 92.9649 38.9473 92.9659C37.9103 93.7228 37.2322 94.2481 37.1754 94.292C37.1744 94.292 37.1734 94.294 37.1714 94.294ZM43.9739 90.836C44.5901 90.3177 49.8081 89.1414 50.537 89.0805C51.2649 89.0196 53.352 89.9732 53.352 89.9732C53.352 89.9732 43.3576 91.3552 43.9739 90.836Z" fill="#D92728"/>
<path d="M37.1713 94.2937C43.7116 90.8407 56.1479 92.1757 57.1012 91.2341C57.7503 90.593 56.1918 88.8955 54.0718 87.7451C54.0988 87.7721 55.3751 89.0343 54.2444 89.3009C53.2013 89.5475 45.3569 88.7766 38.9492 92.9626C38.9492 92.9626 38.9472 92.9636 38.9463 92.9646C38.341 93.361 37.7477 93.8004 37.1743 94.2907C37.1733 94.2907 37.1723 94.2927 37.1703 94.2927L37.1713 94.2937Z" fill="#A51C2D"/>
<path d="M37.2323 94.2879C37.2323 94.2879 34.3066 90.02 34.8561 87.6145C34.8561 87.6145 35.592 88.1757 35.8482 88.2685C35.8482 88.2685 36.5253 87.5636 36.5761 87.4737C36.627 87.3828 36.5253 87.5646 36.5253 87.5646C36.5253 87.5646 37.5663 92.8809 37.2332 94.2879H37.2323Z" fill="#A51C2D"/>
<path d="M37.1704 94.295C37.1704 94.295 32.9286 85.3049 22.5274 85.4527C22.5274 85.4527 24.2465 86.8387 24.2525 87.4009C24.2525 87.4009 22.3948 87.8902 21.8384 87.9521C21.8384 87.9521 31.0629 89.457 36.0037 94.4258L37.1704 94.296V94.295Z" fill="#D92728"/>
<path d="M61.0449 96.1072H31.6423V124.375H61.0449V96.1072Z" fill="#B54139"/>
<path d="M46.3441 96.1072H16.9415V124.375H46.3441V96.1072Z" fill="#E57970"/>
<path d="M46.3461 96.1355H16.8677V105.124L46.3461 124.404V96.1355Z" fill="#D6675C"/>
<path d="M46.3441 98.1033H61.6652V93.2023H46.3441V98.1033Z" fill="#D35950"/>
<path d="M16.3432 98.1033H46.3441V93.2023H16.3432V98.1033Z" fill="#E57970"/>
<path d="M29.7706 124.415H32.0431L32.0431 93.2013H29.7706L29.7706 124.415Z" fill="#E2444C"/>
<path d="M54.8307 93.2024H52.5582V124.35H54.8307V93.2024Z" fill="#BC2A35"/>
<path d="M10.104 98.374C10.104 98.374 12.5021 97.8308 13.0366 98.2812C13.5711 98.7315 14.6171 106.633 14.6171 106.633C14.6171 106.633 13.1552 103.46 12.7125 101.879C12.2479 100.218 10.104 98.374 10.104 98.374Z" fill="#A51C2D"/>
<path d="M14.617 106.633C14.5582 106.569 8.55044 100.074 8.51056 99.4504C8.47067 98.8233 9.94245 98.1313 11.9098 98.1113C11.9098 98.1113 10.461 99.1728 10.5218 99.5413C10.6305 100.201 11.6017 100.76 12.3645 102.477C13.2609 104.497 14.5991 106.603 14.618 106.633H14.617Z" fill="#D92728"/>
<path d="M14.6152 106.632C14.5812 106.606 14.1764 106.292 13.5582 105.841C13.5582 105.841 13.5562 105.841 13.5562 105.84C11.6975 104.484 7.91239 101.887 6.42765 102.074C5.78948 102.153 5.12339 102.404 4.53209 102.726C3.26672 103.413 2.33639 104.426 2.72428 104.809C3.29265 105.37 10.7153 104.574 14.6171 106.634C14.6171 106.634 14.6161 106.633 14.6152 106.633V106.632ZM4.96185 104.055C4.96185 104.055 6.20728 103.485 6.64203 103.522C7.07679 103.558 10.1908 104.26 10.5588 104.57C10.9267 104.879 4.96285 104.055 4.96285 104.055H4.96185Z" fill="#D92728"/>
<path d="M14.6172 106.633C10.7144 104.573 3.29268 105.369 2.72431 104.808C2.33742 104.425 3.26675 103.412 4.53212 102.726C4.51617 102.742 3.75435 103.494 4.42942 103.654C5.05163 103.801 9.7332 103.342 13.5572 105.84C13.5572 105.84 13.5582 105.84 13.5592 105.841C13.9202 106.078 14.2742 106.34 14.6162 106.632C14.6162 106.632 14.6172 106.632 14.6182 106.633H14.6172Z" fill="#A51C2D"/>
<path d="M14.5812 106.629C14.5812 106.629 16.3272 104.082 15.9992 102.647C15.9992 102.647 15.5594 102.982 15.4079 103.037C15.4079 103.037 15.004 102.617 14.9731 102.563C14.9422 102.509 15.004 102.617 15.004 102.617C15.004 102.617 14.3828 105.789 14.5812 106.629Z" fill="#A51C2D"/>
<path d="M14.6171 106.634C14.6171 106.634 17.1488 101.268 23.355 101.357C23.355 101.357 22.3299 102.184 22.3259 102.52C22.3259 102.52 23.4348 102.811 23.7668 102.848C23.7668 102.848 18.2626 103.746 15.3141 106.712L14.6181 106.634H14.6171Z" fill="#D92728"/>
<path d="M17.9157 107.715H0.370056V124.585H17.9157V107.715Z" fill="#931925"/>
<path d="M26.6905 107.715H9.14386V124.585H26.6905V107.715Z" fill="#A72024"/>
<path d="M9.14386 107.715H26.7344V113.079L9.14386 124.585V107.715Z" fill="#991922"/>
<path d="M9.14276 105.982H0V108.906H9.14276V105.982Z" fill="#CE4552"/>
<path d="M27.0475 105.982H9.14386V108.906H27.0475V105.982Z" fill="#E2444C"/>
<path d="M19.0334 105.982H17.6773V124.609H19.0334V105.982Z" fill="#E2444C"/>
<path d="M5.43442 105.982H4.07831V124.569H5.43442V105.982Z" fill="#BC2A35"/>
<path d="M79.9247 36.525C80.3754 32.7285 76.0787 28.8631 76.0787 28.8631C76.0787 28.8631 73.1711 28.8701 72.9836 28.5226C72.8989 28.3648 72.8241 28.2051 72.7563 28.0433C72.0064 26.2419 72.2936 24.3017 72.2936 24.3017L66.7335 24.072C66.7834 24.746 66.8223 25.3222 66.8532 25.8225C66.9579 27.534 65.894 29.1058 64.2636 29.63C62.742 30.1203 61.4318 30.7005 61.337 31.0579C60.8574 32.8793 65.4173 45.4102 63.8488 46.6325C62.8058 47.4443 61.8516 48.2202 60.985 48.9521C56.6425 52.6158 56.9935 59.4729 61.7518 62.5755C61.8027 62.6084 61.8536 62.6404 61.9024 62.6713L58.9339 60.841C58.9339 60.841 56.6894 78.2019 59.8413 86.8614C60.6161 88.9913 59.0556 92.9067 58.9339 93.4449C56.9077 102.428 65.0424 120.681 65.0424 120.681C64.3973 122.613 64.6745 124.175 64.6745 124.175H74.8921C74.6668 123.289 73.3964 123.088 71.9905 122.806C70.5835 122.524 67.8374 120.68 67.8374 120.68C67.8374 120.68 66.6468 99.2505 68.2761 93.8953C69.2284 90.7658 71.1987 80.6324 72.6735 72.7498C72.7283 72.4572 72.7822 72.1676 72.835 71.882C73.8402 66.4868 74.1692 60.9838 73.7664 55.5097C73.6617 54.0847 73.6098 52.7916 73.6786 52.0237C73.904 49.5083 79.475 40.3226 79.9247 36.526V36.525Z" fill="#F7A89A"/>
<path d="M98.0527 15.5593C98.0527 15.5593 98.7616 14.7615 99.1894 14.1853C99.6172 13.6101 99.7678 12.8952 99.9283 12.296C100.089 11.6979 101.268 11.64 101.486 11.2995C101.703 10.959 101.351 10.5855 100.658 10.4008C99.9652 10.216 97.1772 10.8311 97.0795 12.0234C96.9818 13.2157 96.2169 14.7265 96.2169 14.7265C95.2946 15.78 87.7393 24.4016 85.4 26.889C81.8292 30.6875 74.8263 29.9525 74.8263 29.9525L74.1971 34.4361C74.1971 34.4361 86.0322 32.0415 88.5988 30.1962C90.5083 28.8222 97.3248 16.8425 98.0527 15.5573V15.5593Z" fill="#F7A89A"/>
<path d="M38.341 38.7968C38.341 38.7968 43.0904 40.6481 47.3671 35.864C47.2674 36.0168 44.3697 40.4744 41.8898 41.2812C42.2089 41.5049 42.517 41.7405 42.8152 41.9832C44.0885 43.0107 45.1983 44.1381 46.4447 44.8111C46.4457 44.8111 46.4457 44.8121 46.4467 44.8121C49.5399 46.4797 52.1952 47.2486 54.4328 47.3345C56.5497 46.3838 57.7692 44.3328 58.4563 42.5514C58.7873 42.2947 59.1154 42.0351 59.4365 41.7835C59.2879 44.3827 58.0953 46.1112 57.1959 47.0609C60.2661 46.271 62.2284 43.9094 63.1717 40.9587C63.2296 40.7799 63.2824 40.5982 63.3313 40.4155C63.3592 40.3166 63.3851 40.2187 63.4081 40.1199C63.5766 39.4419 63.6952 38.7409 63.763 38.0249C64.0004 35.5525 63.6554 32.9133 62.7639 30.5557C62.724 30.4488 62.6821 30.343 62.6403 30.2381C62.6373 30.2332 62.6363 30.2292 62.6353 30.2262C62.2803 29.3484 61.8505 28.5136 61.345 27.7447C60.4286 26.3488 60.2671 24.5154 60.4785 22.6561C60.9372 18.593 63.1698 14.408 63.1698 14.408C63.1698 14.408 62.8317 13.8558 62.0918 13.1848C60.6729 11.8986 57.7802 10.1741 52.968 11.0638C45.645 12.4169 43.1123 17.6363 43.9569 24.07C44.8005 30.5048 44.607 34.2264 39.723 35.915C39.7071 35.9209 39.6901 35.9259 39.6732 35.9329C38.3978 36.3803 37.9521 37.7223 38.34 38.7958L38.341 38.7968Z" fill="#032C33"/>
<path d="M66.7335 24.0713C66.7335 24.0713 67.1054 26.8263 72.7562 28.0436C72.0064 26.2422 72.2936 24.302 72.2936 24.302L66.7335 24.0723V24.0713Z" fill="#E88C80"/>
<path d="M74.1004 23.6318C74.1004 23.6318 68.6331 27.5931 66.222 24.1461C63.8109 20.6981 61.4816 18.8877 64.8699 16.2125C68.2592 13.5374 69.8645 14.3722 70.9484 15.3268C72.0323 16.2814 75.4595 22.5124 74.0994 23.6318H74.1004Z" fill="#F7A89A"/>
<path d="M71.3811 22.6361C71.3811 22.6361 71.7461 23.0096 72.7861 22.2886C72.7861 22.2886 73.6596 21.6835 73.3435 21.2222C73.3435 21.2222 72.2586 21.4139 71.3801 22.6361H71.3811Z" fill="white"/>
<path d="M69.8915 14.6299C69.8915 14.6299 71.9985 11.3237 68.5504 9.59417C62.758 6.68736 62.5346 14.4911 60.8036 15.0343C59.0716 15.5775 57.0344 19.0695 59.1304 21.498C61.2264 23.9265 63.9336 23.3503 64.494 24.5805C65.0544 25.8108 66.9141 25.2196 66.7834 24.7773C66.7326 24.6065 66.2799 24.3569 66.0256 23.7148C65.885 23.3603 66.2679 22.9619 66.1273 22.9569C64.7373 22.904 63.9057 20.782 65.3984 20.9358C66.8911 21.0896 67.5093 19.6616 67.4465 19.0705C67.3837 18.4793 65.9588 17.1183 67.282 16.3584C68.6062 15.5985 69.1397 15.6464 69.8905 14.6309L69.8915 14.6299Z" fill="#032C33"/>
<path d="M61.337 31.0569C61.337 31.0569 54.6223 39.4189 52.7218 40.3775C50.56 41.4679 41.9577 42.0641 40.1668 42.1779C40.1668 42.1779 39.1707 41.7964 38.3729 41.2572C37.5742 40.717 35.7824 42.1629 35.5491 42.6931C35.3157 43.2224 35.3726 43.6328 35.6956 43.6677C36.0187 43.7027 36.6499 42.9887 37.1076 43.1894C37.5653 43.3901 38.0898 43.6558 38.6671 43.6767C39.1567 43.6947 39.7719 43.6538 39.9484 43.6408C41.4242 43.9773 49.9388 45.8356 54.2554 44.9798C55.4868 44.7352 64.7941 37.2021 64.7941 37.2021L65.6517 29.5471L61.338 31.0599L61.337 31.0569Z" fill="#F7A89A"/>
<path d="M59.0216 50.6596C55.3382 52.2813 53.4466 56.7079 52.5771 60.4036C51.918 63.2075 51.7375 66.6545 51.7754 69.9048C51.8422 75.5886 50.6118 80.4446 50.6118 80.4446C50.6118 80.4446 47.6672 77.0615 43.1841 76.3116C31.9802 74.4373 28.0316 72.1746 27.517 71.856C27.3824 71.4816 27.195 70.9184 26.9606 70.1175C26.4641 68.417 26.1579 67.6841 23.9303 67.5203C21.7027 67.3555 19.4282 64.8152 18.9785 65.6041C18.5288 66.3929 21.1174 69.8869 22.0178 70.7886C22.9172 71.6903 25.6235 73.8292 25.6265 73.8322C33.2735 81.0218 45.8095 87.1959 51.0006 89.5835C52.3737 90.2155 54.002 89.7662 54.8566 88.517C60.2401 80.6473 72.4571 61.2753 72.4571 61.2753C72.4571 61.2753 67.9809 46.7163 59.0226 50.6596H59.0216Z" fill="#F7A89A"/>
<path d="M73.9339 55.5385C73.8292 54.1136 73.7604 52.8304 73.8292 52.0625L63.8489 46.6313C62.8059 47.4432 61.8516 48.2191 60.9851 48.951C56.6426 52.6147 56.9936 59.4718 61.7519 62.5743C61.8028 62.6073 61.8536 62.6392 61.9025 62.6702L57.5719 61.4589C57.5719 61.4589 55.3832 79.0955 58.5341 87.755C59.3089 89.8849 59.0546 92.9056 58.933 93.4428C56.9068 102.426 64.0792 119.558 64.0792 119.558L68.2493 119.926C68.2493 119.926 66.6449 99.2504 68.2752 93.8941C69.2274 90.7647 71.2895 80.6542 72.7633 72.7716C72.8181 72.479 72.882 72.1855 72.9348 71.8999C73.9399 66.5047 74.3358 61.0126 73.9329 55.5395L73.9339 55.5385Z" fill="#911922"/>
<path d="M59.0217 50.6595C55.3383 52.2812 53.4467 56.7078 52.5772 60.4034C51.9181 63.2074 51.7376 66.6544 51.7755 69.9047C51.8423 75.5885 50.6118 80.4445 50.6118 80.4445C50.6118 80.4445 47.6673 77.0614 43.1841 76.3115C31.9803 74.4372 30.1097 72.1715 29.5951 71.8529L25.9516 75.3639C33.82 82.7622 46.5385 87.5513 51.4315 89.78C52.7367 90.3752 54.2773 89.9977 55.1628 88.8674C60.8903 81.5509 73.7375 55.1141 73.7375 55.1141C73.7375 55.1141 67.98 46.7152 59.0217 50.6585V50.6595Z" fill="#A72024"/>
<path d="M49.0413 45.0918C49.0413 45.0918 53.8066 45.5361 54.5993 45.2246C55.3841 44.915 56.9297 43.7457 58.4573 42.5524C58.7883 42.2958 59.1164 42.0362 59.4375 41.7845C60.9671 40.5853 62.2972 39.5528 62.5695 39.6057C62.5695 39.6057 62.5705 39.6057 62.5735 39.6067C62.5924 39.6107 62.6103 39.6187 62.6293 39.6356C62.7898 39.7644 62.9823 40.2737 63.1737 40.9597C63.6753 42.7621 64.1699 45.7798 64.0821 46.2541C64.0811 46.2571 64.0811 46.2581 64.0811 46.2591C64.0771 46.2771 64.0722 46.291 64.0672 46.299C64.0662 46.301 64.0662 46.303 64.0652 46.304C64.0642 46.305 64.0642 46.306 64.0612 46.309C63.8608 46.5896 60.8504 49.056 59.5382 50.1225C59.1712 50.4251 58.9359 50.6138 58.9359 50.6138C58.9359 50.6138 58.9658 50.6298 59.0236 50.6587C59.0765 50.6867 59.1543 50.7256 59.253 50.7746C59.4793 50.8894 59.8194 51.0572 60.2511 51.2619H60.2521C61.2443 51.7352 62.721 52.4042 64.4032 53.0523C67.3966 54.2096 71.0382 55.302 73.7394 55.1143C73.9349 55.1003 74.1243 55.0803 74.3098 55.0534C74.3098 55.0534 73.867 52.4911 74.5062 51.3637C75.1444 50.2373 79.4291 39.8763 79.6195 39.1184C79.7881 38.4434 79.8469 37.5027 79.9087 36.6619C79.9247 36.4392 79.9396 36.2246 79.9586 36.0238C80.0154 35.3998 80.0932 34.9105 80.2557 34.7517C80.2617 34.7457 80.2707 34.7367 80.2806 34.7277C80.2846 34.7227 80.2896 34.7187 80.2946 34.7137C80.3046 34.7038 80.3175 34.6908 80.3315 34.6788C80.3524 34.6558 80.3784 34.6309 80.4073 34.6049C80.4133 34.5969 80.4202 34.5909 80.4272 34.5849C81.4852 33.5344 86.8049 28.2081 89.1043 25.0986C89.1193 25.0766 89.1342 25.0567 89.1482 25.0377C89.6398 24.3667 89.9868 23.8035 90.1114 23.414H90.1124C90.1643 23.2533 90.2101 23.0835 90.253 22.9088C90.8294 20.5372 90.617 16.9684 90.617 16.9684C90.617 16.9684 90.616 16.9674 90.611 16.9654C90.5621 16.9474 90.1972 16.8296 88.8261 16.6478C87.8389 16.517 86.6514 16.6238 86.6015 16.6288H86.6005C86.6005 16.6288 85.744 21.7025 85.4987 21.9771C84.8475 22.7051 77.5196 28.4428 76.2033 28.8392C76.2003 28.8392 76.1993 28.8402 76.1984 28.8402C76.1535 28.8542 76.1156 28.8602 76.0847 28.8602H76.0657C75.8972 28.8572 75.7307 28.8552 75.5751 28.8552C75.5662 28.8542 75.5572 28.8542 75.5482 28.8552C74.9051 28.8502 74.3138 28.8023 74.3138 28.8023C74.3138 28.8023 76.305 31.4465 76.0817 33.5524C75.8553 35.6594 69.7778 35.5825 68.1275 34.3053C67.256 33.6313 66.228 32.3661 65.4532 31.3216C65.0344 30.7594 64.6904 30.2622 64.482 29.9536C64.3424 29.7479 64.2646 29.6271 64.2646 29.6271C64.2646 29.6271 64.2626 29.6281 64.2586 29.6301C64.2477 29.6331 64.2247 29.6401 64.1898 29.653C64.1759 29.657 64.1609 29.663 64.1429 29.668C64.125 29.674 64.1061 29.681 64.0861 29.687C63.8029 29.7839 63.2246 29.9886 62.6433 30.2372C62.3331 30.37 62.021 30.5158 61.7528 30.6646C61.7498 30.6656 61.7488 30.6676 61.7478 30.6686C61.5544 30.7754 61.3849 30.8853 61.2552 30.9921C59.9221 32.0905 53.5793 39.8104 52.7756 40.3486C52.7726 40.3506 52.7716 40.3526 52.7686 40.3526C52.7496 40.3646 52.7347 40.3726 52.7237 40.3766C52.2022 40.5363 49.0433 41.2813 49.0433 41.2813C49.0353 41.3102 48.794 42.2229 48.777 43.1216C48.7531 44.3069 49.0283 45.0528 49.0433 45.0918H49.0413Z" fill="#D92728"/>
<path d="M58.9339 50.6137C58.9339 50.6137 61.326 51.8668 64.4012 53.0521C66.0993 50.9362 66.9668 47.3693 66.7325 45.2015C66.3615 41.7445 63.1059 39.8901 62.6273 39.6355C63.2335 40.1178 64.2705 45.9833 64.0621 46.3029C64.0611 46.3049 64.0601 46.3059 64.0582 46.3079C63.8587 46.5895 60.8464 49.0549 59.5351 50.1224C59.1672 50.4239 58.9329 50.6127 58.9329 50.6127L58.9339 50.6137Z" fill="#C1212A"/>
<path d="M80.2538 34.7517C80.6656 34.3503 89.3596 25.7447 90.1105 23.4131C90.1105 23.4131 78.9296 30.4579 80.2538 34.7517Z" fill="#C4453B"/>
<path d="M19.868 67.9625C19.868 67.9625 26.2637 68.8533 27.5161 71.8569C27.5161 71.8569 28.0585 69.3945 27.0504 67.9625C26.0423 66.5306 18.9616 64.4197 18.8011 64.2819C18.6406 64.1441 16.7171 64.8281 19.867 67.9625H19.868Z" fill="#A51C2D"/>
<path d="M64.6924 122.18C64.6924 122.18 67.5223 123.38 70.2116 122.089C70.2116 122.089 73.2798 122.209 75.8574 124.174C75.273 125.685 70.9764 124.353 67.4714 124.801C63.9655 125.248 63.7252 125.272 64.6924 122.18Z" fill="#A51C2D"/>
<path d="M113.034 118.42C112.639 119.752 110.817 120.64 110.571 122.267C110.366 123.618 109.652 124.458 108.91 124.706H104.188C104.075 124.444 103.819 123.584 105.149 123.292C106.725 122.947 107.32 121.033 107.221 119.258C107.18 118.513 107.2 117.664 107.235 116.929C107.285 115.913 107.368 115.114 107.368 115.114L110.718 114.325L111.07 114.777L111.407 115.213C111.407 115.213 113.428 117.087 113.034 118.419V118.42Z" fill="#490404"/>
<path d="M86.2496 124.706H74.8064C74.9251 124.294 75.3109 123.588 76.5763 123.383C78.3422 123.095 81.4025 122.069 82.0845 119.807C82.1065 119.734 82.1264 119.659 82.1433 119.583C82.6858 117.166 86.6265 120.323 86.6265 120.323C86.6265 120.323 86.6384 120.421 86.6554 120.585C86.7471 121.467 86.9785 124.298 86.2496 124.705V124.706Z" fill="#490404"/>
<path d="M77.046 60.0563C77.046 60.0563 77.6443 67.5355 78.3482 76.5245C79.3045 88.7369 80.4542 103.737 80.5679 106.579C80.7643 111.514 81.554 119.407 81.554 119.407C81.554 119.407 83.4257 121.282 87.1699 120.492C87.1699 120.492 90.5073 109.224 91.4606 97.3025C91.4756 97.1078 91.4905 96.9101 91.5045 96.7134C92.3909 84.5769 93.77 59.0208 93.77 59.0208L77.045 60.0573L77.046 60.0563Z" fill="#021011"/>
<path d="M77.046 60.0563C77.046 60.0563 77.6443 67.5355 78.3482 76.5245L91.4606 97.3015C91.4756 97.1068 91.4905 96.9091 91.5045 96.7124C92.3909 84.5759 93.77 59.0198 93.77 59.0198L77.045 60.0563H77.046Z" fill="black"/>
<path d="M79.7792 60.944C79.7792 60.944 90.5682 88.0289 97.6629 100.758C104.757 113.486 106.974 117.038 106.974 117.038C106.974 117.038 111.038 115.41 111.408 114.3C111.408 114.3 108.695 89.7275 103.945 83.7361C101.261 80.351 98.1066 70.1937 97.959 66.6418C97.8114 63.0899 96.9988 56.0591 96.9988 56.0591L79.7802 60.943L79.7792 60.944Z" fill="#032C33"/>
<path d="M93.9745 19.204C93.9745 19.204 86.6744 22.7859 82.4655 21.4568C82.4655 21.4568 83.5015 20.1277 85.3143 19.1391C85.1688 18.2804 85.0551 17.5344 84.9903 16.9023C84.8118 15.4435 84.8118 14.6166 84.8118 14.6166L87.6287 12.3639L90.299 10.208C90.0886 16.2703 93.9735 19.204 93.9735 19.204H93.9745Z" fill="#F7A89A"/>
<path d="M97.7057 57.7036C97.7216 58.1569 96.7674 58.6762 96.3466 58.8709C93.2226 60.2649 90.3089 61.2375 87.0074 61.562C83.1066 61.9674 78.4938 61.0757 76.9074 61.1077C76.7458 61.1077 76.6003 61.0428 76.4706 60.9289C76.357 60.8481 76.2762 56.066 76.357 50.0526C76.357 49.809 76.357 49.5663 76.3729 49.3227V49.2418C76.4058 46.8912 76.4866 44.4278 76.5993 41.9633C76.8256 36.5491 77.2464 31.3297 77.9594 28.4448C78.8169 25.0407 80.7593 22.788 82.5243 21.1503L83.9811 19.8532C85.4379 20.1448 86.9755 20.0639 88.5131 19.302C90.1962 18.4752 92.2493 17.4297 92.5345 17.6654C95.0264 19.7294 95.9916 23.1265 96.7843 27.8277C97.238 30.5348 97.4644 33.5664 97.4484 36.7428C97.4484 37.9102 97.4155 39.1094 97.3517 40.2927C96.9628 46.7115 97.3517 52.2874 97.5781 55.5128C97.6429 56.4534 97.6917 57.1823 97.7077 57.7016L97.7057 57.7036Z" fill="#A72024"/>
<path d="M97.6917 55.258C62.3242 55.2091 91.1684 28.8532 91.1684 28.8532L96.0315 27.573C96.4852 30.2801 97.5781 33.3117 97.5621 36.4881C97.5621 37.6554 97.5302 38.8547 97.4654 40.038C97.0765 46.4567 97.4654 52.0327 97.6917 55.258Z" fill="#BC2A35"/>
<path d="M90.3489 12.526C90.3489 12.526 88.5042 15.9461 84.9912 16.9027C84.8127 15.4438 84.8127 14.617 84.8127 14.617L87.6297 12.3643L90.3489 12.526Z" fill="#E88C80"/>
<path d="M83.5294 14.5179C83.5294 14.5179 90.4934 15.6762 91.1475 11.3225C91.8016 6.96875 93.1408 4.18577 88.7215 3.2621C84.3031 2.33844 83.1873 3.86923 82.616 5.26921C82.0446 6.66919 81.7345 14.1045 83.5294 14.5179Z" fill="#F7A89A"/>
<path d="M91.1007 11.6222C91.1007 11.6222 90.9601 5.78965 84.6153 4.854C80.2688 4.21292 82.9012 0.576169 83.3978 0C83.3978 0 86.7203 0.635084 90.1205 1.38201C97.258 2.95074 91.8555 10.7555 91.1007 11.6222Z" fill="#032C33"/>
<path d="M74.9739 47.0359L73.6088 46.8681C73.6088 46.8681 72.142 44.0582 69.353 45.9724C69.353 45.9724 68.2422 46.8642 68.9342 47.5362C69.6253 48.2082 69.4488 47.8188 70.405 48.7954C71.3613 49.772 72.6386 50.0775 73.4961 49.4764L74.5711 49.3036L74.9749 47.0369L74.9739 47.0359Z" fill="#F7A89A"/>
<path d="M90.6649 20.3038C94.3543 18.7061 101.252 29.3567 95.6226 45.4345C93.8647 50.4532 73.2877 49.922 73.2877 49.922C73.2877 49.922 72.2527 48.6758 74.0356 46.8145C74.0356 46.8145 86.769 42.0773 88.2657 41.4053C89.5939 40.8082 85.7031 28.0246 87.118 24.1612C87.8729 22.1022 89.0575 21.0008 90.6649 20.3048V20.3038Z" fill="#911922"/>
</svg>
