<svg width="190" height="57" viewBox="0 0 190 57" fill="none" xmlns="http://www.w3.org/2000/svg">
<path d="M182.141 56.0355H7.80935C3.90258 56.0355 0.835999 52.9529 0.835999 49.031V7.00444C0.835999 3.08261 3.90258 0 7.80935 0H182.141C186.045 0 189.114 3.08261 189.114 7.00444V49.031C189.114 52.9529 186.045 56.0355 182.141 56.0355Z" fill="black"/>
<path d="M182.141 1.12052C185.348 1.12052 187.998 3.78235 187.998 7.00444V49.031C187.998 52.2531 185.348 54.915 182.141 54.915H7.80935C4.60156 54.915 1.95155 52.2531 1.95155 49.031V7.00444C1.95155 3.78235 4.60156 1.12052 7.80935 1.12052H182.141ZM182.141 0H7.80935C3.90258 0 0.835999 3.22209 0.835999 7.00444V49.031C0.835999 52.9529 3.90493 56.0355 7.80935 56.0355H182.141C186.045 56.0355 189.114 52.9529 189.114 49.031V7.00444C189.114 3.22209 186.045 0 182.141 0Z" fill="#A6A6A6"/>
<path d="M66.9426 14.288C66.9426 15.4085 66.6625 16.3895 65.9659 17.0893C65.128 17.9309 64.1537 18.3493 62.8969 18.3493C61.6402 18.3493 60.6658 17.9285 59.828 17.0893C58.9902 16.2477 58.5736 15.269 58.5736 14.0067C58.5736 12.7443 58.9925 11.7656 59.828 10.9241C60.6658 10.0825 61.6402 9.66406 62.8969 9.66406C63.4547 9.66406 64.0125 9.80354 64.5703 10.0848C65.128 10.3662 65.547 10.6451 65.8247 11.0659L65.128 11.7656C64.5703 11.0659 63.8736 10.7846 62.8969 10.7846C62.0591 10.7846 61.2236 11.0659 60.6658 11.7656C59.9692 12.3259 59.6892 13.1675 59.6892 14.1461C59.6892 15.1248 59.9692 15.9664 60.6658 16.5267C61.3625 17.0869 62.0615 17.5077 62.8969 17.5077C63.8736 17.5077 64.5703 17.2264 65.2669 16.5267C65.6858 16.1059 65.9635 15.5456 65.9635 14.8459H62.8946V13.7254H66.9402V14.2856L66.9426 14.288ZM73.3558 10.7869H69.5902V13.4488H73.0757V14.4298H69.5902V17.0916H73.3558V18.2122H68.4747V9.8059H73.3558V10.7869ZM77.9592 18.2122H76.8436V10.7869H74.4737V9.8059H80.3315V10.7869H77.9615V18.2122H77.9592ZM84.3748 18.2122V9.8059H85.4903V18.2122H84.3748ZM90.2326 18.2122H89.117V10.7869H86.7471V9.8059H92.466V10.7869H90.0961V18.2122H90.2349H90.2326ZM103.48 17.0916C102.642 17.9332 101.668 18.3516 100.411 18.3516C99.1546 18.3516 98.1802 17.9309 97.3424 17.0916C96.5046 16.2501 96.088 15.2714 96.088 14.009C96.088 12.7467 96.5069 11.768 97.3424 10.9264C98.1802 10.0848 99.1546 9.66643 100.411 9.66643C101.668 9.66643 102.642 10.0872 103.48 10.9264C104.318 11.768 104.735 12.7467 104.735 14.009C104.735 15.2714 104.316 16.2501 103.48 17.0916ZM98.1826 16.3895C98.7404 16.9498 99.5782 17.3706 100.414 17.3706C101.249 17.3706 102.087 17.0893 102.645 16.3895C103.203 15.8293 103.621 14.9877 103.621 14.009C103.621 13.0304 103.341 12.1888 102.645 11.6285C102.087 11.0683 101.249 10.6475 100.414 10.6475C99.5782 10.6475 98.7404 10.9288 98.1826 11.6285C97.6248 12.1888 97.2059 13.0304 97.2059 14.009C97.2059 14.9877 97.486 15.8293 98.1826 16.3895ZM106.271 18.2122V9.8059H107.526L111.572 16.3895V9.8059H112.687V18.2122H111.572L107.248 11.3472V18.2122H106.271Z" fill="white" stroke="white" stroke-width="1.19" stroke-miterlimit="59.26"/>
<path d="M95.8103 30.5402C92.4637 30.5402 89.8136 33.0625 89.8136 36.5636C89.8136 40.0646 92.4637 42.587 95.8103 42.587C99.1569 42.587 101.807 40.0646 101.807 36.5636C101.807 33.0625 99.1569 30.5402 95.8103 30.5402ZM95.8103 40.0646C93.9981 40.0646 92.4637 38.5233 92.4637 36.4217C92.4637 34.3202 93.9981 32.7789 95.8103 32.7789C97.6225 32.7789 99.1569 34.1807 99.1569 36.4217C99.1569 38.5233 97.6225 40.0646 95.8103 40.0646ZM82.8403 30.5402C79.4937 30.5402 76.8436 33.0625 76.8436 36.5636C76.8436 40.0646 79.4937 42.587 82.8403 42.587C86.1869 42.587 88.837 40.0646 88.837 36.5636C88.837 33.0625 86.1869 30.5402 82.8403 30.5402ZM82.8403 40.0646C81.0281 40.0646 79.4937 38.5233 79.4937 36.4217C79.4937 34.3202 81.0281 32.7789 82.8403 32.7789C84.6525 32.7789 86.1869 34.1807 86.1869 36.4217C86.1869 38.5233 84.6525 40.0646 82.8403 40.0646ZM67.3591 32.3604V34.8828H73.3558C73.2169 36.2846 72.6592 37.4052 71.9602 38.1049C71.1223 38.9465 69.7291 39.9251 67.3568 39.9251C63.5912 39.9251 60.8024 36.9844 60.8024 33.202C60.8024 29.4197 63.7301 26.4789 67.3568 26.4789C69.3102 26.4789 70.8423 27.3205 71.9602 28.2992L73.7724 26.4789C72.2379 25.0771 70.2869 23.9565 67.4956 23.9565C62.4757 23.9565 58.1523 28.1597 58.1523 33.202C58.1523 38.2444 62.4757 42.4475 67.4956 42.4475C70.2845 42.4475 72.2379 41.6059 73.9112 39.7857C75.5845 38.1049 76.1423 35.722 76.1423 33.9018C76.1423 33.3415 76.1423 32.7812 76.0035 32.3604H67.3568H67.3591ZM130.677 34.3225C130.119 32.9207 128.724 30.5402 125.657 30.5402C122.59 30.5402 120.079 32.9207 120.079 36.5636C120.079 39.9251 122.59 42.587 125.937 42.587C128.587 42.587 130.26 40.9062 130.818 39.9251L128.865 38.5233C128.168 39.5044 127.33 40.2041 125.937 40.2041C124.544 40.2041 123.706 39.6438 123.009 38.3838L130.959 35.0223L130.679 34.3225H130.677ZM122.588 36.2823C122.588 34.0412 124.4 32.7812 125.657 32.7812C126.634 32.7812 127.61 33.3415 127.888 34.0412L122.588 36.2823ZM116.034 42.0267H118.684V24.5168H116.034V42.0267ZM111.849 31.8002C111.153 31.1005 110.037 30.3984 108.641 30.3984C105.714 30.3984 102.923 33.0602 102.923 36.4217C102.923 39.7833 105.573 42.3057 108.641 42.3057C110.037 42.3057 111.153 41.6059 111.71 40.9038H111.849V41.7454C111.849 43.9864 110.595 45.2464 108.641 45.2464C107.107 45.2464 105.991 44.1259 105.714 43.1449L103.483 44.1259C104.179 45.6672 105.853 47.6269 108.783 47.6269C111.713 47.6269 114.36 45.8067 114.36 41.4641V30.8168H111.849V31.7978V31.8002ZM108.78 40.0646C106.968 40.0646 105.434 38.5233 105.434 36.4217C105.434 34.3202 106.968 32.7789 108.78 32.7789C110.592 32.7789 111.988 34.3202 111.988 36.4217C111.988 38.5233 110.592 40.0646 108.78 40.0646ZM142.812 24.5144H136.535V42.0243H139.185V35.4407H142.812C145.739 35.4407 148.53 33.3391 148.53 29.9776C148.53 26.616 145.742 24.5144 142.812 24.5144ZM142.95 32.9207H139.185V26.8973H142.95C144.904 26.8973 146.019 28.5781 146.019 29.8381C145.88 31.3794 144.765 32.9207 142.95 32.9207ZM158.989 30.3984C157.036 30.3984 155.085 31.2399 154.386 33.0602L156.756 34.0412C157.314 33.0602 158.152 32.7812 159.126 32.7812C160.521 32.7812 161.776 33.6228 161.915 35.0223V35.1618C161.496 34.8804 160.38 34.462 159.265 34.462C156.754 34.462 154.245 35.8638 154.245 38.3838C154.245 40.7644 156.337 42.3057 158.568 42.3057C160.38 42.3057 161.218 41.4641 161.915 40.6249H162.054V42.0267H164.565V35.3036C164.285 32.221 161.915 30.4007 158.987 30.4007L158.989 30.3984ZM158.709 40.0646C157.871 40.0646 156.617 39.6438 156.617 38.5233C156.617 37.1215 158.152 36.7031 159.406 36.7031C160.521 36.7031 161.079 36.9844 161.776 37.2633C161.496 38.9441 160.103 40.0646 158.707 40.0646H158.709ZM173.353 30.8191L170.425 38.3838H170.286L167.217 30.8191H164.428L169.032 41.4665L166.382 47.3504H169.032L176.144 30.8191H173.355H173.353ZM149.924 42.0267H152.574V24.5168H149.924V42.0267Z" fill="white"/>
<path d="M15.3403 10.5049C14.9214 10.9257 14.7825 11.6254 14.7825 12.467V43.4255C14.7825 44.2671 15.0626 44.9668 15.4792 45.3876L15.618 45.5271L32.9114 28.1566V27.8753L15.3403 10.5049Z" fill="url(#paint0_linear_129_8645)"/>
<path d="M38.4914 34.041L32.7725 28.2966V27.8758L38.4914 22.1313L38.6303 22.2708L45.4648 26.1926C47.4181 27.3132 47.4181 29.1334 45.4648 30.2563L38.4914 34.0387V34.041Z" fill="url(#paint1_linear_129_8645)"/>
<path d="M38.6304 33.9015L32.7726 28.0176L15.3404 45.5275C16.037 46.2272 17.0137 46.2272 18.2681 45.667L38.6304 33.8991" fill="url(#paint2_linear_129_8645)"/>
<path d="M38.6304 22.134L18.2681 10.5057C17.0137 9.80592 16.037 9.94539 15.3404 10.6451L32.7726 28.0156L38.6304 22.1316V22.134Z" fill="url(#paint3_linear_129_8645)"/>
<path opacity="0.2" d="M38.4915 33.7597L18.2681 45.2462C17.1526 45.9459 16.1759 45.8065 15.4792 45.2462L15.3404 45.3857L15.4792 45.5252C16.1759 46.0854 17.1526 46.2249 18.2681 45.5252L38.4915 33.7573V33.7597Z" fill="black"/>
<path opacity="0.12" d="M15.3403 45.2485C14.9214 44.8277 14.7825 44.1279 14.7825 43.2864V43.4258C14.7825 44.2674 15.0626 44.9671 15.4792 45.3879V45.2485H15.3403ZM45.4648 29.8378L38.4914 33.7596L38.6303 33.8991L45.4648 29.9772C46.4415 29.417 46.8604 28.7172 46.8604 28.0151C46.8604 28.7149 46.3026 29.2751 45.4648 29.8354V29.8378Z" fill="black"/>
<path opacity="0.25" d="M18.268 10.6469L45.4648 26.1971C46.3026 26.7574 46.8604 27.3176 46.8604 28.0174C46.8604 27.3176 46.4415 26.6155 45.4648 26.0553L18.268 10.5051C16.3146 9.38457 14.7825 10.2238 14.7825 12.4672V12.6067C14.7825 10.5051 16.317 9.52405 18.268 10.6446V10.6469Z" fill="white"/>
<defs>
<linearGradient id="paint0_linear_129_8645" x1="34.7392" y1="13.4935" x2="11.2167" y2="36.9116" gradientUnits="userSpaceOnUse">
<stop stop-color="#00A1FF"/>
<stop offset="0.26" stop-color="#00BEFF"/>
<stop offset="0.51" stop-color="#00D2FF"/>
<stop offset="0.76" stop-color="#00DFFF"/>
<stop offset="1" stop-color="#00E3FF"/>
</linearGradient>
<linearGradient id="paint1_linear_129_8645" x1="51.5424" y1="29.3908" x2="17.7686" y2="29.3908" gradientUnits="userSpaceOnUse">
<stop stop-color="#FFE000"/>
<stop offset="0.41" stop-color="#FFBD00"/>
<stop offset="0.78" stop-color="#FFA500"/>
<stop offset="1" stop-color="#FF9C00"/>
</linearGradient>
<linearGradient id="paint2_linear_129_8645" x1="38.9541" y1="32.5308" x2="7.04875" y2="64.2806" gradientUnits="userSpaceOnUse">
<stop stop-color="#FF3A44"/>
<stop offset="1" stop-color="#C31162"/>
</linearGradient>
<linearGradient id="paint3_linear_129_8645" x1="14.4472" y1="1.57872" x2="28.7037" y2="15.7719" gradientUnits="userSpaceOnUse">
<stop stop-color="#32A071"/>
<stop offset="0.07" stop-color="#2DA771"/>
<stop offset="0.48" stop-color="#15CF74"/>
<stop offset="0.8" stop-color="#06E775"/>
<stop offset="1" stop-color="#00F076"/>
</linearGradient>
</defs>
</svg>
